<svg xmlns="http://www.w3.org/2000/svg" fill="none" viewBox="0 0 310 200" height="200" width="310">
<path fill="#FAFAF9" d="M0.707031 108.129C2.74364 108.131 4.78024 108.139 6.81774 108.127C7.16736 108.125 7.29049 108.221 7.3615 108.581C7.91693 111.387 9.6875 113.123 12.3496 114.028C14.0825 114.617 15.88 114.767 17.7 114.713C19.6773 114.655 21.6402 114.489 23.5303 113.856C24.7652 113.443 25.9012 112.875 26.7326 111.822C27.8228 110.442 27.9163 107.723 25.4653 106.66C24.1918 106.107 22.8445 105.863 21.4937 105.614C17.5032 104.875 13.5082 104.156 9.52662 103.37C8.16319 103.1 6.87077 102.568 5.66373 101.858C3.6442 100.668 2.57646 98.8791 2.35627 96.5935C2.19719 94.9424 2.28077 93.2985 2.82902 91.7082C3.73048 89.0897 5.59812 87.386 8.0877 86.2945C10.0928 85.4154 12.2148 84.9647 14.3907 84.8684C16.3006 84.7836 18.224 84.7497 20.1294 84.8755C23.1438 85.0754 26.0486 85.751 28.5598 87.5502C30.6845 89.0718 31.8996 91.1531 32.2438 93.7278C32.3148 94.2561 32.3274 94.7925 32.3697 95.3244C32.3912 95.5948 32.3085 95.7278 31.9967 95.7251C30.3043 95.7135 28.6119 95.7153 26.9195 95.7233C26.6796 95.7242 26.5627 95.6448 26.5295 95.4092C26.1448 92.6435 24.4479 91.0254 21.8334 90.3481C18.3507 89.4449 14.8527 89.4601 11.3952 90.5328C10.9314 90.6765 10.4829 90.9139 10.0713 91.1763C8.58112 92.1258 8.00771 93.6528 8.45979 95.3521C8.72313 96.3436 9.37833 96.9978 10.2753 97.4422C11.5479 98.0732 12.9285 98.3481 14.3108 98.5872C17.6928 99.1736 21.0857 99.7037 24.465 100.304C26.3362 100.637 28.1625 101.149 29.8432 102.074C32.02 103.274 33.219 105.117 33.5048 107.56C33.725 109.441 33.6675 111.297 32.9188 113.075C31.9041 115.489 30.0347 117.04 27.7024 118.104C25.7278 119.005 23.6364 119.478 21.4865 119.716C20.4934 119.826 19.4966 119.905 18.5017 119.998H15.7155C15.5843 119.976 15.4549 119.94 15.3228 119.935C13.3922 119.849 11.485 119.613 9.62189 119.086C5.16042 117.826 2.19719 115.095 1.12226 110.524C0.958686 109.821 0.844542 109.107 0.707031 108.397C0.707031 108.308 0.707031 108.219 0.707031 108.129Z"></path>
<path fill="#FAFAF9" d="M195.115 76.0009C195.107 76.1339 195.094 76.2677 195.094 76.4007C195.093 81.2485 195.093 86.0973 195.093 90.9451V91.469C195.287 91.253 195.401 91.1299 195.511 91.0022C197.983 88.1223 201.005 86.1035 204.776 85.3539C208.412 84.631 212.016 84.7033 215.455 86.2624C218.572 87.676 220.418 90.1285 220.96 93.4699C221.214 95.0308 221.329 96.6292 221.338 98.2124C221.378 104.875 221.355 111.537 221.355 118.2V118.721C221.151 118.731 220.992 118.745 220.832 118.745C219.2 118.747 217.567 118.729 215.935 118.757C215.483 118.765 215.392 118.611 215.393 118.197C215.404 111.937 215.411 105.675 215.394 99.4145C215.39 97.585 215.255 95.7635 214.61 94.0214C213.74 91.6725 211.96 90.4498 209.543 90.1089C206.664 89.7037 203.866 90.0187 201.254 91.3592C197.863 93.0995 195.935 95.9188 195.293 99.6153C195.138 100.502 195.103 101.418 195.1 102.32C195.083 107.614 195.092 112.909 195.092 118.203C195.092 118.363 195.092 118.524 195.092 118.714H189.107C189.107 118.517 189.107 118.316 189.107 118.115C189.107 104.285 189.107 90.4543 189.107 76.6238C189.107 76.4159 189.097 76.2079 189.092 76C191.099 76 193.107 76 195.114 76L195.115 76.0009Z"></path>
<path fill="#FAFAF9" d="M53.0161 119.999C52.2468 119.906 51.4738 119.832 50.7081 119.718C43.5431 118.645 37.986 113.841 36.5085 106.433C35.7616 102.688 35.9494 98.9719 37.3389 95.3851C39.1742 90.6479 42.5545 87.4261 47.3934 85.8233C52.2728 84.2071 57.181 84.2615 61.9588 86.2106C66.5057 88.0651 69.4015 91.4181 70.5555 96.1999C70.5897 96.3409 70.605 96.4864 70.6337 96.6613C70.4827 96.6774 70.3677 96.6997 70.2526 96.6997C68.4398 96.7024 66.6279 96.6997 64.8151 96.7024C64.5985 96.7024 64.4358 96.7006 64.3397 96.4266C63.1641 93.0915 60.7365 91.1575 57.3095 90.5069C53.9472 89.8679 50.6775 90.2481 47.6783 91.9848C44.7789 93.6635 43.189 96.2811 42.5895 99.5047C42.0655 102.323 42.2309 105.107 43.3858 107.763C44.9128 111.276 47.6559 113.344 51.3893 114.113C54.0704 114.666 56.7235 114.536 59.2535 113.402C62.0703 112.139 63.8283 109.988 64.5311 106.993C64.5518 106.907 64.5689 106.819 64.5922 106.734C64.6075 106.677 64.6309 106.624 64.6578 106.551H70.9321C70.7703 107.22 70.649 107.856 70.463 108.472C68.5639 114.744 64.2983 118.397 57.873 119.627C56.9527 119.803 56.0126 119.877 55.0815 119.997H53.0143L53.0161 119.999Z"></path>
<path fill="#FAFAF9" d="M127.705 119.999C126.876 119.905 126.044 119.831 125.218 119.716C118.148 118.734 112.126 114.437 110.592 106.344C109.744 101.867 110.152 97.4913 112.332 93.3976C114.125 90.0286 116.888 87.71 120.415 86.2624C120.469 86.2401 120.527 86.224 120.584 86.2088C120.596 86.2053 120.612 86.2178 120.665 86.2365C120.673 86.3614 120.689 86.5025 120.689 86.6444C120.69 88.5774 120.684 90.5114 120.696 92.4444C120.698 92.7372 120.613 92.9335 120.382 93.1254C118.216 94.9264 117.039 97.2646 116.627 100.012C116.287 102.277 116.385 104.517 117.085 106.706C118.17 110.107 120.409 112.444 123.811 113.596C127.235 114.756 130.696 114.752 134.096 113.509C137.815 112.15 139.998 109.41 140.825 105.614C141.447 102.756 141.321 99.9179 140.213 97.17C139.565 95.5645 138.553 94.2178 137.205 93.1245C136.976 92.9389 136.879 92.7479 136.882 92.4498C136.894 90.3686 136.889 88.2874 136.889 86.1383C137.088 86.2097 137.252 86.2588 137.408 86.3257C142.7 88.6042 145.869 92.6069 146.988 98.1803C147.769 102.071 147.567 105.938 146.072 109.653C144.058 114.658 140.281 117.746 135.107 119.153C133.635 119.554 132.082 119.664 130.567 119.907C130.362 119.94 130.156 119.97 129.951 120H127.704L127.705 119.999Z"></path>
<path fill="#FAFAF9" d="M261.488 103.473H260.844C251.348 103.473 241.851 103.473 232.356 103.473C231.477 103.473 231.462 103.473 231.498 104.318C231.615 107.073 232.658 109.421 234.696 111.306C236.461 112.938 238.598 113.819 240.951 114.187C243.486 114.582 245.996 114.43 248.429 113.581C250.936 112.705 252.886 111.183 253.937 108.681C253.96 108.627 253.998 108.579 254.034 108.519H261.002C260.751 109.139 260.541 109.73 260.277 110.295C258.246 114.644 254.882 117.519 250.297 118.917C245.284 120.444 240.252 120.404 235.353 118.463C230.13 116.394 226.956 112.49 225.709 107.084C224.751 102.935 224.939 98.8095 226.564 94.8371C228.622 89.8054 232.464 86.7693 237.688 85.394C240.494 84.6551 243.351 84.5435 246.233 84.846C249.141 85.1513 251.891 85.9357 254.369 87.5172C257.934 89.7903 260.02 93.0826 260.972 97.1245C261.471 99.2441 261.669 101.992 261.487 103.473H261.488ZM255.101 99.2343C255.088 99.0852 255.091 98.9808 255.07 98.8817C254.355 95.4895 252.532 92.9148 249.335 91.4279C246.355 90.0419 243.216 89.8643 240.045 90.5685C236.307 91.3985 233.602 93.5243 232.225 97.1495C231.975 97.8063 231.824 98.4998 231.61 99.2352H255.102L255.101 99.2343Z"></path>
<path fill="#FAFAF9" d="M79.9746 118.793H74.0517C74.0517 118.604 74.0517 118.432 74.0517 118.259C74.0517 104.396 74.0517 90.5337 74.0517 76.6711C74.0517 76.2671 74.2549 76.0649 74.6611 76.0643C76.2043 76.0643 77.7466 76.0643 79.2897 76.0643C79.7667 76.0643 80.0052 76.2951 80.0052 76.7568C80.0052 81.4422 80.0052 86.1276 80.0052 90.813V91.3744C80.0393 91.3851 80.0735 91.3958 80.1076 91.4074C80.4429 91.0406 80.7736 90.6693 81.1133 90.307C83.8204 87.4119 87.1324 85.6314 91.0869 85.1486C94.1023 84.7809 97.0979 84.9014 99.9515 86.0964C103.356 87.5216 105.382 90.0634 105.929 93.6903C106.15 95.1539 106.275 96.6444 106.283 98.1241C106.32 104.832 106.299 111.54 106.299 118.248V118.794H100.315C100.315 118.606 100.315 118.419 100.315 118.233C100.313 111.644 100.338 105.055 100.284 98.4659C100.274 97.2191 100.054 95.9491 99.7465 94.7354C99.1219 92.2633 97.5131 90.7059 94.9561 90.2454C91.4042 89.6046 88.032 90.0946 84.9888 92.1062C82.3024 93.8822 80.7835 96.4462 80.2478 99.577C80.0789 100.567 80.0204 101.586 80.0159 102.592C79.9935 107.782 80.0061 112.974 80.0043 118.164C80.0043 118.368 79.9854 118.57 79.9746 118.795V118.793Z"></path>
<path fill="#FAFAF9" d="M157.447 91.1397C158.069 90.6078 158.778 90.0375 159.446 89.4235C162.136 86.9531 165.283 85.4904 168.934 85.1013C171.597 84.8184 174.224 84.9335 176.767 85.8269C180.691 87.2039 182.988 89.9581 183.484 94.0589C183.729 96.0875 183.787 98.1464 183.801 100.193C183.841 106.17 183.815 112.149 183.814 118.128C183.814 118.559 183.591 118.775 183.145 118.776C181.572 118.776 180 118.776 178.427 118.776C177.835 118.776 177.832 118.773 177.832 118.187C177.832 111.882 177.839 105.576 177.827 99.2709C177.824 97.6796 177.689 96.0982 177.226 94.5614C176.418 91.8831 174.546 90.4543 171.812 90.1062C169.325 89.7894 166.878 90 164.553 90.9888C160.644 92.6506 158.403 95.6278 157.716 99.7644C157.571 100.638 157.534 101.538 157.531 102.426C157.515 107.675 157.523 112.925 157.523 118.175V118.737C157.339 118.752 157.196 118.775 157.051 118.775C155.374 118.777 153.696 118.768 152.019 118.783C151.66 118.786 151.529 118.7 151.53 118.314C151.54 107.637 151.538 96.9585 151.539 86.2811C151.539 86.1508 151.551 86.0196 151.56 85.8626H157.446V91.1406L157.447 91.1397Z"></path>
<path fill="#FAFAF9" d="M286.41 91.4395C285.574 91.2762 284.776 91.0924 283.968 90.9674C279.304 90.2427 275.053 92.4248 272.925 96.6104C271.977 98.4766 271.545 100.462 271.54 102.54C271.53 107.73 271.538 112.921 271.537 118.111C271.537 118.534 271.328 118.745 270.91 118.745C269.337 118.745 267.765 118.745 266.193 118.745C265.767 118.745 265.554 118.538 265.554 118.124C265.554 112.295 265.554 106.464 265.554 100.635C265.554 95.9054 265.554 91.1763 265.554 86.4462C265.554 86.0303 265.766 85.8221 266.19 85.8215C267.763 85.8215 269.336 85.8215 270.908 85.8215C271.084 85.8215 271.26 85.8215 271.489 85.8215V91.3226C271.886 90.8255 272.19 90.4319 272.509 90.05C274.823 87.286 277.717 85.4833 281.313 84.8907C282.672 84.6667 284.047 84.5524 285.415 84.863C286.382 85.0817 286.409 85.1218 286.409 86.0812V90.9442C286.409 91.1058 286.409 91.2673 286.409 91.4395H286.41Z"></path>
<path fill="#FAFAF9" d="M288.714 85.8456H294.595V91.1825L294.694 91.2164C294.9 90.954 295.104 90.6899 295.312 90.4293C297.436 87.7564 300.09 85.8733 303.463 85.0897C305.101 84.7095 306.761 84.5239 308.44 84.8469C308.498 84.8585 308.559 84.8666 308.616 84.8817C309.183 85.0341 309.466 85.4053 309.466 85.9955C309.466 87.6162 309.466 89.2369 309.466 90.8577C309.466 91.0326 309.45 91.2075 309.439 91.4342C308.807 91.3003 308.217 91.1709 307.626 91.0513C301.546 89.8153 296.592 93.5573 295.129 98.9567C294.769 100.287 294.642 101.642 294.639 103.009C294.632 108.05 294.637 113.091 294.637 118.131C294.637 118.54 294.436 118.745 294.035 118.745C292.447 118.745 290.86 118.745 289.273 118.745C289.097 118.745 288.921 118.745 288.715 118.745V85.8456H288.714Z"></path>
<path fill="#FAFAF9" d="M132.063 84.9701V90.8362C129.892 90.3034 127.747 90.2954 125.568 90.8282C125.549 90.6497 125.525 90.5221 125.524 90.3936C125.521 88.714 125.524 87.0344 125.52 85.3556C125.52 85.1102 125.549 84.9558 125.856 84.8978C126.967 84.6845 130.963 84.7059 132.062 84.971L132.063 84.9701Z"></path>
</svg>
