<svg xmlns="http://www.w3.org/2000/svg" fill="none" viewBox="0 0 157 200" height="200" width="157">
<path fill="#FAFAF9" d="M115.64 94.7088C110.096 95.5958 107.435 99.5871 107.435 106.683C107.435 113.778 111.205 118.657 116.748 118.657C122.292 118.657 121.849 117.77 126.949 115.331V121.096C120.962 123.979 117.414 124.644 112.314 124.644C107.214 124.644 103.222 123.313 100.34 120.209C97.2353 117.105 95.6831 112.892 95.6831 108.457C95.6831 98.2566 103.222 91.3827 114.309 91.3827C125.396 91.3827 126.727 94.7088 126.727 99.5871C126.727 104.465 124.288 104.909 120.962 104.909C117.635 104.909 117.635 104.465 115.862 103.357V94.7088H115.64ZM88.8092 108.235C93.6875 102.026 95.4614 99.5871 95.4614 96.4827C95.4614 93.3784 93.0223 90.9392 89.9179 90.9392C86.8135 90.9392 86.1483 91.8262 85.2613 92.9349V105.574L77.2787 116.218V91.8262H69.7395L57.1003 112.892V91.8262H52.6655L41.135 94.7088V97.5914L47.3437 98.2566V123.979H55.5481L67.7439 104.022V123.979H76.6135L89.0309 108.235H88.8092ZM16.9653 98.4784C18.7392 98.4784 19.8479 98.0349 20.7349 98.0349C26.0567 98.0349 28.9393 101.583 28.9393 108.235C28.9393 114.887 25.3914 120.209 18.961 120.209C12.5305 120.209 18.074 120.209 17.187 120.209V98.7001L16.9653 98.4784ZM16.9653 123.757C18.961 123.757 21.1784 123.757 22.2871 123.757C33.1524 123.757 40.0263 116.883 40.0263 106.461C40.0263 96.0392 34.9263 91.161 27.8306 91.161C20.7349 91.161 22.7306 91.8262 16.9653 95.374V91.161H13.6392L1 94.9305V98.0349H6.32177V133.957L1.66522 135.066V137.948H22.2871V135.066L16.9653 133.957V123.535V123.757Z"></path>
<path fill="#FAFAF9" d="M109.881 82.5132H75.5117L81.277 72.7566H115.647L109.881 82.5132ZM156.003 63H121.634L115.868 72.7566H150.238L156.003 63Z"></path>
</svg>
