<svg xmlns="http://www.w3.org/2000/svg" fill="none" viewBox="0 0 419 200" height="200" width="419">
<g clip-path="url(#clip0_4931_67960)">
<path fill="#FAFAF9" d="M72.7 73.9C72.7 81.4 72.7 87.6 73.1 90.9C73.3 93.2 73.8 94.9 76.2 95.2C77.3 95.4 79 95.5 79.7 95.5C80.2 95.5 80.3 95.7 80.3 96C80.3 96.4 79.9 96.5999 79 96.5999C74.7 96.5999 69.7 96.4 69.3 96.4C68.9 96.4 64 96.5999 61.6 96.5999C60.7 96.5999 60.3 96.4 60.3 96C60.3 95.8 60.5 95.5 60.9 95.5C61.6 95.5 62.5 95.3 63.3 95.2C64.9 94.9 65.3 93.2 65.6 90.9C66 87.6 66 81.4 66 73.9V40.7L54.5 40.9C49.6 41 47.7 41.5 46.5 43.4C45.6 44.7 45.4 45.2 45.2 45.8C45 46.4 44.7 46.6 44.4 46.6C44.2 46.6 44 46.4 44 45.9C44 45.1 45.6 38.4 45.7 37.7C45.9 37.2 46.2 36.2 46.5 36.2C47.1 36.2 47.8 37 50 37.2C52.3 37.4 55.3 37.6 56.2 37.6H85.7C88.2 37.6 90 37.4 91.3 37.2C92.5 37 93.2 36.8 93.5 36.8C93.9 36.8 93.9 37.3 93.9 37.7C93.9 40.1 93.7 45.5 93.7 46.3C93.7 47 93.5 47.3 93.1 47.3C92.7 47.3 92.5 47.1 92.5 46L92.4 45.1C92.2 42.7 90.3 40.9 82.7 40.8L72.8 40.6V73.9H72.7Z"></path>
<path stroke-miterlimit="10" stroke-width="0.25" stroke="#FAFAF9" fill="#FAFAF9" d="M123.001 81.4999C123.001 86.4999 123.001 90.6999 123.301 92.8999C123.501 94.3999 123.801 95.5999 125.301 95.7999C126.001 95.8999 127.201 95.9999 127.701 95.9999C128.001 95.9999 128.101 96.1999 128.101 96.2999C128.101 96.5999 127.801 96.6999 127.301 96.6999C124.401 96.6999 121.101 96.4999 120.801 96.4999C120.501 96.4999 117.201 96.6999 115.701 96.6999C115.101 96.6999 114.901 96.5999 114.901 96.2999C114.901 96.0999 115.001 95.9999 115.301 95.9999C115.801 95.9999 116.401 95.8999 116.901 95.7999C118.001 95.5999 118.201 94.3999 118.401 92.8999C118.701 90.6999 118.701 86.5999 118.701 81.4999V75.9999C118.701 75.7999 118.501 75.6999 118.401 75.6999H96.0008C95.8008 75.6999 95.7008 75.7999 95.7008 75.9999V81.4999C95.7008 86.4999 95.7008 90.6999 96.0008 92.8999C96.2008 94.3999 96.5008 95.5999 98.0008 95.7999C98.7008 95.8999 99.9008 95.9999 100.401 95.9999C100.701 95.9999 100.801 96.1999 100.801 96.2999C100.801 96.5999 100.501 96.6999 100.001 96.6999C97.1008 96.6999 93.8008 96.4999 93.5008 96.4999C93.2008 96.4999 89.9008 96.6999 88.4008 96.6999C87.8008 96.6999 87.6008 96.5999 87.6008 96.2999C87.6008 96.0999 87.7008 95.9999 88.0008 95.9999C88.5008 95.9999 89.1008 95.8999 89.6008 95.7999C90.6008 95.5999 90.9008 94.3999 91.1008 92.8999C91.4008 90.6999 91.4008 86.5999 91.4008 81.4999V72.2999C91.4008 64.0999 91.4008 62.6999 91.3008 60.9999C91.2008 59.1999 90.8008 58.3999 89.0008 57.9999C88.6008 57.8999 87.7008 57.7999 87.2008 57.7999C87.0008 57.7999 86.8008 57.6999 86.8008 57.4999C86.8008 57.1999 87.1008 57.0999 87.6008 57.0999C90.0008 57.0999 93.3008 57.2999 93.5008 57.2999C93.8008 57.2999 97.1008 57.0999 98.6008 57.0999C99.2008 57.0999 99.4008 57.1999 99.4008 57.4999C99.4008 57.6999 99.2008 57.7999 99.0008 57.7999C98.6008 57.7999 98.3008 57.8999 97.7008 57.9999C96.3008 58.2999 95.9008 59.1999 95.8008 60.9999C95.7008 62.6999 95.7008 64.0999 95.7008 72.2999V73.3999C95.7008 73.6999 95.9008 73.6999 96.0008 73.6999H118.201C118.401 73.6999 118.501 73.5999 118.501 73.3999V72.2999C118.501 64.0999 118.501 62.6999 118.401 60.9999C118.301 59.1999 117.901 58.3999 116.101 57.9999C115.701 57.8999 114.801 57.7999 114.301 57.7999C114.101 57.7999 113.901 57.6999 113.901 57.4999C113.901 57.1999 114.201 57.0999 114.701 57.0999C117.101 57.0999 120.401 57.2999 120.601 57.2999C120.901 57.2999 124.201 57.0999 125.701 57.0999C126.301 57.0999 126.501 57.1999 126.501 57.4999C126.501 57.6999 126.301 57.7999 126.101 57.7999C125.701 57.7999 125.401 57.8999 124.801 57.9999C123.401 58.2999 123.001 59.1999 122.901 60.9999C123.001 62.5999 123.001 64.0999 123.001 72.1999V81.4999Z"></path>
<path stroke-miterlimit="10" stroke-width="0.25" stroke="#FAFAF9" fill="#FAFAF9" d="M152.399 56.3C164.199 56.3 172.999 63.7 172.999 76C172.999 87.8 164.699 97.5 152.099 97.5C137.699 97.5 131.699 86.3001 131.699 76.9001C131.699 68.3001 137.899 56.3 152.399 56.3ZM153.499 95.4001C158.199 95.4001 167.999 92.7001 167.999 77.4001C167.999 64.8001 160.299 58 152.099 58C143.299 58 136.799 63.8 136.799 75.3C136.699 87.6 143.999 95.4001 153.499 95.4001Z"></path>
<path stroke-miterlimit="10" stroke-width="0.25" stroke="#FAFAF9" fill="#FAFAF9" d="M221.598 90.0999C221.798 91.9999 222.198 94.8999 224.398 95.6999C225.898 96.1999 227.298 96.1999 227.798 96.1999C228.098 96.1999 228.198 96.2999 228.198 96.4999C228.198 96.7999 227.698 96.9999 227.098 96.9999C225.898 96.9999 220.298 96.7999 218.298 96.6999C217.098 96.5999 216.798 96.3999 216.798 96.1999C216.798 95.9999 216.898 95.8999 217.198 95.7999C217.498 95.6999 217.498 94.8999 217.398 93.8999L214.998 66.6999H214.798L201.898 93.9999C200.798 96.2999 200.598 96.7999 200.198 96.7999C199.798 96.7999 199.598 96.2999 198.598 94.3999C197.198 91.7999 192.698 82.7999 192.498 82.1999C191.998 81.2999 186.198 68.6999 185.598 67.1999H185.398L183.298 91.4999C183.198 92.2999 183.198 93.2999 183.198 94.1999C183.198 94.9999 183.798 95.6999 184.598 95.7999C185.498 95.9999 186.298 96.0999 186.598 96.0999C186.798 96.0999 186.998 96.1999 186.998 96.3999C186.998 96.7999 186.698 96.8999 186.098 96.8999C184.198 96.8999 181.598 96.6999 181.198 96.6999C180.698 96.6999 178.198 96.8999 176.798 96.8999C176.298 96.8999 175.898 96.7999 175.898 96.3999C175.898 96.1999 176.198 96.0999 176.398 96.0999C176.798 96.0999 177.198 96.0999 177.998 95.8999C179.698 95.5999 179.898 93.4999 180.098 91.4999L183.898 57.2999C183.998 56.6999 184.198 56.3999 184.498 56.3999C184.798 56.3999 184.998 56.5999 185.298 57.1999L201.398 90.1999L216.798 57.2999C216.998 56.7999 217.198 56.4999 217.598 56.4999C217.998 56.4999 218.098 56.8999 218.198 57.8999L221.598 90.0999Z"></path>
<path stroke-miterlimit="10" stroke-width="0.25" stroke="#FAFAF9" fill="#FAFAF9" d="M234.998 72.2C234.998 64 234.998 62.6 234.898 60.9C234.798 59.1 234.398 58.3 232.598 57.9C232.198 57.8 231.298 57.7 230.798 57.7C230.598 57.7 230.398 57.6 230.398 57.4C230.398 57.1 230.698 57 231.198 57C233.598 57 236.698 57.2 237.098 57.2C238.298 57.2 241.298 57 243.698 57C250.298 57 252.598 59.2 253.498 60C254.698 61.1 256.098 63.5 256.098 66.2C256.098 73.6 250.598 78.7 243.198 78.7C242.898 78.7 242.398 78.7 242.098 78.7C241.798 78.7 241.498 78.6 241.498 78.3C241.498 77.9 241.798 77.8 242.898 77.8C247.998 77.8 251.998 74.1 251.998 69.2C251.998 67.5 251.798 64 249.098 61.1C246.298 58.3 243.098 58.5 241.898 58.5C240.998 58.5 240.098 58.6 239.598 58.8C239.298 58.9 239.198 59.3 239.198 59.8V81.4C239.198 86.4 239.198 90.6 239.498 92.8C239.698 94.3 239.998 95.5 241.498 95.7C242.198 95.8 243.398 95.9 243.898 95.9C244.198 95.9 244.298 96.1 244.298 96.2C244.298 96.5 243.998 96.6 243.498 96.6C240.598 96.6 237.298 96.4 237.098 96.4C236.898 96.4 233.598 96.6 232.098 96.6C231.498 96.6 231.298 96.5 231.298 96.2C231.298 96 231.398 95.9 231.698 95.9C232.198 95.9 232.798 95.8 233.298 95.7C234.298 95.5 234.598 94.3 234.798 92.8C235.098 90.6 235.098 86.5 235.098 81.4V72.2H234.998Z"></path>
<path stroke-miterlimit="10" stroke-width="0.25" stroke="#FAFAF9" fill="#FAFAF9" d="M262.902 95.9999C262.202 95.5999 262.102 95.3999 262.102 93.9999C262.102 91.3999 262.302 89.2999 262.402 88.3999C262.502 87.7999 262.602 87.5999 262.802 87.5999C263.102 87.5999 263.202 87.7999 263.202 88.1999C263.202 88.6999 263.202 89.3999 263.402 90.0999C264.202 93.9999 267.702 95.4999 271.202 95.4999C276.202 95.4999 278.702 91.8999 278.702 88.4999C278.702 84.8999 277.202 82.7999 272.702 79.0999L270.302 77.1999C264.702 72.5999 263.502 69.3999 263.502 65.7999C263.502 60.1999 267.702 56.3999 274.402 56.3999C276.402 56.3999 278.002 56.5999 279.302 56.8999C280.302 57.0999 280.702 57.1999 281.102 57.1999C281.502 57.1999 281.602 57.2999 281.602 57.5999C281.602 57.8999 281.402 59.5999 281.402 63.1999C281.402 63.9999 281.302 64.3999 281.002 64.3999C280.702 64.3999 280.602 64.0999 280.602 63.6999C280.502 63.0999 280.202 61.6999 279.902 61.0999C279.602 60.4999 278.202 58.2999 273.302 58.2999C269.702 58.2999 266.802 60.5999 266.802 64.3999C266.802 67.3999 268.202 69.2999 273.202 73.1999L274.702 74.3999C280.902 79.2999 282.402 82.4999 282.402 86.6999C282.402 88.8999 281.602 92.7999 277.902 95.3999C275.602 96.9999 272.802 97.5999 270.002 97.5999C267.502 97.3999 265.102 97.0999 262.902 95.9999Z"></path>
<path stroke-miterlimit="10" stroke-width="0.25" stroke="#FAFAF9" fill="#FAFAF9" d="M308.302 56.3C320.102 56.3 328.902 63.7 328.902 76C328.902 87.8 320.602 97.5 308.002 97.5C293.602 97.5 287.602 86.3001 287.602 76.9001C287.602 68.3001 293.802 56.3 308.302 56.3ZM309.402 95.4001C314.102 95.4001 323.902 92.7001 323.902 77.4001C323.902 64.8001 316.202 58 307.902 58C299.102 58 292.602 63.8 292.602 75.3C292.602 87.6 299.902 95.4001 309.402 95.4001Z"></path>
<path stroke-miterlimit="10" stroke-width="0.25" stroke="#FAFAF9" fill="#FAFAF9" d="M338.8 89.6C338.9 93.9 339.4 95.3001 340.8 95.7001C341.8 96.0001 343 96 343.4 96C343.7 96 343.8 96.1 343.8 96.3C343.8 96.6 343.5 96.7001 342.9 96.7001C339.9 96.7001 337.8 96.5 337.3 96.5C336.8 96.5 334.6 96.7001 332.3 96.7001C331.8 96.7001 331.5 96.6 331.5 96.3C331.5 96.1 331.7 96 331.9 96C332.3 96 333.3 95.9001 334 95.7001C335.3 95.3001 335.6 93.8 335.6 89L335.7 58.9C335.7 56.9 335.9 56.3 336.3 56.3C336.7 56.3 337.6 57.5 338.1 58C338.9 58.9 346.7 67.3 354.8 76C360 81.6 365.7 88.0001 367.4 89.7001L366.8 63C366.7 59.6 366.4 58.4 364.8 58C363.9 57.8 362.7 57.7001 362.2 57.7001C361.8 57.7001 361.8 57.5 361.8 57.3C361.8 57 362.2 56.9 362.8 56.9C365.2 56.9 367.7 57.1 368.3 57.1C368.9 57.1 370.6 56.9 372.8 56.9C373.4 56.9 373.7 57 373.7 57.3C373.7 57.5 373.5 57.7001 373.1 57.7001C372.8 57.7001 372.5 57.7 371.8 57.9C370.1 58.3 369.9 59.4 369.9 62.6L369.8 93.3C369.8 96.8 369.7 97 369.3 97C368.9 97 368.3 96.4 365.5 93.6C364.9 93.1 357.4 85.4001 351.8 79.4001C345.7 72.8001 339.8 66.2 338.1 64.3L338.8 89.6Z"></path>
<path fill="#FAFAF9" d="M175.898 141.7C175.898 149.3 175.898 155.6 176.298 158.9C176.498 161.2 176.998 162.9 179.398 163.3C180.498 163.5 182.298 163.6 182.998 163.6C183.498 163.6 183.598 163.8 183.598 164.1C183.598 164.5 183.198 164.7 182.298 164.7C177.898 164.7 172.898 164.5 172.498 164.5C172.098 164.5 167.098 164.7 164.698 164.7C163.798 164.7 163.398 164.5 163.398 164.1C163.398 163.9 163.598 163.6 163.998 163.6C164.698 163.6 165.698 163.4 166.398 163.3C167.998 163 168.398 161.2 168.698 158.9C169.098 155.6 169.098 149.3 169.098 141.7V133.4C169.098 133.1 168.898 132.9 168.598 132.9H135.098C134.898 132.9 134.598 133 134.598 133.4V141.7C134.598 149.3 134.598 155.6 134.998 158.9C135.198 161.2 135.698 162.9 138.098 163.3C139.198 163.5 140.998 163.6 141.698 163.6C142.198 163.6 142.298 163.8 142.298 164.1C142.298 164.5 141.898 164.7 140.998 164.7C136.598 164.7 131.598 164.5 131.198 164.5C130.798 164.5 125.798 164.7 123.398 164.7C122.498 164.7 122.098 164.5 122.098 164.1C122.098 163.9 122.298 163.6 122.698 163.6C123.398 163.6 124.398 163.4 125.098 163.3C126.698 163 127.098 161.2 127.398 158.9C127.798 155.6 127.798 149.3 127.798 141.7V127.7C127.798 115.3 127.798 113.1 127.598 110.5C127.398 107.8 126.798 106.5 124.198 106C123.598 105.8 122.198 105.8 121.498 105.8C121.198 105.8 120.898 105.6 120.898 105.3C120.898 104.8 121.298 104.7 122.198 104.7C125.798 104.7 130.798 104.9 131.198 104.9C131.598 104.9 136.598 104.7 138.998 104.7C139.898 104.7 140.298 104.9 140.298 105.3C140.298 105.6 139.998 105.8 139.698 105.8C139.098 105.8 138.698 105.9 137.698 106C135.598 106.4 134.898 107.7 134.798 110.5C134.598 113 134.598 115.3 134.598 127.7V129.4C134.598 129.8 134.798 129.9 135.098 129.9H168.798C168.998 129.9 169.298 129.8 169.298 129.4V127.7C169.298 115.3 169.298 113.1 169.098 110.5C168.898 107.8 168.298 106.5 165.698 106C165.098 105.8 163.698 105.8 162.998 105.8C162.698 105.8 162.398 105.6 162.398 105.3C162.398 104.8 162.798 104.7 163.698 104.7C167.298 104.7 172.298 104.9 172.698 104.9C173.098 104.9 178.098 104.7 180.498 104.7C181.398 104.7 181.798 104.9 181.798 105.3C181.798 105.6 181.498 105.8 181.198 105.8C180.598 105.8 180.198 105.9 179.198 106C177.098 106.4 176.398 107.7 176.298 110.5C176.098 113 176.098 115.3 176.098 127.7V141.7H175.898Z"></path>
<path stroke-miterlimit="10" stroke-width="0.25" stroke="#FAFAF9" fill="#FAFAF9" d="M193.899 129.2C193.899 134.2 193.899 138.4 194.199 140.6C194.399 142.1 194.699 143.3 196.199 143.5C196.899 143.6 198.099 143.7 198.599 143.7C198.899 143.7 198.999 143.9 198.999 144C198.999 144.3 198.699 144.4 198.199 144.4C195.299 144.4 191.999 144.2 191.699 144.2C191.399 144.2 188.099 144.4 186.599 144.4C185.999 144.4 185.799 144.3 185.799 144C185.799 143.8 185.899 143.7 186.199 143.7C186.699 143.7 187.299 143.6 187.799 143.5C188.899 143.3 189.099 142.1 189.299 140.6C189.599 138.4 189.599 134.3 189.599 129.2V120C189.599 111.8 189.599 110.3 189.499 108.7C189.399 106.9 188.899 106 187.699 105.8C187.099 105.6 186.399 105.6 186.099 105.6C185.899 105.6 185.699 105.5 185.699 105.3C185.699 105 185.999 104.9 186.499 104.9C188.199 104.9 191.499 105.1 191.799 105.1C192.099 105.1 195.399 104.9 196.899 104.9C197.499 104.9 197.699 105 197.699 105.3C197.699 105.5 197.499 105.6 197.299 105.6C196.899 105.6 196.599 105.7 195.999 105.8C194.599 106.1 194.199 107 194.099 108.8C193.999 110.5 193.999 112 193.999 120.1V129.2H193.899Z"></path>
<path stroke-miterlimit="10" stroke-width="0.25" stroke="#FAFAF9" fill="#FAFAF9" d="M211.402 137.2C211.502 141.5 212.002 142.9 213.402 143.3C214.402 143.6 215.602 143.6 216.002 143.6C216.302 143.6 216.402 143.7 216.402 143.9C216.402 144.2 216.102 144.3 215.502 144.3C212.502 144.3 210.402 144.1 209.902 144.1C209.402 144.1 207.202 144.3 204.902 144.3C204.402 144.3 204.102 144.2 204.102 143.9C204.102 143.7 204.302 143.6 204.502 143.6C204.902 143.6 205.902 143.5 206.702 143.3C208.002 142.9 208.302 141.4 208.302 136.6L208.402 106.5C208.402 104.4 208.602 103.9 209.002 103.9C209.402 103.9 210.302 105.1 210.802 105.6C211.602 106.5 219.402 114.9 227.502 123.6C232.702 129.2 238.402 135.6 240.102 137.3L239.502 110.7C239.402 107.3 239.102 106.1 237.502 105.7C236.602 105.5 235.302 105.4 234.902 105.4C234.502 105.4 234.502 105.2 234.502 105C234.502 104.7 234.902 104.6 235.502 104.6C237.902 104.6 240.402 104.8 241.002 104.8C241.602 104.8 243.302 104.6 245.502 104.6C246.102 104.6 246.402 104.7 246.402 105C246.402 105.2 246.202 105.4 245.802 105.4C245.502 105.4 245.202 105.4 244.502 105.6C242.802 106 242.602 107.1 242.602 110.3L242.502 141C242.502 144.5 242.402 144.7 242.002 144.7C241.602 144.7 241.002 144.1 238.202 141.3C237.602 140.8 230.102 133.1 224.502 127.1C218.402 120.5 212.502 113.9 210.802 112L211.402 137.2Z"></path>
<path stroke-miterlimit="10" stroke-width="0.25" stroke="#FAFAF9" fill="#FAFAF9" d="M256.998 119.9C256.998 111.7 256.998 110.2 256.898 108.6C256.798 106.8 256.398 106 254.598 105.6C254.198 105.5 253.298 105.4 252.798 105.4C252.598 105.4 252.398 105.3 252.398 105.1C252.398 104.8 252.698 104.7 253.198 104.7C254.398 104.7 255.798 104.7 256.998 104.8L259.198 104.9C259.598 104.9 269.998 104.9 271.198 104.9C272.198 104.8 272.998 104.7 273.498 104.6C273.798 104.6 273.998 104.3 274.198 104.3C274.398 104.3 274.398 104.5 274.398 104.8C274.398 105.2 274.098 105.8 273.998 107.3C273.898 107.8 273.798 110.1 273.698 110.8C273.598 111.1 273.498 111.4 273.298 111.4C272.998 111.4 272.898 111.1 272.898 110.7C272.898 110.3 272.798 109.4 272.598 108.8C272.198 108 271.698 107.3 268.898 107C267.998 106.9 262.298 106.8 261.698 106.8C261.498 106.8 261.398 107 261.398 107.3V121.8C261.398 122.2 261.498 122.3 261.698 122.3C262.398 122.3 268.798 122.3 269.998 122.2C271.298 122.1 271.998 122 272.498 121.5C272.898 121.1 273.098 120.8 273.298 120.8C273.498 120.8 273.598 120.9 273.598 121.2C273.598 121.5 273.298 122.4 273.198 124.1C273.098 125.2 272.998 127.1 272.998 127.5C272.998 127.9 272.998 128.5 272.598 128.5C272.298 128.5 272.198 128.3 272.198 128C272.198 127.5 272.198 126.9 271.998 126.3C271.798 125.6 271.298 124.7 269.298 124.5C267.898 124.3 262.698 124.2 261.798 124.2C261.498 124.2 261.398 124.4 261.398 124.6V129.2C261.398 131 261.298 137.1 261.398 138.2C261.598 141.8 262.298 142.5 267.498 142.5C268.898 142.5 271.198 142.5 272.498 141.9C273.898 141.3 274.498 140.3 274.898 138.1C274.998 137.5 275.098 137.3 275.398 137.3C275.698 137.3 275.698 137.7 275.698 138.1C275.698 138.5 275.298 142.1 274.998 143.2C274.598 144.6 274.198 144.6 272.198 144.6C268.298 144.6 265.398 144.5 263.298 144.4C261.298 144.3 259.998 144.2 259.198 144.2C259.098 144.2 258.198 144.2 257.098 144.3C256.098 144.3 254.798 144.4 254.098 144.4C253.498 144.4 253.298 144.3 253.298 144C253.298 143.8 253.398 143.7 253.698 143.7C254.198 143.7 254.798 143.6 255.298 143.5C256.398 143.3 256.598 142.1 256.798 140.6C257.098 138.4 257.098 134.3 257.098 129.2V119.9H256.998Z"></path>
<path fill="#FAFAF9" d="M116.598 104.6H60.3984V108.5H116.598V104.6Z"></path>
<path fill="#FAFAF9" d="M369.9 104.7H280.5V108.6H369.9V104.7Z"></path>
<path fill="#FAFAF9" d="M275.697 151.8H185.797V155.7H275.697V151.8Z"></path>
</g>
<defs>
<clipPath id="clip0_4931_67960">
<rect transform="translate(44 36)" fill="white" height="129" width="330"></rect>
</clipPath>
</defs>
</svg>
