<svg xmlns="http://www.w3.org/2000/svg" fill="none" viewBox="0 0 268 196" height="196" width="268">
<path fill="#FAFAF9" d="M41.1153 97.5C41.1153 102.231 39.4712 105.517 33.9457 105.517H29.7428V89.4832H33.9457C39.4712 89.4832 41.1153 92.769 41.1153 97.5ZM154.741 88.7421C149.166 88.7421 147.46 92.0896 147.46 97.5C147.46 102.91 149.166 106.258 154.741 106.258C160.316 106.258 162.022 102.91 162.022 97.5C162.022 92.0896 160.329 88.7421 154.741 88.7421ZM266.6 100.786L240.777 126.59C237.501 129.864 234.126 131 228.873 131H5.60101C3.0422 131 0.953125 128.912 0.953125 126.355V68.6445C0.953125 66.0876 3.0422 64 5.60101 64H228.873C234.126 64 237.501 65.1364 240.777 68.4098L266.6 94.2142C268.404 96.03 268.404 98.9823 266.6 100.786ZM47.0735 97.4876C47.0735 89.372 43.2909 84.2211 34.1064 84.2211H23.797V110.754H34.1064C43.3033 110.754 47.0735 105.603 47.0735 97.4876ZM74.8743 84.2211H54.6387V110.767H74.8743V105.517H60.5845V99.884H73.1808V94.7207H60.5845V89.4709H74.8743V84.2211ZM106.903 84.2211H100.957L101.278 101.107L87.7301 84.2211H82.7856V110.767H88.7314L88.4595 93.8807L101.958 110.767H106.903V84.2211ZM136.632 84.2334H113.788V89.4832H122.231V110.767H128.177V89.4832H136.632V84.2334ZM168.017 97.5C168.017 88.7421 164.037 83.5911 154.741 83.5911C145.446 83.5911 141.465 88.7421 141.465 97.5C141.465 106.258 145.446 111.409 154.741 111.409C164.037 111.409 168.017 106.258 168.017 97.5ZM199.638 84.2211H193.692L194.013 101.107L180.465 84.2211H175.521V110.767H181.467L181.195 93.8807L194.693 110.767H199.638V84.2211ZM228.885 102.799C228.885 97.1665 226.499 95.4742 218.526 94.7824C214.694 94.4613 213.211 94.0413 213.211 92.0772V92.0525C213.223 89.8167 214.608 88.8656 218.538 88.8656C222.037 88.8656 225.288 89.5079 227.674 90.4097V85.0487C225.387 84.0481 221.246 83.5664 218.588 83.5664C210.714 83.5664 207.426 86.9263 207.426 92.0649C207.426 97.2035 209.811 98.9576 217.784 99.6493C221.604 99.9705 222.989 100.6 222.989 102.787C222.989 104.973 221.443 106.085 217.092 106.085C213.532 106.085 209.972 105.344 207.846 104.492V109.853C209.712 110.705 214.385 111.397 217.043 111.397C225.807 111.397 228.885 107.58 228.885 102.799Z"></path>
</svg>
