<svg xmlns="http://www.w3.org/2000/svg" fill="none" viewBox="0 0 162 162" height="162" width="162">
<circle stroke-width="3.375" stroke="#33312C" r="52.3125" cy="81" cx="81"></circle>
<path stroke-width="3.375" stroke="#33312C" d="M45.9727 41.5938C55.4088 45.2345 67.6384 47.4316 80.9997 47.4316C94.361 47.4316 106.591 45.2345 116.027 41.5938"></path>
<path stroke-width="3.375" stroke="#33312C" d="M45.9727 120.406C55.4088 116.765 67.6384 114.568 80.9997 114.568C94.361 114.568 106.591 116.765 116.027 120.406"></path>
<path fill="#33312C" d="M104.689 104.352C100.453 122.482 91.4364 135 80.9971 135L80.6572 134.995C70.362 134.727 61.4946 122.286 57.3037 104.352H60.7754C61.9936 109.35 63.5828 113.856 65.4561 117.707C70.0527 127.156 75.7586 131.625 80.9971 131.625C86.2355 131.625 91.9415 127.156 96.5381 117.707C98.4113 113.856 100.001 109.35 101.219 104.352H104.689ZM81.3359 27.0049C91.9084 27.28 100.975 40.3927 105.018 59.1084H101.562C100.306 53.5245 98.592 48.515 96.5381 44.293C91.9415 34.8445 86.2355 30.3752 80.9971 30.375C75.7586 30.375 70.0527 34.8443 65.4561 44.293C63.4021 48.515 61.6885 53.5245 60.4326 59.1084H56.9766C61.0625 40.1927 70.2796 27 80.9971 27L81.3359 27.0049Z"></path>
<path fill="#33312C" d="M58.1156 91.4894V98.5131H41.5342V91.4894H44.7267V73.7906H41.5342V66.767H58.1156V73.7906H54.943V91.4894H58.1156Z"></path>
<path fill="#33312C" d="M75.9341 99.0917C74.8433 99.0917 73.9121 99.0119 73.1406 98.8523C72.3691 98.6927 71.6507 98.4333 70.9856 98.0741C70.3338 97.7149 69.6354 97.2494 68.8905 96.6774L68.1921 98.5131H61.7471V88.7957H68.1522C68.5646 89.9131 69.1964 90.7046 70.0478 91.1702C70.9124 91.6225 71.97 91.8486 73.2204 91.8486C73.9919 91.8486 74.6504 91.6956 75.1958 91.3897C75.7412 91.0704 76.0139 90.6514 76.0139 90.1326C76.0139 89.4808 75.7346 88.9952 75.1759 88.676C74.6172 88.3434 73.8323 88.0375 72.8213 87.7581C71.531 87.4123 70.3604 87.0465 69.3095 86.6607C68.2719 86.2749 67.3408 85.8758 66.516 85.4635C64.8665 84.6387 63.5363 83.4681 62.5253 81.9516C61.5143 80.4352 61.0088 78.4199 61.0088 75.9057C61.0088 73.9769 61.4279 72.2742 62.2659 70.7976C63.0907 69.3344 64.2746 68.197 65.8176 67.3856C67.374 66.5608 69.2031 66.1484 71.3049 66.1484C73.8722 66.1484 75.9008 66.9665 77.3907 68.6027L78.4083 66.7271H84.135V76.2449H78.0093C77.4373 75.0477 76.8054 74.2163 76.1137 73.7507C75.422 73.2852 74.4708 73.0524 73.2603 73.0524C72.3425 73.0524 71.6308 73.2186 71.1253 73.5512C70.6198 73.8705 70.3671 74.3161 70.3671 74.8881C70.3671 75.5266 70.7329 76.0121 71.4645 76.3447C72.1828 76.6906 73.2071 77.0098 74.5373 77.3025C76.8653 77.8346 78.8739 78.5063 80.5633 79.3178C82.2128 80.1292 83.5297 81.2799 84.5141 82.7697C85.5118 84.2463 86.0106 86.1552 86.0106 88.4964C86.0106 90.4785 85.5983 92.2743 84.7735 93.8839C83.9355 95.4935 82.7449 96.7638 81.2018 97.695C79.6721 98.6262 77.9161 99.0917 75.9341 99.0917Z"></path>
<path fill="#33312C" d="M104.767 99.0917C101.455 99.0917 98.588 98.3801 96.167 96.9567C93.7593 95.5334 91.9235 93.5779 90.6598 91.0904C89.4094 88.6028 88.7842 85.7628 88.7842 82.5702C88.7842 79.2579 89.4094 76.3713 90.6598 73.9104C91.9102 71.4361 93.7327 69.5272 96.1271 68.1837C98.5348 66.8269 101.415 66.1484 104.767 66.1484C108.106 66.1484 110.979 66.8202 113.387 68.1637C115.781 69.5206 117.604 71.4361 118.854 73.9104C120.118 76.3846 120.75 79.2712 120.75 82.5702C120.75 85.7628 120.125 88.6028 118.874 91.0904C117.624 93.5779 115.788 95.5334 113.367 96.9567C110.959 98.3801 108.093 99.0917 104.767 99.0917ZM104.767 92.0082C106.204 92.0082 107.301 91.1369 108.059 89.3943C108.831 87.6517 109.217 85.3238 109.217 82.4106C109.217 79.5772 108.844 77.3357 108.099 75.6862C107.368 74.0367 106.257 73.212 104.767 73.212C103.264 73.212 102.146 74.0367 101.415 75.6862C100.683 77.3357 100.317 79.5772 100.317 82.4106C100.317 85.3238 100.696 87.6517 101.455 89.3943C102.213 91.1369 103.317 92.0082 104.767 92.0082Z"></path>
</svg>
