<svg xmlns="http://www.w3.org/2000/svg" fill="none" viewBox="0 0 424 200" height="200" width="424">
<g clip-path="url(#clip0_452_80)">
<path fill="#FAFAF9" d="M21.9938 124C8.98786 124 0 115.877 0 102.69C0 87.6045 10.6797 80.3254 24.7431 80.3254C28.4439 80.3254 31.2989 80.6419 34.7883 82.0133L34.1539 90.7693H32.2506C31.0874 85.1782 27.8095 83.8067 22.2053 83.8067C11.5256 83.8067 5.49846 91.7188 5.49846 101.846C5.49846 112.818 11.3141 120.519 22.8397 120.519C25.6947 120.519 28.5497 120.097 31.2989 119.358V104.906H36.5859C36.2687 107.121 36.1629 109.442 36.1629 111.657C36.1629 114.822 36.1629 118.092 36.6916 121.257C31.7219 122.84 27.1751 124 21.9938 124Z"></path>
<path fill="#FAFAF9" d="M45.891 123.156C46.5255 111.657 46.737 100.264 46.737 88.7648C46.737 86.5494 47.1599 80.2198 44.6222 79.1648C43.459 78.6374 41.6615 78.6374 40.3926 78.5319V76.9494C43.3533 76.422 46.4197 76 49.4862 76C50.0149 76 50.6493 76 51.178 76.1055V123.156H45.891Z"></path>
<path fill="#FAFAF9" d="M72.1145 94.0393C65.8758 94.0393 63.9725 98.1536 63.2323 103.639L79.8334 102.901C79.8334 97.5206 77.9301 94.0393 72.1145 94.0393ZM84.6975 106.382L63.0209 106.277C63.0209 114.189 66.193 120.413 75.0752 120.413C78.2474 120.413 81.3138 119.358 83.9573 117.775L83.6401 121.151C80.5736 123.261 77.5072 123.894 73.8063 123.894C63.6553 123.894 57.9454 117.143 57.9454 107.226C57.9454 98.4701 62.8094 90.8745 72.4317 91.0855C81.4195 91.191 84.8032 95.6217 84.8032 103.534C84.9089 104.483 84.8032 105.433 84.6975 106.382Z"></path>
<path fill="#FAFAF9" d="M96.9631 84.6507C94.8483 84.6507 94.0024 82.8573 94.0024 80.9584C94.0024 78.954 94.6368 77.0551 96.9631 77.0551C99.0779 77.0551 99.8181 79.0595 99.8181 80.8529C99.9238 82.7518 99.2894 84.6507 96.9631 84.6507ZM94.3196 123.156C94.8483 115.982 95.1655 108.703 95.1655 101.635C95.1655 95.6221 95.0598 94.5671 88.9269 94.1452V92.4572C91.8876 91.8243 94.9541 91.5078 98.0205 91.5078C98.5492 91.5078 99.1836 91.6133 99.7123 91.6133V123.156H94.3196Z"></path>
<path fill="#FAFAF9" d="M115.573 124C112.401 124 109.546 123.472 106.903 121.784L107.643 116.404C110.181 118.725 113.141 120.94 116.842 120.94C120.226 120.94 122.975 118.936 122.975 115.455C122.975 111.446 119.697 110.18 116.102 109.125C111.767 107.859 106.903 106.488 106.903 100.369C106.903 93.512 112.93 91.0856 118.957 91.0856C121.6 91.0856 124.35 91.4021 126.782 92.5626L125.83 100.053H124.032C123.715 96.5713 121.706 94.2505 118.005 94.2505C115.045 94.2505 111.872 95.9384 111.872 99.3142C111.872 103.217 115.256 104.272 118.957 105.433C123.398 106.804 128.262 108.176 128.262 114.505C128.156 121.362 121.706 124 115.573 124Z"></path>
<path fill="#FAFAF9" d="M142.325 124C139.153 124 136.298 123.472 133.655 121.784L134.395 116.404C136.933 118.725 139.893 120.94 143.594 120.94C146.978 120.94 149.727 118.936 149.727 115.455C149.727 111.446 146.449 110.18 142.854 109.125C138.519 107.859 133.655 106.488 133.655 100.369C133.655 93.512 139.682 91.0856 145.709 91.0856C148.352 91.0856 151.102 91.4021 153.534 92.5626L152.582 100.053H150.784C150.467 96.5713 148.458 94.2505 144.757 94.2505C141.797 94.2505 138.624 95.9384 138.624 99.3142C138.624 103.217 142.008 104.272 145.709 105.433C150.15 106.804 155.014 108.176 155.014 114.505C155.014 121.362 148.564 124 142.325 124Z"></path>
<path fill="#FAFAF9" d="M195.724 123.156C188.005 123.261 180.392 122.945 172.778 123.156C173.413 113.134 173.519 103.112 173.519 92.9847C173.519 88.4484 173.836 85.7055 171.615 84.3341C170.558 83.7012 169.078 83.4902 166.751 83.3847V81.6968C169.818 80.8528 173.413 80.6418 176.585 80.6418C177.219 80.6418 177.854 80.6418 178.488 80.7473C178.383 91.4022 178.277 102.163 178.277 112.923C178.277 120.202 179.969 119.569 186.102 119.569C191.389 119.569 193.715 119.253 194.561 113.556H196.676L195.724 123.156Z"></path>
<path fill="#FAFAF9" d="M222.159 123.156L222.053 118.409C218.669 121.89 216.237 123.789 211.268 123.789C204.923 123.789 202.174 119.886 202.174 113.767C202.174 109.442 202.597 105.222 202.597 101.002C202.597 96.7824 202.174 94.778 199.213 94.0395C198.473 93.8285 197.416 93.723 196.253 93.723V92.0351C199.213 91.4022 203.972 90.8747 207.038 91.1912C207.038 97.5208 206.721 103.956 206.721 110.286C206.721 114.611 206.932 119.886 212.642 119.886C215.814 119.886 219.41 118.409 221.524 115.982C221.736 110.919 222.159 105.749 222.159 100.58C222.159 96.6769 221.736 94.989 219.41 94.2505C218.564 94.0395 217.4 93.8285 215.92 93.723V92.0351C219.515 91.4022 222.899 91.1912 226.6 91.1912C226.811 98.5758 226.494 106.066 226.494 113.556C226.494 118.092 226.388 119.569 228.503 120.413C229.349 120.73 230.618 121.046 232.416 121.363V123.156H222.159Z"></path>
<path fill="#FAFAF9" d="M247.007 123.789C240.663 123.789 238.654 119.991 238.654 114.294C238.654 108.07 238.865 101.846 238.971 95.7275L232.944 94.8835V93.3011L239.077 92.3517V83.0682L243.729 82.3297L243.624 92.3517H252.823V95.7275H243.518C243.518 101.319 243.412 106.91 243.412 112.501C243.412 116.51 244.047 120.519 249.228 120.519C250.497 120.519 251.766 120.202 253.035 119.78L253.14 122.628C251.237 123.367 249.016 123.789 247.007 123.789Z"></path>
<path fill="#FAFAF9" d="M281.796 123.156H258.11C257.476 121.573 257.582 121.89 257.476 121.573L276.192 95.0943C273.865 94.7778 271.222 94.8833 268.896 94.8833C265.089 94.7778 262.869 95.1998 262.023 100.474H260.225L259.696 91.7184H282.219C282.325 93.7228 282.325 93.8283 282.325 93.9338V94.0393C276.509 101.318 269.424 111.129 264.137 119.147C267.098 119.463 270.059 119.78 273.02 119.78C276.192 119.78 279.258 119.463 282.325 118.725L281.796 123.156Z"></path>
<path fill="#FAFAF9" d="M314.325 132L341.891 68H344.726L317.22 132H314.325Z"></path>
<g clip-path="url(#clip1_452_80)">
<path fill="#FAFAF9" d="M387.865 108.96H376.726V97.76H387.865V108.96ZM376.726 72V91.04H380.068V90.48C380.068 81.52 385.081 75.92 394.549 75.92H395.106V116.24C395.106 121.84 392.878 124.08 387.308 124.08H385.637V128H414.599V124.08H412.929C407.359 124.08 405.131 121.84 405.131 116.24V75.92H405.688C415.156 75.92 420.169 81.52 420.169 90.48V91.04H423.511V72H376.726ZM412.372 108.96H423.511V97.76H412.372V108.96Z"></path>
</g>
</g>
<defs>
<clipPath id="clip0_452_80">
<rect fill="white" height="200" width="423.511"></rect>
</clipPath>
<clipPath id="clip1_452_80">
<rect transform="translate(376.726 72)" fill="white" height="56" width="46.7848"></rect>
</clipPath>
</defs>
</svg>
