<svg xmlns="http://www.w3.org/2000/svg" fill="none" viewBox="0 0 284 200" height="200" width="284">
<g clip-path="url(#clip0_5772_14763)">
<path fill="#FAFAF9" d="M156.602 58.2386C157.725 60.5053 157.065 63.4755 155.893 65.5106L146.82 85.9225L146.742 86.0181L143.462 65.311C143.199 63.3226 145.324 62.4742 146.574 61.5188C146.511 61.2266 146.189 61.241 145.987 61.105L142.921 61.0729L142.828 60.9803C142.846 58.4097 144.229 56.0359 146.574 54.7883C149.024 53.3729 152.474 53.7577 154.599 55.5728C155.461 56.3425 156.188 57.2367 156.602 58.2386Z"></path>
<path fill="#FAFAF9" d="M139.887 57.5295C140.628 58.9018 141.057 60.4595 140.796 62.1845L137.096 85.8938C137.116 85.9225 137.082 85.9546 137.053 85.9687L136.095 84.0612L126.822 63.3541C125.959 60.6879 126.759 57.9002 128.701 55.9892C130.658 54.0035 133.877 53.465 136.436 54.542C137.791 55.127 139.085 56.204 139.887 57.5295Z"></path>
<path fill="#FAFAF9" d="M170.024 67.5105C171.271 69.638 170.991 72.8575 169.604 74.8318C168.744 76.2184 167.326 76.9103 166.124 77.8193L146.911 91.008H146.867L147.082 90.3772L157.266 67.3892C158.792 64.6794 161.704 63.3072 164.784 63.7211C166.895 64.1064 169.005 65.4784 170.024 67.5105Z"></path>
<path fill="#FAFAF9" d="M126.377 67.3891L136.976 91.0055H136.805L115.438 76.2791C113.264 74.4469 112.372 71.7024 113.11 68.9291C113.663 66.8506 115.389 64.9083 117.441 64.1379C120.802 62.9077 124.588 64.2161 126.377 67.3891Z"></path>
<path fill="#FAFAF9" d="M175.598 84.182C176.663 86.4314 176.243 89.5115 174.721 91.4247C173.21 93.2576 171.189 94.2591 168.818 94.1953L146.035 94.2099L165.121 80.9313C166.986 79.7299 169.82 79.5124 171.855 80.4851C173.426 81.1019 174.906 82.6419 175.598 84.182Z"></path>
<path fill="#FAFAF9" d="M108.134 84.182C107.071 86.4314 107.488 89.5115 109.014 91.4247C110.525 93.2576 112.539 94.2591 114.913 94.1953L137.696 94.2099L118.61 80.9313C116.746 79.7299 113.912 79.5124 111.88 80.4851C110.307 81.1019 108.828 82.6419 108.134 84.182Z"></path>
<path fill="#FAFAF9" d="M67.2233 107.849C56.1533 107.849 47.1562 116.852 47.1562 127.922C47.1562 138.989 56.1533 147.998 67.2233 147.998C78.2935 147.998 87.2965 138.989 87.2965 127.922C87.2965 116.852 78.2935 107.849 67.2233 107.849ZM67.2233 144.043C58.3332 144.043 51.0989 136.81 51.0989 127.922C51.0989 119.037 58.3332 111.803 67.2233 111.803C76.1136 111.803 83.3479 119.038 83.3479 127.922C83.3479 136.81 76.1136 144.043 67.2233 144.043Z"></path>
<path fill="#FAFAF9" d="M240.288 128.176C239.211 127.611 232.66 124.239 231.719 123.75C228.283 121.992 227.064 120.441 227.064 117.812C227.064 114.159 230.063 111.799 234.715 111.799C237.445 111.799 240.085 113.001 241.634 113.872C241.915 114.026 242.248 114.112 242.595 114.112C243.678 114.112 244.567 113.224 244.567 112.141C244.567 111.412 244.167 110.772 243.579 110.43C241.628 109.341 238.302 107.851 234.715 107.851C227.88 107.851 223.112 111.944 223.112 117.812C223.112 123.078 226.575 125.562 229.962 127.293C230.911 127.776 237.538 131.192 238.53 131.716C241.147 133.085 242.595 135.141 242.595 137.506C242.595 140.676 239.909 144.046 234.938 144.046C230.104 144.046 226.349 140.803 225.313 139.804L225.003 139.509L222.082 142.172L222.423 142.514C223.72 143.8 228.462 147.997 234.938 147.997C242.199 147.997 246.538 142.662 246.538 137.506C246.538 133.656 244.263 130.254 240.288 128.176Z"></path>
<path fill="#FAFAF9" d="M26.0676 111.803C30.3779 111.803 34.4278 113.482 37.4675 116.519C38.1912 117.239 39.5517 117.239 40.2638 116.519C40.6402 116.151 40.8398 115.656 40.8398 115.126C40.8398 114.602 40.6402 114.101 40.2638 113.734L40.0207 113.485C36.263 109.849 31.3042 107.849 26.0676 107.849C15.003 107.849 6 116.855 6 127.919C6 138.989 15.003 147.998 26.0676 147.998C31.909 147.998 37.172 145.492 40.8398 141.496L38.0462 138.7C35.0934 141.977 30.8205 144.044 26.0673 144.044C17.1799 144.044 9.94562 136.807 9.94562 127.919C9.94589 119.04 17.1802 111.803 26.0676 111.803Z"></path>
<path fill="#FAFAF9" d="M162.136 111.803C166.441 111.803 170.496 113.482 173.535 116.519C174.256 117.239 175.617 117.239 176.329 116.519C176.706 116.151 176.914 115.656 176.914 115.126C176.914 114.602 176.705 114.101 176.329 113.734L176.089 113.485C172.323 109.849 167.37 107.849 162.136 107.849C151.069 107.849 142.062 116.854 142.062 127.919C142.062 138.989 151.069 147.998 162.136 147.998C167.974 147.998 173.237 145.491 176.911 141.496L174.114 138.699C171.162 141.976 166.883 144.043 162.136 144.043C153.245 144.043 146.008 136.807 146.008 127.919C146.008 119.04 153.245 111.803 162.136 111.803Z"></path>
<path fill="#FAFAF9" d="M128.135 107.849C127.393 107.849 126.809 108.326 126.49 108.943C126.166 109.559 114.679 137.973 114.676 137.973C114.676 137.973 103.189 109.559 102.868 108.943C102.547 108.326 101.962 107.849 101.221 107.849C100.355 107.849 99.7041 108.485 99.4754 109.288C99.2468 110.095 92.7652 145.855 92.7652 145.855C92.7419 145.971 92.7305 146.093 92.7305 146.217C92.7305 147.201 93.5324 147.998 94.5109 147.998C95.3793 147.998 96.1031 147.378 96.2592 146.559L101.872 115.963C101.872 115.963 112.702 142.717 113.018 143.354C113.336 143.988 113.927 144.483 114.679 144.483C115.432 144.483 116.02 143.988 116.335 143.354C116.654 142.717 127.483 115.963 127.483 115.963L133.316 147.778H136.941C136.941 147.778 130.112 110.095 129.883 109.288C129.651 108.485 129 107.849 128.135 107.849Z"></path>
<path fill="#FAFAF9" d="M199.5 107.851C198.75 107.848 198.169 108.337 197.841 108.974C197.517 109.608 182.976 145.522 182.976 145.522C182.889 145.733 182.84 145.968 182.84 146.217C182.84 147.201 183.636 148 184.62 148C185.37 148 186.013 147.531 186.277 146.868L191.921 132.982H207.081L213.103 147.777H216.95C216.95 147.777 201.474 109.608 201.156 108.974C200.84 108.337 200.252 107.848 199.5 107.851ZM193.53 129.029L199.499 114.352L205.475 129.029H193.53Z"></path>
<path fill="#FAFAF9" d="M275.66 108.062H253.311C252.223 108.062 251.34 108.949 251.34 110.04C251.34 111.125 252.223 112.011 253.311 112.011H262.679V147.774H266.298V112.011H275.66C276.748 112.011 277.64 111.126 277.64 110.04C277.64 108.949 276.748 108.062 275.66 108.062Z"></path>
</g>
<defs>
<clipPath id="clip0_5772_14763">
<rect transform="translate(6 52)" fill="white" height="96" width="271.639"></rect>
</clipPath>
</defs>
</svg>
