<svg xmlns="http://www.w3.org/2000/svg" fill="none" viewBox="0 0 229 200" height="200" width="229">
<g clip-path="url(#clip0_492_145)">
<mask height="128" width="229" y="36" x="0" maskUnits="userSpaceOnUse" style="mask-type:luminance" id="mask0_492_145">
<path fill="white" d="M228.571 36H0V164H228.571V36Z"></path>
</mask>
<g mask="url(#mask0_492_145)">
<mask height="128" width="229" y="36" x="0" maskUnits="userSpaceOnUse" style="mask-type:luminance" id="mask1_492_145">
<path fill="white" d="M228.571 36H0V164H228.571V36Z"></path>
</mask>
<g mask="url(#mask1_492_145)">
<path fill="#FAFAF9" d="M105.723 36.8774C105.723 36.8774 118.604 36.2298 133.675 36.1253C142.459 36.0626 187.471 32.532 192.948 67.9426C195.971 87.413 161.324 122.259 161.324 122.259H194.774C194.774 122.259 201.792 104.92 189.459 84.1122C181.67 70.9509 172.278 70.4286 150.755 64.9968C136.13 61.2992 124.486 55.3034 118.056 50.4357C108.137 42.9358 105.723 36.8565 105.723 36.8565"></path>
<path fill="#FAFAF9" d="M75.2159 121.633C72.5992 120.798 69.7188 120.401 67.2845 120.401C59.901 120.401 54.1602 124.391 54.1602 131.87C54.1602 144.969 71.7474 142.378 71.7474 151.8C71.7474 156.752 67.0614 158.673 63.7144 158.673C60.7325 158.673 57.2029 157.462 55.215 156.626L54.6267 162.246C57.3247 163.144 60.1444 164.001 63.0045 164.001C71.1997 164.001 77.9544 160.449 77.9544 151.445C77.9544 137.552 60.3675 139.433 60.3675 131.348C60.3675 123.263 71.9704 125.665 75.2159 126.773V121.654V121.633Z"></path>
<path fill="#FAFAF9" d="M100.657 148.436C99.4808 148.436 98.3041 148.311 97.148 148.311C94.1661 148.311 86.7823 148.791 86.7823 154.223C86.7823 157.482 89.8251 159.237 92.3608 159.237C97.8175 159.237 100.678 155.727 100.678 151.152V148.436H100.657ZM84.3076 135.003C87.0664 133.311 90.3526 132.099 94.1661 132.099C102.726 132.099 106.175 135.943 106.175 144.32V157.064C106.175 160.574 106.297 162.203 106.418 163.102H101.266V159.111H101.144C99.8459 160.992 96.9249 163.833 91.874 163.833C85.4232 163.833 80.9199 160.929 80.9199 154.244C80.9199 146.514 89.1355 144.091 94.8152 144.091C96.9857 144.091 98.5071 144.091 100.678 144.216C100.678 138.91 98.8113 136.695 93.2939 136.695C90.1903 136.695 86.5796 138.262 84.3279 140.33V135.024L84.3076 135.003Z"></path>
<path fill="#FAFAF9" d="M122.93 132.33H128.083V136.801H128.205C130.314 133.249 133.296 131.62 137.698 131.62C141.167 131.62 144.615 133.437 146.197 137.594C148.246 133.186 152.77 131.62 155.468 131.62C163.095 131.62 165.833 136.696 165.833 143.402V163.144H160.316V144.781C160.316 140.979 159.444 136.216 154.981 136.216C149.362 136.216 147.13 141.898 147.13 147.622V163.144H141.613V144.781C141.613 140.979 140.741 136.216 136.278 136.216C130.659 136.216 128.428 141.898 128.428 147.622V163.144H122.91V132.351L122.93 132.33Z"></path>
<path fill="#FAFAF9" d="M183.951 159.259C190.401 159.259 193.282 153.221 193.282 147.727C193.282 141.877 189.813 136.195 183.951 136.195C178.088 136.195 174.579 141.877 174.579 147.727C174.579 153.221 177.46 159.259 183.951 159.259ZM183.951 131.599C193.038 131.599 199.144 138.368 199.144 147.727C199.144 156.543 192.937 163.855 183.951 163.855C174.965 163.855 168.717 156.543 168.717 147.727C168.717 138.368 174.823 131.599 183.951 131.599Z"></path>
<path fill="#FAFAF9" d="M202.115 132.33H207.45V137.219H207.572C209.215 133.709 213.191 131.599 217.37 131.599C225.118 131.599 228.567 136.55 228.567 144.823V163.123H223.049V147.184C223.049 139.997 221.528 136.487 216.72 136.195C210.452 136.195 207.633 141.397 207.633 148.876V163.123H202.115V132.33Z"></path>
<path fill="#FAFAF9" d="M5.86238 108.576H10.2642C15.5383 108.576 20.285 107.427 20.285 101.745C20.285 95.2265 14.7066 94.3282 9.67595 94.3282H5.86238V108.576ZM5.86238 89.3771H9.08768C14.7675 89.3771 19.575 88.8338 19.575 82.6084C19.575 77.5944 15.4166 76.3199 12.0087 76.3199H5.86238V89.3561V89.3771ZM0 71.3896H11.0756C19.575 71.3896 25.4375 74.231 25.4375 82.0232C25.4375 87.8102 22.1512 90.714 16.9988 92.0511V92.1764C22.5569 92.6569 26.4921 96.3965 26.4921 102.33C26.4921 111.375 19.2302 113.569 10.8931 113.569H0V71.4315V71.3896Z"></path>
<path fill="#FAFAF9" d="M56.2095 113.527H50.8744V108.638H50.7528C49.1096 112.148 45.1338 114.258 40.9551 114.258C33.2063 114.258 29.7578 109.307 29.7578 101.034V82.7334H35.2753V98.6733C35.2753 105.86 36.7967 109.37 41.6042 109.662C47.8723 109.662 50.6918 104.481 50.6918 96.9812V82.7334H56.2095V113.527Z"></path>
<path fill="#FAFAF9" d="M61.1978 82.7336H66.3503V87.4968H66.4721C67.9325 84.3005 71.097 82.0024 74.2614 82.0024C75.9046 82.0024 76.716 82.1906 77.8925 82.4203V87.4968C76.8984 87.079 75.7828 86.9535 74.8497 86.9535C69.9206 86.9535 66.6952 91.7796 66.6952 99.5092V113.527H61.1777V82.7336H61.1978Z"></path>
<path fill="#FAFAF9" d="M100.529 98.5066C100.529 104.252 96.9592 108.952 91.7866 108.952C86.6138 108.952 83.4696 103.876 83.4696 98.0888C83.4696 92.8451 86.2285 86.6195 91.7866 86.6195C97.649 86.6195 100.529 92.1139 100.529 98.5066ZM106.047 114.008V82.7546H100.955V87.3507H100.834C99.1905 84.0291 96.2492 82.0444 90.9752 82.0444C81.9482 82.0444 77.6074 90.5052 77.6074 98.4021C77.6074 106.299 81.8266 113.548 90.3869 113.548C94.2006 113.548 98.0749 111.981 100.408 108.785H100.529V113.59C100.529 128.235 81.4006 122.97 79.5953 122.532V127.65C84.4029 129.342 106.047 132.893 106.047 114.029"></path>
<path fill="#FAFAF9" d="M130.375 95.1848C130.375 90.4843 127.677 86.6194 122.93 86.6194C117.535 86.6194 115.303 91.2155 114.897 95.1848H130.375ZM133.945 112.274C131.835 113.068 129.421 114.258 124.512 114.258C113.904 114.258 109.035 107.615 109.035 97.5871C109.035 88.4788 114.613 82.0024 123.052 82.0024C133.012 82.0024 136.237 89.4815 136.237 99.3839H114.897C114.897 105.484 119.522 109.642 124.756 109.642C128.387 109.642 132.606 107.97 133.965 106.821V112.232L133.945 112.274Z"></path>
<path fill="#FAFAF9" d="M138.287 107.364C140.457 108.806 143.743 109.662 145.326 109.662C147.841 109.662 150.945 108.576 150.945 105.254C150.945 99.6347 137.982 100.115 137.982 91.487C137.982 85.0943 142.608 82.0024 148.531 82.0024C151.107 82.0024 153.216 82.5455 155.387 83.2141V88.0818C154.069 87.079 150.397 86.5986 149.119 86.5986C146.299 86.5986 143.845 87.8102 143.845 90.338C143.845 96.6262 156.807 94.8086 156.807 104.648C156.807 111.229 151.715 114.237 146.381 114.237C143.561 114.237 140.822 113.987 138.287 112.587V107.343V107.364Z"></path>
<path fill="#FAFAF9" d="M117.312 120.714H111.795V163.123H117.312V120.714Z"></path>
</g>
</g>
</g>
<defs>
<clipPath id="clip0_492_145">
<rect fill="white" height="200" width="228.571"></rect>
</clipPath>
</defs>
</svg>
