<svg xmlns="http://www.w3.org/2000/svg" fill="none" viewBox="0 0 289 200" height="200" width="289">
<path fill="#FAFAF9" d="M17.3448 119.953C20.8881 119.953 23.0738 119.634 25.8911 118.491V112.713L21.1163 114.774C20.1608 115.053 18.8908 115.14 17.7986 115.14C11.6609 115.14 8.93384 111.383 8.93384 103.318C8.93384 94.8411 11.7074 91.4902 17.7522 91.4902C18.8908 91.4902 20.2537 91.6763 21.1163 91.8558L25.8911 94.1497V88.1924C23.436 87.1419 20.7554 86.6765 17.4801 86.6765C8.16146 86.6765 2.80012 92.1816 2.80012 103.318C2.80012 114.502 7.88944 119.953 17.3448 119.953ZM42.8443 120C51.3444 120 55.3481 115.326 55.3481 106.25V91.8558L56.2545 87.2749H48.7101L49.6192 91.8558V106.343C49.6192 112.161 47.801 115.053 42.9799 115.053C38.2991 115.053 36.3443 112.161 36.3443 106.343V91.8558L37.2534 87.2749H29.5273L30.4323 91.8558V106.25C30.4323 115.279 34.5729 120 42.8443 120ZM70.9811 106.071C69.3459 106.071 67.9857 106.343 66.8472 106.935L70.8921 94.3358L75.2117 106.982C73.9377 106.437 72.4341 106.071 70.9811 106.071ZM64.2993 114.774L64.9363 112.76C66.2541 111.569 68.1651 111.064 70.9811 111.064C73.6191 111.064 75.8022 111.749 77.2552 112.946L77.8922 114.774L78.7113 119.362H85.7552L73.8474 87.1419H68.7117L57.1636 119.362H63.3942L64.2993 114.774ZM91.4375 119.362H99.075L98.1659 114.774V92.042H103.213L107.758 93.0526V87.2749H82.7561V93.0526L87.3037 92.042H92.3507V114.774L91.4375 119.362ZM117.986 102.587V92.042H121.712C125.258 92.042 127.076 93.784 127.076 97.3544C127.076 100.705 125.258 102.587 122.212 102.587H117.986ZM117.986 114.774V107.261H122.349L126.167 114.774L127.76 119.362H135.122L127.76 106.024C131.077 104.462 133.079 101.483 133.079 97.3544C133.079 90.9383 128.801 87.2749 121.851 87.2749H111.301L112.213 91.8558V114.774L111.301 119.362H118.895L117.986 114.774ZM138.396 119.362H159.263V113.491L154.711 114.595H145.124V105.06H153.397L157.259 105.838V99.6947L153.397 100.473H145.124V92.042H154.625L159.17 93.1457V87.2749H138.396L139.305 91.8558V114.774L138.396 119.362ZM177.172 119.953C180.715 119.953 182.898 119.634 185.712 118.491V112.713L180.941 114.774C179.985 115.053 178.718 115.14 177.623 115.14C171.485 115.14 168.758 111.383 168.758 103.318C168.758 94.8411 171.531 91.4902 177.576 91.4902C178.718 91.4902 180.078 91.6763 180.941 91.8558L185.712 94.1497V88.1924C183.263 87.1419 180.582 86.6765 177.304 86.6765C167.988 86.6765 162.627 92.1816 162.627 103.318C162.627 114.502 167.716 119.953 177.172 119.953ZM200.986 106.071C199.354 106.071 197.987 106.343 196.852 106.935L200.893 94.3358L205.213 106.982C203.945 106.437 202.439 106.071 200.986 106.071ZM194.311 114.774L194.941 112.76C196.261 111.569 198.172 111.064 200.986 111.064C203.627 111.064 205.81 111.749 207.263 112.946L207.9 114.774L208.716 119.362H215.763L203.852 87.1419H198.717L187.171 119.362H193.395L194.311 114.774ZM226.532 120C233.267 120 237.354 116.383 237.354 110.193C237.354 106.111 235.264 103.272 230.991 101.483L228.443 100.426C224.402 98.7772 223.221 97.5006 223.221 95.1137C223.221 92.8665 224.807 91.4902 227.58 91.4902C229.127 91.4902 230.626 91.6763 231.581 91.9024L236.127 94.1497V87.7802C233.765 87.0422 230.626 86.6299 227.853 86.6299C221.217 86.6299 217.216 90.1604 217.216 95.8916C217.216 100.247 219.717 103.451 224.356 105.293L226.446 106.111C230.261 107.627 231.309 108.777 231.309 111.197C231.309 113.724 229.578 115.14 226.625 115.14C224.9 115.14 223.128 114.914 221.715 114.595L217.169 112.208V118.444C220.308 119.634 222.856 120 226.532 120ZM252.536 106.071C250.904 106.071 249.537 106.343 248.402 106.935L252.443 94.3358L256.769 106.982C255.489 106.437 253.989 106.071 252.536 106.071ZM245.854 114.774L246.491 112.76C247.812 111.569 249.723 111.064 252.536 111.064C255.17 111.064 257.353 111.749 258.813 112.946L259.443 114.774L260.266 119.362H267.306L255.402 87.1419H250.26L238.721 119.362H244.945L245.854 114.774ZM278.082 120C284.81 120 288.904 116.383 288.904 110.193C288.904 106.111 286.808 103.272 282.534 101.483L279.993 100.426C275.945 98.7772 274.764 97.5006 274.764 95.1137C274.764 92.8665 276.357 91.4902 279.13 91.4902C280.676 91.4902 282.176 91.6763 283.131 91.9024L287.677 94.1497V87.7802C285.308 87.0422 282.176 86.6299 279.402 86.6299C272.767 86.6299 268.766 90.1604 268.766 95.8916C268.766 100.247 271.267 103.451 275.899 105.293L277.989 106.111C281.811 107.627 282.86 108.777 282.86 111.197C282.86 113.724 281.128 115.14 278.175 115.14C276.443 115.14 274.671 114.914 273.265 114.595L268.719 112.208V118.444C271.858 119.634 274.399 120 278.082 120Z"></path>
<path fill="#FAFAF9" d="M29.8723 24L15.8983 38.0394H23.6417L25.6522 34.303L29.8723 30.0611L34.0885 34.303L36.1031 38.0394H43.8425L29.8723 24Z"></path>
<path fill="#FAFAF9" d="M45.7708 39.9771L31.7966 54.0165H39.5428L41.5506 50.276L45.7708 46.0378L49.9906 50.276L52.0038 54.0165H59.7445L45.7708 39.9771Z"></path>
<path fill="#FAFAF9" d="M0 54.0165H7.74346L9.74997 50.276L13.974 46.0378L18.1941 50.276L20.2046 54.0165H27.9441L13.974 39.9771L0 54.0165Z"></path>
<path fill="#FAFAF9" d="M29.8723 55.9514L15.8983 69.9895H23.6417L25.6522 66.2528L29.8723 62.0108L34.0926 66.2528L36.1031 69.9895H43.8425L29.8723 55.9514Z"></path>
</svg>
