<svg xmlns="http://www.w3.org/2000/svg" fill="none" viewBox="0 0 162 200" height="200" width="162">
<path fill="#FAFAF9" d="M36.7104 118.999L18.45 99.003L7.00941 107.452V118.999H0.707031V81H7.00941V100.676L33.6149 81H42.6977L23.277 95.3786L44.7968 118.999H36.7104Z"></path>
<path fill="#FAFAF9" d="M95.6807 118.999L77.4216 99.003L65.9772 107.452V118.999H59.6735V81H65.9772V100.676L92.5865 81H101.668L82.2461 95.3786L103.771 118.999H95.6807Z"></path>
<path fill="#FAFAF9" d="M153.783 118.999L143.501 104.511H124.287V118.999H117.996V81H147.961C155.941 81 160.761 85.6182 160.761 92.9657C160.761 99.6792 156.566 103.254 150.897 104.195L161.085 119L153.783 118.999ZM154.313 92.9644C154.313 88.7624 151.734 86.7158 146.446 86.7158H124.287V98.7865H147.012C151.734 98.7865 154.313 96.6887 154.313 92.9644Z"></path>
</svg>
