<svg xmlns="http://www.w3.org/2000/svg" fill="none" viewBox="0 0 399 200" height="200" width="399">
<path fill="#FAFAF9" d="M194.631 114.26C188.666 109.929 188.255 102.382 193.685 97.4136C194.537 96.6492 195.452 95.9486 195.895 95.5664C201.355 101.84 206.721 107.955 212.151 114.165C206.374 117.795 199.588 117.859 194.631 114.26ZM200.693 76.4585C202.649 75.7579 204.48 75.8853 205.933 77.5731C207.606 79.4839 207.984 81.8087 206.343 84.038C204.67 86.3627 202.492 88.3692 200.535 90.5028C200.251 90.4073 199.966 90.3117 199.683 90.2162C199.051 87.3501 198.199 84.5157 197.915 81.6495C197.599 78.8789 198.767 77.1273 200.693 76.4585ZM266.161 109.674C266.099 110.694 265.847 111.713 265.72 112.764C265.531 114.42 264.773 115.439 263.037 115.502C257.923 115.662 252.778 115.821 247.632 115.853C247.159 115.853 246.307 115.025 246.307 114.579C246.211 109.674 246.244 104.802 246.244 100.343C249.179 99.7702 252.147 99.611 254.798 98.5919C257.734 97.4772 258.964 94.7065 259.66 91.5857C259.186 91.6493 259.028 91.6174 258.933 91.6811C258.586 91.9041 258.239 92.127 257.923 92.4136C254.956 95.025 251.484 95.8849 247.601 95.5982C246.369 95.5028 245.928 95.0888 245.991 93.8467C246.055 91.9041 246.022 89.9615 246.022 88.0188V77.4458C251.199 77.4458 255.903 77.4139 260.606 77.4458C263.006 77.4458 264.174 78.6559 264.174 81.14C264.174 82.2227 264.488 83.2737 264.679 84.4201C265.309 84.3883 265.847 84.3564 266.352 84.3564C266.699 81.0126 267.046 77.8279 267.425 74.3248H233.995C233.617 75.5031 233.901 76.0127 235.258 76.14C239.677 76.5541 239.899 76.8725 239.899 81.3629C239.899 83.7832 239.899 86.2035 239.899 88.6239V93.8467C235.258 93.2098 230.933 92.541 226.577 92.0951C223.168 91.7449 219.727 91.6812 216.508 93.2416C214.456 94.2607 213.13 95.6939 213.257 98.2734C215.34 96.9039 217.328 96.9039 219.159 98.5281C220.99 100.184 220.832 102.254 220.074 104.261C219.286 106.299 218.181 108.178 217.044 110.502C211.015 104.547 205.301 99.1332 201.198 92.1908C202.587 91.1717 203.849 90.3436 205.017 89.3882C206.185 88.4328 207.479 87.5411 208.363 86.3627C209.626 84.6749 210.921 82.8597 211.551 80.917C212.656 77.5094 210.952 74.1974 208.016 73.3376C205.395 72.5732 202.807 72.6688 200.535 74.3885C199.051 75.5031 197.725 76.777 196.304 77.9871C193.685 80.2482 192.958 83.1463 193.621 86.4265C194.064 88.6876 194.758 90.9168 195.263 93.0187C192.958 94.7065 190.591 96.1397 188.539 97.9549C184.593 101.458 183.236 105.917 184.53 111.076C185.792 116.171 189.329 118.91 194.253 119.642C197.252 120.088 200.409 120.088 203.439 119.802C207.511 119.451 211.204 117.795 214.519 115.343C215.529 116.267 216.381 117.063 217.233 117.859C221.811 122.158 225.598 119.005 229.45 116.49C229.892 116.203 230.113 115.598 230.428 115.12C225.378 116.139 222.601 115.279 219.064 111.299C223.137 106.49 226.294 101.426 222.601 94.7384C228.44 94.4199 233.87 95.662 239.078 97.7638C239.488 97.923 239.835 98.8466 239.835 99.4198C239.899 103.496 239.899 107.573 239.866 111.649C239.835 114.802 238.794 116.171 235.699 116.872C234.375 117.19 234.248 117.795 234.595 118.814H267.836C268.025 115.088 268.183 111.681 268.341 108.241C267.046 107.859 266.257 108.114 266.161 109.674Z"></path>
<path fill="#FAFAF9" d="M44.3742 75.9808C44.4689 75.9808 44.5952 75.8534 44.8477 75.6624C44.7845 75.1528 44.6898 74.6114 44.6268 74.2293H31.1162V76.0445C31.7475 76.0445 32.0947 76.0445 32.442 76.0445C36.6088 76.1719 37.2716 77.1591 35.788 81.1081C33.8625 86.2672 31.9685 91.4583 29.9798 96.5856C28.2121 101.171 26.3496 105.694 24.3292 110.694C23.2877 108.05 22.4352 105.885 21.6145 103.719C18.4579 95.4073 15.3643 87.0635 12.1761 78.7833C11.5132 77.1591 12.0498 76.4585 13.5966 76.2356C14.7331 76.0763 15.901 76.0127 17.1953 75.9171C17.1637 75.2802 17.1321 74.7388 17.1005 74.2293H0.464844V75.949C2.29572 76.363 4.28443 76.14 5.13672 78.3693C10.219 91.49 15.3643 104.579 20.415 117.7C20.7939 118.687 21.0779 119.388 22.3406 119.292C23.477 119.197 24.3292 119.26 24.866 117.859C29.885 105.025 34.9989 92.2225 40.0179 79.3884C40.9018 77.3184 42.0382 75.949 44.3742 75.9808Z"></path>
<path fill="#FAFAF9" d="M318.248 117.445C316.637 116.235 314.807 115.216 313.354 113.815C311.334 111.84 309.567 109.643 307.767 107.477C305.968 105.312 304.295 103.082 302.496 100.789C304.768 98.8149 306.694 96.9678 308.777 95.3118C311.049 93.4966 313.038 91.1718 316.195 90.6941C316.448 90.6622 316.637 89.9616 316.889 89.4839C311.776 88.8152 311.618 88.8788 308.557 91.9043C306.599 93.8468 304.705 95.8214 302.685 97.7003C301.139 99.1334 299.466 100.439 297.602 102V72.1912C294.603 72.7963 291.668 73.3377 288.732 74.0065C288.164 74.1339 287.691 74.5797 287.154 74.8663C287.659 75.2167 288.1 75.7581 288.638 75.9491C291.542 76.8727 292.458 78.0191 292.458 81.0127C292.458 90.9807 292.458 100.917 292.458 110.885C292.458 111.777 292.394 112.668 292.331 113.56C292.142 115.789 291.005 117.127 288.796 117.445C288.258 117.541 287.753 117.668 287.248 117.764C287.185 117.923 287.123 118.114 287.059 118.273C287.533 118.496 287.975 118.942 288.449 118.942C292.836 119.006 297.224 119.006 301.58 118.942C302.022 118.942 302.464 118.464 302.906 118.209C300.759 117.509 298.487 117.445 298.171 115.184C297.602 111.299 297.508 107.35 297.224 103.433C297.477 103.369 297.729 103.305 297.982 103.242C302.148 108.082 306.315 112.923 310.482 117.764C310.955 118.305 311.587 119.006 312.186 119.037C314.428 119.197 316.669 119.101 319.605 119.101C318.942 118.241 318.658 117.764 318.248 117.445Z"></path>
<path fill="#FAFAF9" d="M371.91 116.84C369.227 116.331 368.66 115.566 368.533 112.764C368.469 111.522 368.533 110.28 368.502 109.038C368.406 104.834 368.66 100.566 368.091 96.4265C367.112 89.1335 359.378 86.2038 353.634 90.6941C352.212 91.8087 350.792 92.8596 348.93 94.2927V88.7195C345.805 89.3884 342.964 90.089 340.091 90.5348C338.639 90.7577 338.418 91.3947 338.828 92.7004C339.586 92.8596 340.438 92.9234 341.197 93.1462C342.743 93.624 343.911 94.4838 343.911 96.3309C343.911 101.713 343.974 107.127 343.847 112.509C343.785 115.566 343.059 116.299 340.029 116.872C338.67 117.127 338.292 117.668 338.923 119.006C343.816 119.006 348.677 119.037 353.507 118.942C353.918 118.942 354.328 118.018 354.959 117.286C349.972 116.49 349.309 115.694 349.277 111.235C349.277 108.464 349.246 105.694 349.277 102.955C349.309 101.299 349.309 99.643 349.593 98.0188C350.225 94.7704 352.497 93.0825 356.127 92.9234C359.378 92.7641 361.399 94.1334 362.314 97.4456C362.724 98.9422 362.914 100.566 362.914 102.127C362.976 107.636 362.945 113.178 362.945 118.846H372.921C373.33 117.796 373.299 117.127 371.91 116.84Z"></path>
<path fill="#FAFAF9" d="M89.42 116.84C87.2735 116.681 86.2633 115.407 86.2001 113.305C86.1371 111.777 86.0108 110.28 85.9792 108.751C85.9477 105.025 86.1055 101.267 85.9161 97.5411C85.7268 93.9425 84.1799 90.9169 80.7707 89.452C77.3931 87.9871 74.1102 88.1782 71.1744 90.7577C69.8802 91.9043 68.3965 92.8915 66.755 94.1653C66.6604 92.0953 66.5657 90.4393 66.5025 88.7195C63.4089 89.3884 60.6312 90.0571 57.7901 90.5348C56.3064 90.7896 55.9277 91.3628 56.4328 92.7641C57.2535 92.9234 58.0742 93.0189 58.8634 93.2417C60.4733 93.6876 61.5465 94.7067 61.5465 96.4901C61.5465 101.872 61.5781 107.286 61.3887 112.668C61.2624 115.916 60.7258 116.394 57.5376 116.936C56.1802 117.19 55.9909 117.764 56.4959 119.069C61.3887 119.069 66.3131 119.101 71.206 119.006C71.6164 119.006 72.0267 118.146 72.6265 117.509C67.7968 116.362 67.0707 115.789 67.0077 112.732C66.9129 108.369 66.8813 104.006 67.0077 99.6747C67.1339 95.5984 69.4383 93.3374 73.4472 92.987C77.2352 92.6685 79.3817 94.3564 80.2972 98.5283C80.5497 99.7385 80.6445 100.98 80.6445 102.223C80.676 107.191 80.6445 112.19 80.676 117.159C80.676 117.764 80.7392 118.337 80.7707 118.91H90.7142C91.0931 117.573 90.7142 116.936 89.42 116.84Z"></path>
<path fill="#FAFAF9" d="M179.133 116.999C175.881 115.98 175.533 115.725 175.439 112.318C175.313 107.541 175.376 102.764 175.25 98.0188C175.124 94.2291 173.64 91.0762 170.073 89.4839C166.632 87.9552 163.286 88.2101 160.318 90.8851C159.087 91.9998 157.666 92.9551 156.057 94.1972C155.962 92.1271 155.899 90.4392 155.804 88.7514C152.522 89.4201 149.491 89.9616 146.524 90.6941C146.019 90.8214 145.703 91.8087 145.198 92.573C146.682 92.9234 147.629 93.0507 148.513 93.3373C149.965 93.7832 150.849 94.834 150.849 96.3946C150.849 101.777 150.88 107.191 150.691 112.573C150.564 115.853 150.028 116.299 146.84 116.872C145.356 117.127 145.229 117.764 145.861 118.974C150.722 118.974 155.488 119.006 160.287 118.91C160.792 118.91 161.266 118.146 162.118 117.477C156.531 116.139 156.342 115.916 156.215 110.789C156.151 107.828 156.151 104.834 156.215 101.872C156.246 100.375 156.309 98.8149 156.689 97.3499C157.446 94.4519 159.782 92.9551 163.317 92.8596C166.285 92.7641 168.273 94.0379 169.157 97.0314C169.662 98.6556 169.851 100.407 169.884 102.127C169.978 107.636 169.915 113.178 169.915 118.846H180.679C179.953 117.955 179.638 117.159 179.133 116.999Z"></path>
<path fill="#FAFAF9" d="M140.054 111.936C139.169 114.802 137.369 116.967 134.276 117.509C131.025 118.05 128.152 117.063 126.037 114.42C123.196 110.917 122.596 106.713 122.376 101.809C122.502 100.853 122.597 99.3245 122.912 97.8596C123.701 93.9743 126.037 91.4903 129.352 90.9807C133.55 90.312 136.423 91.5539 138.443 95.3436C141.253 100.598 141.852 106.203 140.054 111.936ZM132.54 88.5922C122.786 88.624 116.441 95.0252 116.441 104.802C116.441 113.592 122.155 119.929 130.173 119.961C139.99 120.025 147.124 113.082 147.156 103.401C147.187 94.9615 140.906 88.5922 132.54 88.5922Z"></path>
<path fill="#FAFAF9" d="M398.048 107.509C397.416 103.751 394.481 102.573 391.293 101.777C388.704 101.14 386.083 100.662 383.559 99.8022C381.065 98.9743 380.024 97.3818 380.213 95.4393C380.402 93.3373 382.17 91.4903 384.506 90.9807C389.431 89.9297 392.997 92.2864 393.912 97.3501C394.292 97.3818 394.797 97.4137 394.797 97.3818C395.144 95.3755 395.554 93.4011 395.743 91.3947C395.807 90.9171 395.271 90.0572 394.828 89.898C390.219 88.3057 385.578 87.9234 380.97 89.8024C377.277 91.3311 375.446 94.2928 375.604 98.2735C375.73 101.617 377.53 103.815 381.507 105.057C384.127 105.885 386.81 106.426 389.431 107.159C391.451 107.732 393.124 108.719 393.313 111.108C393.534 113.433 392.461 115.248 390.125 116.394C387.22 117.796 384.285 117.573 381.381 116.426C379.172 115.534 377.593 114.229 377.908 111.522C377.971 110.853 377.782 110.184 377.688 109.515C377.499 109.388 377.308 109.261 377.119 109.133C376.709 109.643 376.015 110.089 375.92 110.63C375.635 112.732 375.51 114.898 375.446 117.031C375.446 117.477 375.888 118.21 376.267 118.369C382.423 120.662 388.483 120.757 394.134 116.872C397.353 114.675 398.679 111.394 398.048 107.509Z"></path>
<path fill="#FAFAF9" d="M108.865 101.968C107.949 101.713 106.971 101.586 106.055 101.331C103.751 100.694 101.352 100.248 99.2371 99.2607C96.4908 97.955 96.1435 94.6429 98.3846 92.5411C100.658 90.4073 103.341 90.503 106.119 91.299C108.549 91.9998 110.222 93.401 110.443 96.1716C110.506 96.6812 111.264 97.1588 111.706 97.6366C112.337 95.3754 112.4 93.5283 112.621 91.6813C112.748 90.5666 112.369 90.089 111.327 89.7705C107.665 88.624 103.972 88.2099 100.184 89.038C95.4805 90.0571 92.6396 93.0506 92.4501 97.1588C92.2608 101.617 94.1548 103.942 99.3633 105.471C101.731 106.171 104.161 106.617 106.529 107.286C108.423 107.827 109.907 108.942 110.159 111.044C110.412 113.273 109.37 114.897 107.539 116.076C105.108 117.636 102.457 117.636 99.8053 117.031C95.8278 116.108 94.7861 114.706 94.5968 110.63C94.5968 110.28 94.5336 109.961 94.4704 109.483C92.608 109.452 92.6395 109.452 92.5449 110.853C92.4186 112.859 92.1976 114.834 92.1976 116.84C92.1976 117.381 92.7342 118.305 93.2077 118.432C95.5753 119.069 97.9743 119.834 100.405 119.897C104.951 120.025 109.307 118.974 112.558 115.407C117.072 110.439 115.21 103.815 108.865 101.968Z"></path>
<path fill="#FAFAF9" d="M279.831 112.158C279.768 101.522 279.862 90.8851 279.926 80.2164C279.926 77.4776 279.926 74.7707 279.926 72C276.958 72.6051 274.086 73.1465 271.213 73.7834C270.582 73.9108 270.045 74.3885 269.476 74.707C269.983 75.0891 270.488 75.6305 271.055 75.8216C273.581 76.6178 274.78 77.7642 274.78 79.8661C274.811 90.7258 274.844 101.585 274.749 112.445C274.717 115.757 273.896 116.617 270.708 117.413C270.266 117.509 269.919 117.923 269.509 118.177C269.983 118.432 270.424 118.846 270.898 118.846C275.222 118.91 279.515 118.91 283.84 118.846C284.313 118.846 284.756 118.464 285.228 118.241C285.134 118.05 285.039 117.859 284.945 117.668C280.747 116.872 279.862 116.139 279.831 112.158Z"></path>
<path fill="#FAFAF9" d="M331.663 111.522C331.568 106.904 331.695 102.255 331.726 97.6367C331.758 94.7068 331.726 91.7769 331.726 88.7515C328.665 89.3566 325.728 89.898 322.793 90.5667C322.162 90.726 321.625 91.3311 321.056 91.7133C321.625 92.1273 322.162 92.7641 322.793 92.9234C325.476 93.5922 326.171 94.4202 326.171 97.2227C326.171 102.127 326.202 107.031 326.171 111.968C326.139 115.407 325.508 116.235 322.257 116.872C320.994 117.127 320.615 117.636 321.152 118.91C326.266 118.91 331.379 118.91 336.492 118.91C336.556 118.91 336.587 118.846 336.745 118.719V117.254C332.294 116.331 331.758 115.853 331.663 111.522Z"></path>
<path fill="#FAFAF9" d="M49.6459 110.503C49.6774 104.07 49.8353 97.6686 49.8983 91.2356C49.8983 90.3757 49.7721 89.5476 49.709 88.7515C46.426 89.3884 43.4272 90.0572 40.3968 90.535C38.9763 90.7578 38.9448 91.4584 39.2919 92.6368C40.0179 92.796 40.744 92.8916 41.47 93.1145C43.2378 93.6241 44.3111 94.7387 44.3111 96.6814C44.2795 102.063 44.2795 107.445 44.1217 112.859C44.027 115.662 43.301 116.394 40.4284 116.872C39.1026 117.095 38.5975 117.573 39.2604 119.038C44.0901 119.038 48.9198 119.069 53.781 118.974C54.223 118.974 54.6334 118.146 55.2647 117.509C49.9299 116.076 49.6143 115.725 49.6459 110.503Z"></path>
<path fill="#FAFAF9" d="M43.1113 82.1271C43.1428 84.1016 44.6581 85.6303 46.6152 85.6303C48.5408 85.6303 50.1507 84.0379 50.1507 82.1271C50.1507 80.2163 48.6039 78.5603 46.7098 78.5285C44.6896 78.4329 43.0798 80.0571 43.1113 82.1271Z"></path>
<path fill="#FAFAF9" d="M328.569 85.6305C330.495 85.6624 332.137 84.1337 332.168 82.1911C332.231 80.1529 330.653 78.4969 328.633 78.4969C326.771 78.4969 325.129 80.1529 325.065 82.0318C325.034 83.8471 326.707 85.5987 328.569 85.6305Z"></path>
</svg>
