<svg xmlns="http://www.w3.org/2000/svg" fill="none" viewBox="0 0 307 200" height="200" width="307">
<path fill="#FAFAF9" d="M55.5583 88.2111C55.5583 88.0697 55.6978 86.5339 55.8681 84.798C56.2679 80.7253 56.5086 78.1623 56.7468 75.442C56.8524 74.2364 56.9695 73.0669 57.0072 72.843L57.0756 72.436H65.4836L65.4158 72.843C65.1519 74.4273 64.9328 75.854 64.5937 78.1975C63.9444 82.6837 63.0757 88.261 63.0097 88.3676C62.9755 88.4228 61.285 88.468 59.2529 88.468C55.6111 88.468 55.5583 88.4645 55.5583 88.2111Z"></path>
<path fill="#FAFAF9" d="M38.6843 112.471C41.3753 109.506 43.3074 105.547 44.0336 101.511C44.3439 99.7859 44.4048 96.4236 44.1564 94.7307C43.0051 86.885 37.8397 80.2931 30.5099 77.3155C27.736 76.1887 25.4826 75.7666 22.2403 75.7667C19.6548 75.7668 18.0082 75.992 15.9707 76.6242C15.4213 76.7947 14.9529 76.9154 14.9299 76.8924C14.9069 76.8694 15.3381 76.476 15.8881 76.0181C18.7659 73.6224 22.0879 72.0416 25.8377 71.2833C27.0769 71.0328 27.6235 70.9963 30.0835 71.0003C32.6627 71.0044 33.044 71.034 34.4885 71.3417C38.7131 72.2416 42.2068 74.0895 45.3147 77.068C48.9431 80.5455 51.1299 84.8103 51.8625 89.838C52.1517 91.8228 52.0655 95.2541 51.6787 97.1579C50.5513 102.706 47.4346 107.517 42.8209 110.83C41.7378 111.608 38.3987 113.393 38.0268 113.393C37.9284 113.393 38.2243 112.978 38.6843 112.471Z"></path>
<path fill="#FAFAF9" d="M239.655 84.8359H248.314V87.0904C248.314 88.4166 248.362 89.3449 248.432 89.3449C248.497 89.3449 248.801 89.0208 249.107 88.6247C251.799 85.1472 255.856 83.5008 260.632 83.9486C265.63 84.4173 268.557 86.8692 269.641 91.4955C270.11 93.5017 270.149 94.664 270.149 106.75V118.528H261.239L261.237 107.851C261.236 101.978 261.182 96.675 261.118 96.0662C260.876 93.7695 260.185 92.5868 258.644 91.8295C257.888 91.458 257.697 91.4197 256.357 91.3721C254.697 91.313 253.762 91.4894 252.518 92.0959C250.727 92.9688 249.266 94.7593 248.762 96.6977C248.59 97.3622 248.564 98.8084 248.564 107.994V118.528H239.655L239.655 84.8359Z"></path>
<path fill="#FAFAF9" d="M181.124 117.559C180.79 116.657 180.234 115.238 177.285 107.757C176.266 105.173 175.214 102.5 172.677 96.0458C172.163 94.737 171.693 93.5534 171.634 93.4156C171.265 92.5557 168.495 85.4187 168.429 85.1563L168.348 84.8359H178.648L178.856 85.5561C178.97 85.9522 179.506 87.629 180.046 89.2823C180.586 90.9356 181.565 93.951 182.22 95.9832C182.876 98.0154 183.989 101.454 184.693 103.623C185.398 105.793 186.014 107.71 186.062 107.882C186.206 108.39 186.363 108.202 186.714 107.102C186.896 106.532 187.791 103.755 188.702 100.931C189.613 98.1062 190.84 94.3017 191.428 92.4762C192.015 90.6507 192.815 88.1989 193.205 87.0278L193.913 84.8985L198.838 84.8658C201.548 84.8478 203.764 84.858 203.764 84.8886C203.764 84.9192 203.476 85.6666 203.123 86.5496C202.492 88.132 202.061 89.2235 200.214 93.9166C199.064 96.8374 197.996 99.5405 196.277 103.874C194.986 107.13 194.614 108.069 191.865 115.021L190.503 118.466L181.484 118.531L181.124 117.559Z"></path>
<path fill="#FAFAF9" d="M157.207 72.4331L166.054 72.499L166.117 118.528H157.207V72.4331Z"></path>
<path fill="#FAFAF9" d="M69.1741 72.4988L80.5429 72.4335L80.7161 72.8474C80.8683 73.2108 86.1148 88.8233 90.5637 102.152C91.4088 104.683 92.1458 106.755 92.2015 106.755C92.3184 106.755 92.3191 106.753 93.4551 103.436C93.9269 102.058 94.9171 99.1833 95.6556 97.0478C96.3941 94.9123 97.3825 92.0378 97.8521 90.6601C98.3218 89.2823 99.5605 85.6751 100.605 82.644C101.649 79.613 102.759 76.3785 103.071 75.4562C103.383 74.534 103.752 73.4766 103.89 73.1065L104.143 72.4335L115.23 72.4987V118.466L106.508 118.532V103.162C106.508 94.4058 106.461 87.843 106.398 87.9108C106.338 87.9762 106.005 88.8752 105.657 89.9086C105.31 90.9419 104.394 93.6191 103.622 95.8579C102.849 98.0968 101.805 101.14 101.301 102.621C100.797 104.103 99.7536 107.146 98.9817 109.385C98.2099 111.624 97.1959 114.583 96.7284 115.961L95.8785 118.466L88.4778 118.532L87.8405 116.745C87.1637 114.848 85.5044 110.073 83.977 105.627C83.4681 104.146 82.4247 101.131 81.6582 98.9266C80.8918 96.7222 79.8779 93.7913 79.4052 92.4136C78.0153 88.3628 77.8667 87.9704 77.7497 88.0426C77.6884 88.0803 77.6493 88.4311 77.6627 88.822C77.6761 89.213 77.6776 96.0568 77.6659 104.031L77.6447 118.528H69.1108L69.1741 72.4988Z"></path>
<path fill="#FAFAF9" d="M219.764 83.9177C217.135 83.925 215.671 84.1367 213.678 84.7976C208.314 86.5765 204.58 90.9516 203.394 96.8472C202.69 100.345 202.815 104.978 203.706 108.359C205.419 114.864 210.081 118.731 217.004 119.389C220.441 119.716 224.1 119.404 226.598 118.573C230.402 117.308 232.996 114.654 234.234 110.763C234.442 110.108 234.651 109.347 234.698 109.072C234.744 108.796 234.81 108.472 234.843 108.35C234.9 108.142 234.657 108.131 230.548 108.162L226.192 108.195L226.042 108.696C225.674 109.925 224.788 111.106 223.801 111.683C222.713 112.319 221.542 112.578 219.764 112.574C217.909 112.57 216.832 112.318 215.498 111.576C213.469 110.448 212.219 108.044 211.867 104.594L211.794 103.874H235.294L235.224 100.523C235.15 96.9961 235.056 96.2028 234.432 93.9269C233.485 90.4745 230.984 87.2124 228.166 85.7555C225.461 84.3564 223.407 83.9076 219.764 83.9177ZM219.701 90.5464C224.016 90.5585 226.315 92.7617 226.647 97.2042L226.705 97.987H211.952L212.012 97.3922C212.283 94.6969 213.824 92.3176 215.948 91.3147C217.242 90.7036 218.033 90.5417 219.701 90.5464Z"></path>
<path fill="#FAFAF9" d="M137.794 83.8666C134.512 83.7718 131.651 84.3707 128.999 85.699C126.036 87.1829 123.97 89.2879 122.408 92.4149C121.072 95.087 120.576 97.3235 120.474 101.118C120.307 107.366 121.72 111.862 124.872 115.113C127.347 117.668 130.764 119.129 134.994 119.444C137.223 119.61 140.423 119.449 142.21 119.08C144.235 118.663 146.289 117.773 147.662 116.718C150.006 114.918 151.65 112.015 152.257 108.603L152.341 108.132H143.693L143.534 108.665C142.989 110.483 141.746 111.705 139.844 112.293C138.547 112.695 136.102 112.691 134.683 112.286C132.832 111.757 131.687 110.886 130.728 109.275C130.456 108.818 130.115 108.105 129.971 107.693C129.661 106.807 129.348 105.157 129.348 104.407V103.875L152.752 103.812L152.79 102.371C152.882 98.9472 152.457 95.4918 151.66 93.1649C149.766 87.6403 145.514 84.4893 139.227 83.95C138.74 83.9082 138.263 83.8802 137.794 83.8666ZM137.183 90.5328C138.944 90.5484 140.672 91.0079 141.738 91.8179C143.109 92.8587 144.156 95.3366 144.156 97.5414V97.9871H129.438L129.525 97.1416C129.839 94.0755 132 91.487 134.822 90.795C135.576 90.61 136.383 90.5257 137.183 90.5328Z"></path>
<path fill="#FAFAF9" d="M19.5422 119.589C9.58184 118.329 1.82425 110.716 0.400944 100.805C0.302018 100.116 0.220037 98.7709 0.21877 97.8153C0.207672 89.4344 4.80488 82.0047 12.3892 78.1462C14.3019 77.1731 14.467 77.1434 13.7658 77.8985C12.3438 79.4297 10.6553 81.9077 9.93068 83.527C9.27767 84.9861 8.61746 87.0052 8.28157 88.5705C7.9672 90.0354 7.9409 90.3783 7.94359 92.9771C7.94712 96.2352 8.10436 97.2244 9.0778 100.106C9.72454 102.02 10.0745 102.754 11.227 104.617C13.6817 108.585 17.7743 111.959 22.0819 113.566C26.68 115.282 31.562 115.469 36.2045 114.109C37.2032 113.816 37.2345 113.814 37.0202 114.057C36.8976 114.196 36.1197 114.811 35.2914 115.423C33.1938 116.974 30.5031 118.308 28.1384 118.97C25.6901 119.655 22.103 119.914 19.5422 119.589Z"></path>
<path fill="#FAFAF9" d="M278.557 130.922C277.29 130.801 275.954 130.552 274.86 130.235C274.346 130.086 274.202 129.992 274.239 129.827C274.265 129.709 274.431 128.936 274.607 128.11C275.304 124.843 275.59 123.597 275.66 123.515C275.701 123.468 276.101 123.519 276.549 123.629C277.752 123.922 280.43 123.92 281.277 123.626C282.084 123.345 282.889 122.645 283.415 121.768C283.794 121.136 285.206 117.559 285.237 117.151C285.245 117.047 284.614 115.497 283.834 113.706C283.055 111.915 281.952 109.379 281.383 108.07C280.814 106.761 279.77 104.366 279.063 102.747C278.356 101.128 277.524 99.2116 277.213 98.4883C276.903 97.7649 276.238 96.2431 275.735 95.1065C275.233 93.9699 274.382 92.0253 273.846 90.7854C273.309 89.5454 272.519 87.7304 272.089 86.7521C271.66 85.7738 271.337 84.9448 271.372 84.9099C271.407 84.875 273.718 84.843 276.508 84.8387L281.58 84.831L281.751 85.2405C281.845 85.4658 282.347 86.8619 282.866 88.343C283.386 89.8241 284.356 92.5576 285.021 94.4176C286.274 97.9165 287.772 102.117 288.876 105.227C289.226 106.212 289.557 106.973 289.611 106.918C289.665 106.863 291.33 101.942 293.311 95.9832C295.291 90.0244 296.969 85.0765 297.04 84.9878C297.141 84.8609 298.179 84.8297 301.907 84.8415C304.514 84.8497 306.672 84.8823 306.704 84.914C306.736 84.9457 306.496 85.6316 306.171 86.4381C305.845 87.2447 305.205 88.8628 304.747 90.0338C303.884 92.2431 301.497 98.3006 300.329 101.244C299.961 102.174 299.396 103.611 299.074 104.438C298.752 105.264 298.233 106.589 297.921 107.381C297.608 108.173 296.931 109.892 296.416 111.201C293.19 119.403 292.54 121.017 291.671 122.975C291.212 124.008 290.55 125.333 290.2 125.918C289.611 126.903 288.564 128.309 288.19 128.616C286.746 129.805 285.529 130.423 284.01 130.74C282.805 130.991 280.188 131.078 278.557 130.922Z"></path>
</svg>
