<svg xmlns="http://www.w3.org/2000/svg" fill="none" viewBox="0 0 293 200" height="200" width="293">
<path fill="#FAFAF9" d="M12.708 70.9263H18.1133C25.5455 70.9263 29.0364 73.74 29.149 80.8305C29.2616 89.4966 24.0815 92.1978 15.9737 92.1978H12.8206V70.9263H12.708ZM23.7437 93.0982C30.1624 92.648 36.6938 88.3712 36.5812 81.1681C36.4686 74.0776 30.8381 69.4632 21.4915 69.4632H0.771422V70.9263H5.16318V117.296H0.433594V118.759H17.5502V117.296H12.4828V92.7605L30.1625 118.759H41.3108V117.296H37.5947L21.2663 93.3233L23.7437 93.0982Z"></path>
<path fill="#FAFAF9" d="M43.6755 90.8472C44.2385 86.7954 46.9412 82.9688 50.6573 82.8563C55.049 82.6312 56.7382 87.2456 56.8508 91.5224L56.9634 95.4616H42.9998L43.6755 90.8472ZM63.9452 105.253H62.3686L62.256 106.266C61.8056 111.331 58.4273 118.421 51.896 118.084C44.5764 117.633 42.9998 109.98 42.9998 101.314V97.0373H63.9452C64.7334 89.384 59.3282 81.2806 50.9951 81.2806C42.3242 81.3932 36.4685 90.0593 36.0181 100.301C35.5676 111.443 42.4368 119.997 51.4455 119.884C58.5399 119.772 63.3821 113.469 63.9452 106.491V105.253ZM73.7422 90.8472C74.3052 86.7954 77.0078 82.9688 80.7239 82.8563C85.1157 82.6312 86.8048 87.2456 86.9175 91.5224L87.0301 95.4616H73.0665L73.7422 90.8472ZM94.0118 105.253H92.4353V106.266C91.9849 111.331 88.6066 118.421 82.0753 118.084C74.7557 117.633 73.1791 109.98 73.1791 101.314V97.0373H94.1245C94.9127 89.384 89.5075 81.2806 81.1744 81.2806C72.5035 81.3932 66.6478 90.0593 66.1973 100.301C65.7469 111.443 72.6161 119.997 81.6248 119.884C88.7192 119.772 93.5614 113.469 94.1245 106.491L94.0118 105.253ZM110.903 83.5316C118.223 83.419 119.574 93.4357 119.462 102.44C119.349 109.192 117.998 117.859 111.241 117.971C104.034 118.084 103.246 108.405 103.246 101.202C103.133 87.1331 106.962 83.5316 110.903 83.5316ZM129.033 117.408H125.655V69.4631H115.07V70.9262H119.349V88.5962C117.547 84.657 114.619 81.6183 110.228 81.5057C102.795 81.3932 96.0388 89.6091 95.9262 100.301C95.8136 109.53 100.994 119.772 110.115 119.997C114.957 120.11 117.435 117.071 119.349 113.357V118.759H129.033V117.408ZM162.816 84.8821H161.24L159.663 78.9171C157.636 71.2639 154.821 70.0259 149.641 69.5757C143.898 69.1255 137.254 72.8395 137.479 78.692C137.929 87.3582 149.641 87.5833 157.974 92.1977C163.041 95.124 165.631 98.838 165.631 104.353C165.744 114.144 156.397 119.772 147.839 119.772C142.772 119.772 136.916 118.196 133.538 115.72V100.189H135.002L135.339 101.652L137.029 107.729C138.493 113.357 141.42 118.084 147.726 117.971C156.172 117.859 160.001 113.582 160.001 107.279C160.114 100.189 153.357 97.7126 148.402 96.0243C138.493 92.4228 132.975 89.4966 132.975 81.5057C132.975 73.5148 140.182 68 149.641 68C154.821 68 160.789 69.8008 162.816 71.0388V84.8821ZM167.546 117.296H171.149V83.8692H167.433V82.4061H177.455V87.5833C178.919 83.3065 183.311 81.3932 186.802 81.3932C191.194 81.3932 194.797 83.8692 196.148 87.9209C197.95 83.6441 202.455 81.1681 206.058 81.5057C216.531 82.4061 215.517 88.7087 215.517 97.2624V117.296H219.008V118.759H204.819V117.296H208.986V91.635C208.986 86.2327 208.085 83.6441 203.468 83.7567C198.738 83.9818 196.374 89.6091 196.374 96.5871V117.296H200.202V118.759H186.014V117.296H190.068V97.0373C190.068 87.1331 190.18 83.7567 184.888 83.7567C178.356 83.8692 177.23 91.2973 177.23 99.0631V117.408H181.397V118.871H167.546V117.296ZM220.81 117.296H224.639V83.8692H221.035V82.4061H231.17V117.408H234.548V118.871H220.81V117.296ZM231.395 73.965C231.395 76.3285 229.481 78.0167 227.341 78.0167C225.202 78.0167 223.287 76.216 223.287 74.0776C223.287 71.9392 225.089 70.0259 227.229 70.0259C229.481 69.9133 231.395 71.8266 231.395 73.965ZM246.823 74.7529V82.4061H255.156V83.8692H246.823V110.205C246.823 112.006 246.935 117.633 250.877 117.521C254.142 117.521 255.719 114.707 255.719 110.543V104.803H257.183V111.781C257.183 114.257 256.057 119.772 249.187 119.772C239.39 119.772 240.517 111.443 240.517 104.803V83.8692H236.125V82.4061H240.517V74.7529H246.823ZM277.79 117.296H282.182V93.3232C282.182 88.5962 282.295 83.7567 277.452 83.9818C270.471 84.2068 269.457 94.111 269.457 101.427V117.296H274.187V118.759H259.547V117.296H263.038V70.9262H259.322V69.4631H269.457V88.4837C270.471 85.3323 274.75 81.5057 279.254 81.8433C286.011 82.4061 288.375 85.2198 288.375 92.9856V117.408H292.092V118.871H277.79V117.296Z"></path>
</svg>
