<svg xmlns="http://www.w3.org/2000/svg" fill="none" viewBox="0 0 388 200" height="200" width="388">
<path fill="white" d="M113.74 49.188C113.74 76.5741 91.5399 98.7746 64.1538 98.7746C64.1538 71.3884 86.3543 49.188 113.74 49.188Z"></path>
<path fill="white" d="M13 49.188C13 76.5741 35.2005 98.7746 62.5866 98.7746C62.5923 71.3884 40.3919 49.188 13 49.188Z"></path>
<path fill="white" d="M13 149.923C13 122.536 35.2005 100.336 62.5866 100.336C62.5923 127.722 40.3919 149.923 13 149.923Z"></path>
<path fill="white" d="M113.74 149.923C113.74 122.536 91.5399 100.336 64.1538 100.336C64.1538 127.722 86.3543 149.923 113.74 149.923Z"></path>
<path fill="white" d="M329.879 88.4258C329.879 95.1557 333.561 96.6134 338.13 96.6134C341.178 96.6134 343.5 95.9335 345.828 94.4988L344.128 90.6557C342.515 91.5142 341.115 92.1019 339.018 92.1019C336.033 92.1019 335.336 90.7709 335.336 87.9764V68.4322H342.071C343.426 68.4322 344.52 67.3374 344.52 65.9834V64.0532H335.342V55.0474H329.891V64.0589H324.244V68.4379H329.885V88.4258H329.879Z"></path>
<path fill="white" d="M361.241 63.166C354.384 63.166 350.391 66.0239 348.041 69.2563L351.469 71.9874C354.2 69.0028 356.609 67.4816 360.924 67.4816C366.254 67.4816 369.239 69.7691 369.239 74.8453V75.8594C362.319 75.9228 346.836 76.4298 346.836 87.8556C346.836 94.3319 352.23 96.5502 356.925 96.5502C362.635 96.5502 367.176 93.1623 369.319 89.8031V93.2775C369.319 94.6315 370.414 95.7263 371.768 95.7263H374.505V74.9087C374.505 66.4042 368.541 63.166 361.241 63.166ZM357.876 92.2346C354.321 92.2346 352.546 90.3966 352.546 87.6021C352.546 81.3793 361.495 79.7947 369.239 79.668C369.112 89.1232 362.445 92.2346 357.876 92.2346Z"></path>
<path fill="white" d="M275.061 63.166C266.176 63.166 259.446 69.7691 259.446 80.6187C259.446 90.9612 266.176 96.6136 275.568 96.6136C283.565 96.6136 288.451 91.9177 289.529 90.5867L286.291 87.4119C285.087 88.8063 280.898 91.9811 276.012 91.9811C269.409 91.9811 265.093 87.5387 265.029 80.878H289.973C290.422 71.6071 286.233 63.166 275.061 63.166ZM265.352 76.6833C266.43 70.3395 270.238 67.6718 275.251 67.6718C280.517 67.6718 284.072 71.2269 284.072 76.6833H265.352Z"></path>
<path fill="white" d="M202.484 116.164C192.649 116.164 186.363 124.098 186.363 132.919C186.363 141.677 192.643 149.611 202.484 149.611C212.32 149.611 218.606 141.677 218.606 132.919C218.606 124.098 212.32 116.164 202.484 116.164ZM202.484 145.036C196.774 145.036 192.079 140.594 192.079 132.913C192.079 125.233 196.774 120.727 202.484 120.727C208.131 120.727 212.89 125.233 212.89 132.913C212.89 140.594 208.131 145.036 202.484 145.036Z"></path>
<path fill="white" d="M186.784 116.417C180.561 116.619 177.582 119.333 175.398 123.234V117.011H169.901V148.73H175.398V132.631C175.398 124.092 179.835 121.909 186.784 121.58V116.417Z"></path>
<path fill="white" d="M173.128 108.667C174.453 108.667 175.646 107.867 176.153 106.639L193.594 64.0879H188.097L178.723 88.3396L168.374 64.0879H162.618L175.876 94.4183L169.895 108.667H173.128Z"></path>
<path fill="white" d="M224.985 76.2861C224.985 67.8046 220.058 63.2412 212.648 63.2412C208.027 63.2412 204.276 65.5056 201.897 69.1126V64.0652H196.55V95.7324H202.006V78.948C202.006 71.8552 206.057 68.0063 211.565 68.0063C216.44 68.0063 219.522 70.5473 219.522 76.1132V93.2778C219.522 94.6318 220.617 95.7266 221.971 95.7266H224.979V76.2861H224.985Z"></path>
<path fill="white" d="M299.641 78.9422C299.641 71.8493 303.692 68.0004 309.2 68.0004C314.075 68.0004 317.157 70.5414 317.157 76.1074V93.2719C317.157 94.626 318.252 95.7207 319.606 95.7207H322.614V76.2802C322.614 67.7988 317.687 63.2354 310.277 63.2354C305.656 63.2354 301.906 65.4998 299.526 69.1067V64.0593H294.179V95.7265H299.635V78.9422H299.641Z"></path>
<path fill="white" d="M245.042 133.83C245.042 140.923 240.991 144.771 235.483 144.771C230.608 144.771 227.526 142.231 227.526 136.665V119.5C227.526 118.146 226.431 117.051 225.077 117.051H222.069V136.492C222.069 144.973 226.995 149.537 234.405 149.537C239.026 149.537 242.777 147.272 245.157 143.665V148.713H250.504V117.045H245.047V133.83H245.042Z"></path>
<path fill="white" d="M144.491 91.9811C136.989 91.9811 130.945 87.9996 128.128 84.8709L124.382 88.5527C127.177 91.6642 133.636 96.9305 144.808 96.9305C156.804 96.9305 163.16 91.1629 163.16 83.2288C163.16 67.0207 131.936 72.6961 131.936 61.8868C131.936 56.4937 137.975 54.091 143.748 54.091C149.908 54.091 155.105 57.0008 158.666 60.0488L162.1 56.1307C156.539 51.2332 149.014 49.1416 143.627 49.1416C132.777 49.1416 126.157 54.7825 126.157 62.2671C126.157 79.3626 157.381 72.4541 157.381 83.7992C157.381 89.7051 151.089 91.9811 144.491 91.9811Z"></path>
<path fill="white" d="M145.851 107.216C153.722 107.216 157.744 112.799 159.207 116.608L164.41 114.51C161.362 107.976 156.257 102.134 145.788 102.134C131.055 102.134 123.795 113.813 123.795 126.823C123.795 140.433 132.933 149.923 146.381 149.923C152.23 149.923 158.74 148.476 164.018 144.622V126.27H146.514V128.771C146.514 130.125 147.609 131.22 148.963 131.22H158.475V141.781C156.367 143.475 152.109 144.846 146.825 144.846C138.274 144.846 130.018 138.716 130.018 126.316C130.012 113.75 137.531 107.216 145.851 107.216Z"></path>
<path fill="white" d="M272.658 116.164C266.856 116.164 263.641 119.39 261.935 122.461V117.051H256.542V161.63H261.999V143.44C263.768 146.661 267.098 149.611 272.658 149.611C280.846 149.611 287.126 142.95 287.126 132.792C287.126 122.698 280.846 116.164 272.658 116.164ZM271.892 145.036C266.752 145.036 261.803 141.418 261.803 133.04V132.787C261.803 124.979 266.245 120.727 271.892 120.727C277.855 120.727 281.347 125.36 281.347 132.723C281.353 139.833 278.051 145.036 271.892 145.036Z"></path>
<path fill="white" d="M260.616 55.6987C255.759 55.6987 251.823 59.6341 251.823 64.4913C256.681 64.4913 260.616 60.556 260.616 55.6987Z"></path>
<path fill="white" d="M242.766 109.624C251.351 109.624 260.08 106.956 260.08 99.2814C260.08 94.1418 256.588 90.7135 248.591 90.5233L240.611 90.3332C237.056 90.2698 234.584 88.8754 234.584 86.588C234.584 85.1936 235.598 83.9202 236.929 83.54C238.64 84.1104 240.674 84.4273 242.892 84.4273C250.953 84.4273 256.03 80.2384 256.03 73.7621C256.03 67.2857 251.08 63.166 242.956 63.166C234.832 63.166 229.819 67.4183 229.819 73.8888C229.819 77.3171 231.213 80.1059 233.754 81.9497C231.403 83.0905 229.439 85.1245 229.439 88.1034C229.439 91.2148 232.268 95.1271 242.213 95.2308L248.585 95.4036C253.978 95.5304 254.675 98.515 254.675 100.1C254.675 103.845 250.158 105.493 243.48 105.493C235.794 105.493 233.218 103.528 233.218 100.797C233.218 99.097 233.915 97.5125 234.964 96.4753C231.841 94.8332 227.595 96.5963 227.595 101.621C227.606 107.4 234.636 109.624 242.766 109.624ZM242.904 67.2915C247.98 67.2915 250.901 69.4522 250.901 73.8312C250.901 78.2102 247.98 80.3018 242.904 80.3018C237.891 80.3018 234.97 78.2102 234.97 73.8312C234.97 69.4522 237.891 67.2915 242.904 67.2915Z"></path>
</svg>
