<svg xmlns="http://www.w3.org/2000/svg" fill="none" viewBox="0 0 318 200" height="200" width="318">
<path fill="#FAFAF9" d="M24.8329 120C10.2012 120 0.0898438 110.862 0.0898438 96.0265C0.0898438 79.0551 12.1045 70.8661 27.9258 70.8661C32.0893 70.8661 35.3011 71.2221 39.2267 72.765L38.513 82.6155H36.3717C35.0632 76.3254 31.3755 74.7826 25.0708 74.7826C13.0562 74.7826 6.27561 83.6836 6.27561 95.077C6.27561 107.42 12.8182 116.084 25.7846 116.084C28.9964 116.084 32.2082 115.609 35.3011 114.778V98.5188H41.249C40.8921 101.011 40.7731 103.622 40.7731 106.114C40.7731 109.675 40.7731 113.354 41.3679 116.914C35.7769 118.695 30.6618 120 24.8329 120Z"></path>
<path fill="#FAFAF9" d="M51.7173 119.05C52.431 106.114 52.6689 93.2966 52.6689 80.3604C52.6689 77.8681 53.1447 70.7472 50.2898 69.5604C48.9813 68.967 46.959 68.967 45.5315 68.8483V67.0681C48.8623 66.4747 52.312 66 55.7618 66C56.3566 66 57.0703 66 57.6651 66.1187V119.05H51.7173Z"></path>
<path fill="#FAFAF9" d="M81.2186 86.2942C74.2002 86.2942 72.0589 90.9228 71.2262 97.0942L89.9025 96.2634C89.9025 90.2107 87.7613 86.2942 81.2186 86.2942ZM95.3745 100.18L70.9883 100.061C70.9883 108.962 74.557 115.964 84.5494 115.964C88.1181 115.964 91.5679 114.778 94.5418 112.997L94.1849 116.795C90.7352 119.169 87.2854 119.881 83.1219 119.881C71.7021 119.881 65.2784 112.285 65.2784 101.129C65.2784 91.2788 70.7504 82.7338 81.5755 82.9711C91.6868 83.0898 95.4935 88.0744 95.4935 96.9755C95.6124 98.0436 95.4935 99.1118 95.3745 100.18Z"></path>
<path fill="#FAFAF9" d="M109.173 75.732C106.794 75.732 105.843 73.7144 105.843 71.5782C105.843 69.3232 106.556 67.187 109.173 67.187C111.552 67.187 112.385 69.4419 112.385 71.4595C112.504 73.5957 111.79 75.732 109.173 75.732ZM106.199 119.051C106.794 110.98 107.151 102.791 107.151 94.8396C107.151 88.0748 107.032 86.888 100.133 86.4133V84.5144C103.463 83.8023 106.913 83.4463 110.363 83.4463C110.958 83.4463 111.671 83.565 112.266 83.565V119.051H106.199Z"></path>
<path fill="#FAFAF9" d="M130.11 120C126.541 120 123.329 119.406 120.355 117.507L121.188 111.455C124.043 114.066 127.374 116.558 131.537 116.558C135.344 116.558 138.437 114.303 138.437 110.387C138.437 105.877 134.749 104.453 130.705 103.266C125.827 101.842 120.355 100.299 120.355 93.4153C120.355 85.701 127.136 82.9713 133.916 82.9713C136.89 82.9713 139.983 83.3274 142.719 84.6329L141.649 93.0592H139.626C139.269 89.1427 137.009 86.5318 132.846 86.5318C129.515 86.5318 125.946 88.4307 125.946 92.2285C125.946 96.6196 129.753 97.8065 133.916 99.1119C138.913 100.655 144.385 102.198 144.385 109.319C144.266 117.033 137.009 120 130.11 120Z"></path>
<path fill="#FAFAF9" d="M160.206 120C156.637 120 153.425 119.406 150.451 117.507L151.284 111.455C154.139 114.066 157.47 116.558 161.633 116.558C165.44 116.558 168.533 114.303 168.533 110.387C168.533 105.877 164.845 104.453 160.801 103.266C155.923 101.842 150.451 100.299 150.451 93.4153C150.451 85.701 157.232 82.9713 164.012 82.9713C166.986 82.9713 170.079 83.3274 172.815 84.6329L171.745 93.0592H169.722C169.365 89.1427 167.105 86.5318 162.942 86.5318C159.611 86.5318 156.042 88.4307 156.042 92.2285C156.042 96.6196 159.849 97.8065 164.012 99.1119C169.009 100.655 174.481 102.198 174.481 109.319C174.481 117.033 167.224 120 160.206 120Z"></path>
<path fill="#FAFAF9" d="M220.279 119.05C211.595 119.169 203.03 118.813 194.466 119.05C195.179 107.776 195.298 96.5011 195.298 85.1077C195.298 80.0044 195.655 76.9187 193.157 75.3759C191.967 74.6638 190.302 74.4264 187.685 74.3078V72.4089C191.135 71.4594 195.179 71.2221 198.748 71.2221C199.462 71.2221 200.175 71.2221 200.889 71.3407C200.77 83.3275 200.651 95.433 200.651 107.538C200.651 115.727 202.555 115.015 209.454 115.015C215.402 115.015 218.019 114.659 218.971 108.251H221.35L220.279 119.05Z"></path>
<path fill="#FAFAF9" d="M250.018 119.05L249.9 113.71C246.093 117.626 243.357 119.763 237.766 119.763C230.628 119.763 227.536 115.371 227.536 108.488C227.536 103.622 228.011 98.8747 228.011 94.1274C228.011 89.3802 227.536 87.1252 224.205 86.2945C223.372 86.0571 222.183 85.9384 220.874 85.9384V84.0395C224.205 83.3274 229.558 82.734 233.008 83.0901C233.008 90.2109 232.651 97.4505 232.651 104.571C232.651 109.437 232.889 115.371 239.312 115.371C242.881 115.371 246.926 113.71 249.305 110.98C249.543 105.283 250.018 99.4681 250.018 93.6527C250.018 89.2615 249.543 87.3626 246.926 86.5318C245.974 86.2945 244.665 86.0571 243 85.9384V84.0395C247.045 83.3274 250.851 83.0901 255.015 83.0901C255.253 91.3978 254.896 99.8241 254.896 108.25C254.896 113.354 254.777 115.015 257.156 115.965C258.108 116.321 259.535 116.677 261.557 117.033V119.05H250.018Z"></path>
<path fill="#FAFAF9" d="M277.973 119.763C270.836 119.763 268.576 115.49 268.576 109.081C268.576 102.079 268.813 95.0769 268.932 88.1934L262.152 87.244V85.4638L269.051 84.3956V73.9517L274.285 73.1209L274.167 84.3956H284.516V88.1934H274.048C274.048 94.4835 273.929 100.774 273.929 107.064C273.929 111.574 274.642 116.083 280.471 116.083C281.899 116.083 283.326 115.727 284.754 115.253L284.873 118.457C282.731 119.288 280.233 119.763 277.973 119.763Z"></path>
<path fill="#FAFAF9" d="M317.11 119.05H290.464C289.75 117.27 289.869 117.626 289.75 117.27L310.806 87.481C308.188 87.125 305.215 87.2437 302.597 87.2437C298.315 87.125 295.817 87.5997 294.865 93.5338H292.843L292.248 83.6833H317.586C317.705 85.9382 317.705 86.0569 317.705 86.1756V86.2942C311.162 94.4832 303.192 105.521 297.244 114.54C300.575 114.896 303.906 115.252 307.237 115.252C310.806 115.252 314.255 114.896 317.705 114.066L317.11 119.05Z"></path>
</svg>
