<svg xmlns="http://www.w3.org/2000/svg" fill="none" viewBox="0 0 162 162" height="162" width="162">
<g clip-path="url(#clip0_12490_30942)">
<path fill="#33312C" d="M81 65.25C85.9702 65.25 90 69.2798 90 74.25V78.75H92.25C93.4926 78.75 94.5 79.7574 94.5 81V94.5C94.5 95.7426 93.4926 96.75 92.25 96.75H69.75C68.5074 96.75 67.5 95.7426 67.5 94.5V81C67.5 79.7574 68.5074 78.75 69.75 78.75H72V74.25C72 69.2798 76.0298 65.25 81 65.25ZM81 68.625C77.8931 68.625 75.375 71.1431 75.375 74.25V78.75H86.625V74.25C86.625 71.1431 84.1069 68.625 81 68.625Z"></path>
<path fill="#33312C" d="M81.5352 26.1445L83.3032 31.586L89.0247 31.586L84.3959 34.949L86.164 40.3904L81.5352 37.0274L76.9063 40.3904L78.6744 34.949L74.0456 31.586L79.7671 31.586L81.5352 26.1445Z"></path>
<path fill="#33312C" d="M104.218 34.7852L105.986 40.2266L111.707 40.2266L107.079 43.5896L108.847 49.0311L104.218 45.6681L99.589 49.0311L101.357 43.5896L96.7282 40.2266L102.45 40.2266L104.218 34.7852Z"></path>
<path fill="#33312C" d="M57.7793 34.7852L56.0112 40.2266L50.2897 40.2266L54.9185 43.5896L53.1505 49.0311L57.7793 45.6681L62.4081 49.0311L60.6401 43.5896L65.2689 40.2266L59.5473 40.2266L57.7793 34.7852Z"></path>
<path fill="#33312C" d="M109.615 115.785L111.383 121.227L117.105 121.227L112.476 124.59L114.244 130.031L109.615 126.668L104.986 130.031L106.754 124.59L102.126 121.227L107.847 121.227L109.615 115.785Z"></path>
<path fill="#33312C" d="M52.377 115.785L50.6089 121.227L44.8874 121.227L49.5162 124.59L47.7481 130.031L52.377 126.668L57.0058 130.031L55.2377 124.59L59.8665 121.227L54.145 121.227L52.377 115.785Z"></path>
<path fill="#33312C" d="M123.658 96.3457L125.426 101.787L131.148 101.787L126.519 105.15L128.287 110.592L123.658 107.229L119.029 110.592L120.797 105.15L116.169 101.787L121.89 101.787L123.658 96.3457Z"></path>
<path fill="#33312C" d="M38.335 96.3457L36.5669 101.787L30.8454 101.787L35.4742 105.15L33.7062 110.592L38.335 107.229L42.9638 110.592L41.1957 105.15L45.8245 101.787L40.103 101.787L38.335 96.3457Z"></path>
<path fill="#33312C" d="M127.976 72.584L129.744 78.0254L135.465 78.0254L130.836 81.3884L132.604 86.8299L127.976 83.4669L123.347 86.8299L125.115 81.3884L120.486 78.0254L126.208 78.0254L127.976 72.584Z"></path>
<path fill="#33312C" d="M34.0176 72.584L32.2495 78.0254L26.528 78.0254L31.1568 81.3884L29.3888 86.8299L34.0176 83.4669L38.6464 86.8299L36.8783 81.3884L41.5071 78.0254L35.7856 78.0254L34.0176 72.584Z"></path>
<path fill="#33312C" d="M123.658 48.8242L125.426 54.2657L131.148 54.2657L126.519 57.6287L128.287 63.0701L123.658 59.7071L119.029 63.0701L120.797 57.6287L116.169 54.2657L121.89 54.2657L123.658 48.8242Z"></path>
<path fill="#33312C" d="M38.334 48.8242L36.5659 54.2657L30.8444 54.2657L35.4732 57.6287L33.7052 63.0701L38.334 59.7071L42.9628 63.0701L41.1947 57.6287L45.8236 54.2657L40.102 54.2657L38.334 48.8242Z"></path>
<path fill="#33312C" d="M81.5352 120.104L83.3032 125.545L89.0247 125.545L84.3959 128.908L86.164 134.349L81.5352 130.986L76.9063 134.349L78.6744 128.908L74.0456 125.545L79.7671 125.545L81.5352 120.104Z"></path>
</g>
<defs>
<clipPath id="clip0_12490_30942">
<rect transform="translate(27 27)" fill="white" height="108" width="108"></rect>
</clipPath>
</defs>
</svg>
