<svg xmlns="http://www.w3.org/2000/svg" fill="none" viewBox="0 0 477 200" height="200" width="477">
<path fill="#FAFAF9" d="M41.4428 118.482H34.5214L30.4497 109.626C27.7016 109.015 24.4949 108.608 20.8815 108.608C17.1665 108.608 13.9092 109.015 11.1099 109.677L7.03826 118.482H0.320312L16.6069 83.5177H25.1567L41.4428 118.482ZM27.8034 103.875L20.7798 88.6582L13.7562 103.875C15.9956 103.57 18.3879 103.417 20.8815 103.417C23.2739 103.417 25.615 103.57 27.8034 103.875Z"></path>
<path fill="#FAFAF9" d="M76.815 113.138V118.736C72.6922 118.736 70.5548 117.668 68.4174 114.461C65.669 118.38 61.19 119.449 57.5257 119.449C51.2148 119.449 46.0748 114.309 46.0748 108.303C46.0748 103.468 49.0264 99.1931 53.4542 96.6994C52.2327 94.6636 51.3674 92.5261 51.3674 90.8467C51.3674 85.0446 56.304 82.5 60.9356 82.5C66.4319 82.5 69.8934 85.4011 70.453 90.8467L64.4472 91.8643C64.1928 89.4723 62.8184 88.5053 61.19 88.5053C59.1546 88.5053 57.8819 89.6249 57.8819 91.0502C57.8819 92.4752 59.2054 94.3584 61.2922 97.0047L67.8577 105.25C70.1478 100.822 72.5396 99.2949 76.4589 99.2949V104.893C74.27 104.893 73.2009 105.758 71.6232 109.219C73.6079 112.019 74.7278 113.138 76.815 113.138ZM64.956 110.797L56.9153 101.127C54.2177 102.349 52.5892 105.046 52.5892 107.794C52.5892 111.357 54.9303 113.953 58.8998 113.953C61.75 113.953 63.8367 112.68 64.956 110.797Z"></path>
<path fill="#FAFAF9" d="M104.043 119.5C93.2538 119.5 84.8053 111.408 84.8053 101.025C84.8053 90.6428 93.2538 82.5 104.043 82.5C114.833 82.5 123.282 90.6428 123.282 101.025C123.282 111.408 114.833 119.5 104.043 119.5ZM104.043 88.5053C96.9188 88.5053 91.3199 94.0018 91.3199 101.025C91.3199 108.049 96.9188 113.494 104.043 113.494C111.168 113.494 116.767 108.049 116.767 101.025C116.767 94.0018 111.168 88.5053 104.043 88.5053Z"></path>
<path fill="#FAFAF9" d="M143.691 111.561L149.136 108.456C150.969 111.968 155.193 113.494 159.112 113.494C162.98 113.494 166.338 111.662 166.338 108.761C166.338 104.995 162.267 103.977 160.079 103.672L157.635 103.316C151.07 102.349 145.37 99.4988 145.37 92.7804C145.37 86.7751 151.07 82.5 157.89 82.5C163.081 82.5 168.374 84.5358 171.122 88.8109L165.728 92.0681C164.048 89.4723 160.588 88.5053 157.941 88.5053C154.633 88.5053 151.884 90.2358 151.884 92.7296C151.884 95.9868 155.396 96.8012 158.501 97.3103L161.097 97.7174C166.287 98.5318 172.853 101.178 172.853 108.71C172.853 115.225 166.491 119.5 159.01 119.5C152.75 119.5 146.591 116.955 143.691 111.561Z"></path>
<path fill="#FAFAF9" d="M207.207 83.5177H213.263V118.482H207.207V103.825C204.458 103.214 201.252 102.807 197.639 102.807C194.025 102.807 190.819 103.214 188.07 103.825V118.482H182.065V83.5177H188.07V98.4807C191.022 97.9207 194.229 97.6154 197.639 97.6154C201.049 97.6154 204.305 97.9207 207.207 98.4807V83.5177Z"></path>
<path fill="#FAFAF9" d="M229.967 112.884H250.02V118.482H223.86V83.5177H249.511V89.116H229.967V97.9716H246.814V103.57H229.967V112.884Z"></path>
<path fill="#FAFAF9" d="M297.647 118.482H290.725L286.653 109.626C283.905 109.015 280.699 108.608 277.085 108.608C273.37 108.608 270.112 109.015 267.313 109.677L263.242 118.482H256.524L272.81 83.5177H281.36L297.647 118.482ZM284.006 103.875L276.983 88.6582L269.96 103.875C272.199 103.57 274.591 103.417 277.085 103.417C279.477 103.417 281.818 103.57 284.006 103.875Z"></path>
<path fill="#FAFAF9" d="M336.581 113.036V119.195C327.318 117.871 322.28 109.779 320.753 104.842H310.93V118.482H304.823V83.5177H325.537C331.542 83.5177 336.225 88.0981 336.225 93.8999C336.225 99.2439 332.509 103.621 327.42 104.639C328.54 107.133 331.339 111.815 336.581 113.036ZM310.93 99.2439H325.028C327.675 99.2439 329.71 97.0045 329.71 94.2056C329.71 91.3553 327.675 89.116 325.028 89.116H310.93V99.2439Z"></path>
<path fill="#FAFAF9" d="M347.524 118.482V83.5177H355.769L368.441 102.908L380.402 83.5177H388.596V118.482H382.488V91.0501L371.139 109.474H365.438L353.479 90.6935V118.482H347.524Z"></path>
<path fill="#FAFAF9" d="M437.294 118.482H430.373L426.301 109.626C423.553 109.015 420.347 108.608 416.733 108.608C413.018 108.608 409.761 109.015 406.961 109.677L402.89 118.482H396.172L412.459 83.5177H421.008L437.294 118.482ZM423.655 103.875L416.632 88.6582L409.608 103.875C411.848 103.57 414.24 103.417 416.733 103.417C419.125 103.417 421.467 103.57 423.655 103.875Z"></path>
<path fill="#FAFAF9" d="M444.471 118.482V83.5177H452.106L470.427 110.084V83.5177H476.433V118.482H468.799L450.477 91.5079V118.482H444.471Z"></path>
</svg>
