<svg xmlns="http://www.w3.org/2000/svg" fill="none" viewBox="0 0 653 200" height="200" width="653">
<g clip-path="url(#clip0_8288_10)">
<path fill="#FAFAF9" d="M437.058 122.516C433.753 122.516 427.806 121.792 425.111 116.937C424.035 114.995 424.035 112.114 424.035 110.388V96.6692C424.035 92.4776 423.365 92.5468 418.854 92.261V90.5683H434.772V92.2655C429.926 92.5111 429.457 93.3776 429.457 96.8122V109.555C429.457 111.727 429.457 114.188 430.406 115.959C430.852 116.821 432.728 119.622 437.976 119.622C440.526 119.622 445.044 119.014 446.654 114.932C447.407 113.152 447.407 110.104 447.407 108.087V97.7255C447.407 93.0136 447.34 92.3749 442.02 92.2699V90.5727H454.995V92.2833C450.372 92.1315 449.948 93.3776 449.948 96.1132V108.717C449.948 110.827 449.948 114.367 448.675 116.935C446.118 122.116 439.14 122.516 437.058 122.516ZM169.207 122.163C161.784 122.163 153.798 117.25 153.798 106.468C153.798 95.4142 162.061 89.4517 169.837 89.4517C174.33 89.4517 178.378 91.8121 178.997 91.7585C179.417 91.7183 179.939 91.0573 179.939 91.0573H181.465V99.4808H179.884C179.884 99.4808 179.004 95.7514 177.092 94.0944C175.283 92.5223 172.644 91.3633 170.181 91.3633C163.91 91.3633 159.696 97.2052 159.696 105.901C159.696 116.542 165.647 120.312 170.741 120.312C173.287 120.312 174.895 119.463 175.976 118.86V114.237C175.976 111.022 175.828 110.966 170.379 110.888V109.184H185.661V110.877C181.655 111.145 181.462 111.178 181.462 114.657V118.65C181.462 118.655 175.545 122.165 169.202 122.165L169.207 122.163ZM140.341 121.672H138.342L116.06 96.906V115.006C116.06 119.501 116.79 119.756 121.871 119.756V121.457H108.405V119.742C111.591 119.653 113.376 120.033 113.376 115.915V96.3164C113.376 92.4888 111.455 92.3637 108.474 92.2521V90.5593H117.407L117.474 90.633L137.661 113.02V96.0998C137.661 93.5473 138.079 92.1516 132.34 92.2521V90.5549H145.314V92.2699C140.765 92.1181 140.341 93.2302 140.341 96.0998V121.672ZM593.551 121.462H567.859V119.816C572.321 119.936 572.827 119.028 572.827 115.988V96.1065C572.827 92.9466 572.008 92.1248 567.859 92.2744V90.5683H592.227L592.524 97.663H590.84C589.976 92.9287 589.125 92.5558 585.71 92.5558H578.312V104.704H585.637C588.125 104.704 588.754 104.755 589.076 100.926H590.903V110.823H589.067C588.962 107.094 588.495 106.692 585.159 106.692H578.312V116.48C578.312 119.258 578.312 119.258 581.237 119.258H586.557C589.498 119.258 590.952 119.2 592.468 113.594H594.21L593.544 121.455L593.551 121.462ZM557.262 121.462H534.366V119.756C538.997 119.724 539.33 119.03 539.33 115.919V96.7362C539.33 92.9041 539.138 92.1583 533.875 92.2699V90.5638H550.556V92.2655C545.174 92.2967 544.817 92.3414 544.817 96.1065V117.031C544.817 118.646 544.833 118.713 545.174 118.862C546.184 119.331 548.368 119.331 549.424 119.331C554.627 119.331 556.097 118.78 558.736 113.871H560.467L557.265 121.464L557.262 121.462ZM523.814 121.462H500.915V119.756C505.359 119.829 505.88 119.03 505.88 115.919V96.7362C505.88 92.9041 505.607 92.194 500.431 92.2699V90.5638H517.106V92.2655C511.751 92.3325 511.371 92.3414 511.371 96.1065V117.031C511.371 118.646 511.382 118.713 511.722 118.862C512.733 119.331 514.924 119.331 515.974 119.331C521.177 119.331 522.706 118.71 525.286 113.871H527.019L523.816 121.464L523.814 121.462ZM489.267 121.462H463.573V119.816C468.025 119.972 468.546 118.802 468.546 115.988V96.1065C468.546 92.9466 467.782 92.1248 463.573 92.2744V90.5683H487.945L488.242 97.663H486.554C485.786 93.1386 484.843 92.5558 481.433 92.5558H474.028V104.704H481.36C483.843 104.704 484.428 104.793 484.799 100.926H486.625V110.823H484.79C484.707 106.989 484.214 106.692 480.877 106.692H474.03V116.48C474.03 119.258 474.03 119.258 476.956 119.258H482.275C485.219 119.258 486.907 118.885 488.189 113.594H489.93L489.269 121.455L489.267 121.462ZM413.121 121.462H394.858V119.682C397.538 119.655 399.302 119.168 400.245 118.141C400.892 117.449 401.174 116.493 401.087 115.305L399.099 84.5544L381.859 121.46H379.76L362.315 84.3802L360.457 115.439C360.39 116.645 360.135 119.584 366.055 119.691V121.455H351.048V119.68C356.019 119.689 356.787 118.867 357.14 112.4L358.824 85.1774C359.097 80.6106 359.003 79.5208 354.827 79.2506L354.621 79.235V77.5445H365.553L382.279 112.525L398.932 77.5445H409.579V79.2328C404.45 79.3176 404.867 80.6776 404.867 82.712C404.867 82.712 407.13 115.861 407.257 116.553C407.48 117.703 407.034 120.073 413.121 119.68V121.455V121.462ZM255.107 121.462H232.2V119.756C236.72 119.76 237.173 119.03 237.173 115.919V96.7362C237.173 92.6138 236.793 92.2699 231.708 92.2699V90.5638H248.395V92.2655C243.002 92.366 242.655 92.3414 242.655 96.1065V117.031C242.655 118.646 242.669 118.713 243.013 118.862C244.018 119.331 246.206 119.331 247.26 119.331C252.463 119.331 253.855 118.849 256.572 113.871H258.301L255.107 121.462ZM220.547 121.462H194.861V119.816C199.384 119.901 199.828 118.8 199.828 115.988V96.1065C199.828 92.9466 199.035 92.1248 194.861 92.2744V90.5683H219.225L219.531 97.663H217.85C216.934 94.7443 217.704 92.5558 212.718 92.5558H205.317V104.704H212.648C215.134 104.704 215.855 104.722 216.079 100.926H217.905V110.823H216.067C215.889 106.814 215.494 106.692 212.155 106.692H205.317V116.48C205.317 119.258 205.317 119.258 208.238 119.258H213.553C216.501 119.258 218.019 119.128 219.471 113.594H221.213L220.547 121.455V121.462ZM96.7589 121.462H71.0687V119.816C75.2335 119.816 76.033 119.273 76.033 115.988V96.1065C76.033 92.2297 74.4117 92.2744 71.0687 92.2744V90.5683H95.4391L95.448 90.7826L95.7383 97.6652H94.0523C93.2394 93.0024 92.3372 92.558 88.925 92.558H81.5221V104.706H88.8535C91.3368 104.706 91.8772 104.863 92.2814 100.928H94.1193V110.825H92.2747C92.0179 107.911 92.507 106.694 88.3667 106.694H81.5243V116.482C81.5243 119.262 81.5243 119.262 84.4453 119.262H89.7646C92.7124 119.262 94.1863 119.24 95.6825 113.599H97.4244L96.7589 121.462ZM61.2338 121.462H40.9836V119.682C48.1922 119.972 48.688 118.331 48.688 114.657V100.671H21.7003V113.746C21.7003 118.128 22.5422 119.832 27.502 119.682V121.46H9.49609V119.68C15.5703 119.932 15.8048 116.866 15.8048 115.924V84.3132C15.8048 80.7178 14.7998 79.2439 10.405 79.2439V77.4797H27.5043V79.2573C22.6136 79.2886 21.6981 80.289 21.6981 85.7558V97.7099H48.6835V84.1457C48.6835 79.4605 46.6223 79.2551 41.8277 79.2551V77.4797H60.2066V79.2529C55.5884 79.2529 54.579 81.62 54.579 83.1877V115.926C54.579 116.85 54.8917 120.039 61.2338 119.682V121.457V121.462ZM332.238 115.772L328.353 111.886C326.298 109.831 324.811 108.411 323.053 107.009C326.948 105.714 329.346 102.659 329.346 98.9515C329.346 93.2436 324.463 89.9742 315.936 89.9742L303.33 90.2355V91.9372C306.644 91.6379 307.211 94.1033 307.211 94.8849V116.911C307.211 117.692 306.676 120.182 303.33 119.858L303.324 121.462H317.692V120.077C313.241 120.289 312.622 119.273 312.622 116.616V108.8C314.44 108.934 316.47 108.9 318.429 108.695C319.358 109.342 320.914 110.584 323.163 112.835L326.412 116.089C330.447 120.12 332.698 122.056 339.69 122.056C340.343 122.056 342 121.998 342 121.998V120.687C338.576 120.531 335.412 118.936 332.241 115.774L332.238 115.772ZM319.42 106.701L319.413 106.678L319.212 106.705C316.99 107.013 314.69 107.091 312.625 106.928V91.4258C313.397 91.3476 313.994 91.3476 314.858 91.3476C321.285 91.3476 324.277 93.8555 324.277 99.2418C324.277 103.168 322.647 105.678 319.418 106.701H319.42ZM642.308 120.671C638.868 120.448 635.927 118.936 632.761 115.772L628.871 111.886C626.83 109.838 625.347 108.425 623.578 107.009C627.47 105.714 629.869 102.659 629.869 98.9515C629.869 93.2436 624.983 89.9742 616.457 89.9742L607.825 90.2355H603.748V91.9216C607.142 91.6402 607.629 94.0475 607.629 94.8247V116.973C607.629 117.748 607.249 120.041 603.748 119.876V121.462H618.212V120.077C613.846 120.323 613.147 119.269 613.147 116.616V108.809C614.992 108.938 616.995 108.898 618.944 108.679C619.86 109.327 621.414 110.562 623.692 112.833L626.937 116.087C630.974 120.117 633.223 122.054 640.215 122.054C640.863 122.054 641.564 122.036 642.305 122.009L642.52 121.995V120.682L642.308 120.671ZM620.007 106.607L619.44 106.705C617.238 107.011 615.148 107.085 613.147 106.928V91.4258C613.92 91.3476 614.509 91.3476 615.385 91.3476C621.809 91.3476 624.802 93.8555 624.802 99.2418C624.802 103.391 623.357 105.595 620.007 106.607ZM292.044 121.462H266.354V119.816C270.949 120.006 271.32 118.8 271.32 115.988V96.1065C271.32 92.7836 270.322 92.2744 266.354 92.2744V90.5683H290.724L291.021 97.663H289.34C288.603 93.1029 287.62 92.5558 284.21 92.5558H276.809V104.704H284.141C286.626 104.704 287.211 104.793 287.58 100.926H289.404V110.823H287.573C287.421 106.884 286.992 106.692 283.649 106.692H276.812V116.48C276.812 119.258 276.812 119.258 279.732 119.258H285.047C287.995 119.258 289.447 119.164 290.97 113.594H292.716L292.046 121.455L292.044 121.462Z"></path>
</g>
<defs>
<clipPath id="clip0_8288_10">
<rect transform="translate(0 68)" fill="white" height="64" width="652.012"></rect>
</clipPath>
</defs>
</svg>
