<svg xmlns="http://www.w3.org/2000/svg" fill="none" viewBox="0 0 364 200" height="200" width="364">
<path fill="#FAFAF9" d="M363.322 118.879H355.168L347.678 104.866H339.282V118.879H332.155V83.1812H349.973C358.128 83.1812 361.993 86.443 361.993 93.9329C361.993 99.4295 359.517 102.933 355.108 103.96L363.322 118.879ZM348.04 89.5235H339.282V98.5235H348.04C352.329 98.5235 354.443 97.6175 354.443 93.9933C354.443 90.4295 352.329 89.5235 348.04 89.5235ZM303.342 115.738C299.839 112.839 298.087 108.067 298.087 101.725C298.087 89.1007 303.222 83.1812 314.275 83.1812H326.296V89.4027H314.517C309.383 89.4027 306.725 92.0604 306.363 97.6779H326.296V103.96H306.363C306.363 110.362 308.839 112.718 314.517 112.718H326.296V119H314.155C309.866 118.879 306.725 118.456 303.342 115.738ZM286.188 118.879H278.819V89.4027H267.765V83.1208H297.302V89.4027H286.188V118.879ZM265.47 118.879L262.329 110.362H247.41L244.389 118.879H236.718L251.275 83.1812H259.007L273.564 118.879H265.47ZM254.839 90.3087L249.826 104.081H259.973L254.839 90.3087ZM222.04 118.879L214.792 92.1812L208.389 118.879H199.631L188.215 83.1812H196.007L203.92 110.604L210.564 83.1812H219.081L226.752 110.604L234.121 83.1812H241.49L230.98 118.879H222.04ZM161.155 115.738C157.651 112.839 155.9 108.067 155.9 101.725C155.9 89.1007 161.034 83.1812 172.087 83.1812H184.108V89.4027H172.329C167.195 89.4027 164.537 92.0604 164.175 97.6779H183.987V103.96H164.054C164.054 110.362 166.53 112.718 172.208 112.718H183.987V119H171.846C167.678 118.879 164.416 118.456 161.155 115.738ZM125.215 115.738C121.712 112.839 119.96 108.067 119.96 101.725C119.96 89.1007 125.094 83.1812 136.148 83.1812H151.671V89.3423H136.148C130.41 89.3423 127.993 93.208 127.993 101.362C127.993 109.517 130.228 112.537 136.148 112.537H144.242V104.141H134.577V97.8591H151.611V119H136.087C131.799 118.879 128.598 118.638 125.034 115.738C125.094 115.738 125.215 115.738 125.215 115.738ZM100.389 118.879H84.5036V83.1812H100.148C111.202 83.1812 116.336 89.0403 116.336 101.725C116.336 108.248 114.584 112.899 111.081 115.738C107.577 118.638 104.557 118.879 100.329 118.879C100.269 118.879 100.389 118.879 100.389 118.879ZM100.027 89.2819H91.6311V112.597H100.027C106.43 112.597 108.423 109.698 108.423 100.94C108.423 92.1812 106.369 89.2819 100.027 89.2819ZM71.3358 83H78.8257V118.698H71.3358V83ZM59.4364 118.698L51.9465 104.685H43.3693V118.698H36.2418V83H54.0606C62.215 83 66.0807 86.2618 66.0807 93.7517C66.0807 99.2483 63.6042 102.752 59.1948 103.779L67.7116 118.698H59.4364ZM52.3089 89.4027H43.4901V98.4027H52.2485C56.5371 98.4027 58.6512 97.4966 58.6512 93.8725C58.6512 90.2483 56.5371 89.4631 52.1277 89.4631L52.3089 89.4027ZM19.6915 118.698H0.90625V83H18.423C22.4096 83 25.3089 83.3624 27.1814 84.6309C29.7787 86.6242 31.2284 89.7651 30.9264 93.0268C30.6848 96.2886 28.7519 99.1879 25.913 100.758C29.2351 102.027 31.3492 105.349 31.0472 108.913C31.168 115.799 27.423 118.819 19.6311 118.819C19.6915 118.879 19.6915 118.698 19.6915 118.698ZM18.6042 89.4027H8.03377V97.6779H18.6042C21.866 97.6779 23.376 96.4094 23.376 93.5705C23.376 90.7315 21.866 89.5839 18.6042 89.5839V89.4027ZM18.725 103.96H8.03377V112.356H18.6646C21.9264 112.356 23.4364 111.087 23.4364 108.248C23.4364 105.409 21.8056 104.141 18.6646 104.141C18.725 104.081 18.725 103.96 18.725 103.96Z"></path>
</svg>
