<svg xmlns="http://www.w3.org/2000/svg" fill="none" viewBox="0 0 120 200" height="200" width="120">
<g clip-path="url(#clip0_99_37)">
<mask height="120" width="58" y="40" x="0" maskUnits="userSpaceOnUse" style="mask-type:luminance" id="mask0_99_37">
<path fill="url(#paint0_radial_99_37)" d="M15.9333 99.9831C15.9333 72.4998 33.2833 49.0665 57.6333 40.0498C25.6 41.2998 0 67.6498 0 99.9998C0 132.383 25.65 158.766 57.7333 159.95C33.35 150.95 15.9333 127.5 15.9333 99.9831Z"></path>
</mask>
<g mask="url(#mask0_99_37)">
<path fill="url(#paint1_radial_99_37)" d="M15.9333 99.9831C15.9333 72.4998 33.2833 49.0665 57.6333 40.0498C25.6 41.2998 0 67.6498 0 99.9998C0 132.383 25.65 158.766 57.7333 159.95C33.35 150.95 15.9333 127.5 15.9333 99.9831Z"></path>
</g>
<path fill="#FAFAF9" d="M60 40C93.1371 40 120 66.8629 120 100C120 133.137 93.1371 160 60 160C26.8629 160 0 133.137 0 100C0 66.8629 26.8629 40 60 40ZM72.1836 91.3838C70.8669 90.0839 68.8004 89.5503 66.6172 89.9502C64.8673 90.2835 63.3838 91.2171 62.6338 91.9004C60.0005 94.3837 59.667 98.4674 59.667 100.317C59.667 100.767 59.6835 101.101 59.7002 101.301C59.5538 101.366 59.2968 101.462 59.2842 101.467C57.3508 102.183 52.2005 103.551 50.3672 107.784C50.1339 108.318 49.8008 109.484 49.8008 110.834C49.8008 112.001 50.0508 113.301 50.8008 114.484C52.1008 116.517 54.3009 117.801 57.834 117.734C61.6672 117.668 65.4504 115.051 66.1172 114.567C66.7673 115.184 68.4838 116.801 69.3838 117.234H78.1338C75.3339 116.334 71.2009 113.684 69.5508 111.801C70.8841 110.351 72.5339 108.517 72.834 104.801H68.3008C68.3201 104.812 69.167 105.313 69.167 106.367C69.167 107.351 68.7667 108.717 68 109.667C66.6667 107.7 65.25 105.45 64.75 102.15C66.5333 101.267 69.0342 100.301 71.0176 98.5674C72.9007 96.9175 73.3338 95.3506 73.3672 94.334V94.2002C73.3671 93.1337 72.9502 92.1337 72.1836 91.3838ZM107.317 82.9668C105.267 82.3501 90.3508 77.3008 79.8008 89.334C73.3176 96.7339 71.734 111.9 79.9502 115.967C88.7501 120.317 98.4668 115.3 99.1836 114.95L103.2 102.15C103.634 100.6 104.617 99.6002 106.351 98.9502H92.3838C94.4167 99.8 94.2672 101.333 94.1172 101.967L90.1006 114.768C89.5673 114.868 78.3341 117.667 84.6172 98.0176C86.0005 93.801 89.7837 86.0675 95.9668 84.584C101.167 83.334 105.45 87.4001 105.834 87.6836L107.317 82.9668ZM34.6006 81.8008C35.9335 82.7173 35.7168 83.9336 35.4502 84.6836L26.084 114.601C25.7174 115.784 24.3175 117.033 23.5674 117.217H36.5674C35.8507 117.083 34.8335 116.067 35.2002 114.684L38.6006 103.867C38.664 103.874 54.257 105.966 58.9834 94.2842C62.9667 84.4675 55.517 81.8008 50.667 81.8008H34.6006ZM60.1836 104.117C60.9002 107.034 62.5168 110.334 64.25 112.634C63.7329 112.951 61.7003 113.984 59.8008 114.167C58.0341 114.334 55.1005 113.651 55.1172 110.117C55.1172 107.101 58.4002 104.884 60.1836 104.117ZM46.3506 84.5508C48.0507 84.5508 52.7665 84.7842 49.7168 93.7002C46.5335 103.067 39.4668 101.134 39.4668 101.134L44.667 84.5508H46.3506ZM65.584 93.4844C66.4673 92.1177 67.6506 91.5173 68.6006 91.8506C69.3671 92.1173 69.4505 92.8174 69.3838 93.5674C68.9337 96.417 65.2344 99.2998 64.334 99.6836C64.1674 98.0836 64.2509 95.5509 65.584 93.4844Z"></path>
<path fill="#F2F1F0" d="M15.9333 99.9831C15.9333 72.4998 33.2833 49.0665 57.6333 40.0498C25.6 41.2998 0 67.6498 0 99.9998C0 132.383 25.65 158.766 57.7333 159.95C33.35 150.95 15.9333 127.5 15.9333 99.9831Z"></path>
</g>
<defs>
<radialGradient gradientUnits="userSpaceOnUse" gradientTransform="matrix(1.99329 -64.5914 65.7291 2.02889 50.3314 98.1713)" r="1" cy="0" cx="0" id="paint0_radial_99_37">
<stop stop-color="white" offset="0.1"></stop>
<stop stop-color="#FDFDFD" offset="0.35"></stop>
<stop stop-color="#F6F6F6" offset="0.45"></stop>
<stop stop-color="#EAEAEA" offset="0.51"></stop>
<stop stop-color="#D9D9D9" offset="0.57"></stop>
<stop stop-color="#C3C3C3" offset="0.62"></stop>
<stop stop-color="#A7A7A7" offset="0.66"></stop>
<stop stop-color="#868686" offset="0.7"></stop>
<stop stop-color="#606060" offset="0.73"></stop>
<stop stop-color="#353535" offset="0.77"></stop>
<stop offset="0.8"></stop>
</radialGradient>
<radialGradient gradientTransform="translate(46.6765 88.2928) scale(75.4883 75.4883)" gradientUnits="userSpaceOnUse" r="1" cy="0" cx="0" id="paint1_radial_99_37">
<stop stop-opacity="0" stop-color="#44BEEE" offset="0.32"></stop>
<stop stop-opacity="0.27" stop-color="#2B99D9" offset="0.48"></stop>
<stop stop-opacity="0.58" stop-color="#1476C6" offset="0.67"></stop>
<stop stop-opacity="0.84" stop-color="#0561BA" offset="0.82"></stop>
<stop stop-color="#0059B6" offset="0.92"></stop>
</radialGradient>
<clipPath id="clip0_99_37">
<rect transform="translate(0 40)" fill="white" height="120" width="120"></rect>
</clipPath>
</defs>
</svg>
