<svg xmlns="http://www.w3.org/2000/svg" fill="none" viewBox="0 0 167 200" height="200" width="167">
<path fill="#FAFAF9" d="M44.9623 139.069C44.1661 139.069 43.5181 139.718 43.5181 140.517C43.5181 141.316 44.1661 141.965 44.9623 141.965C45.7444 141.965 46.3814 141.316 46.3814 140.517C46.3814 139.719 45.7444 139.069 44.9623 139.069Z"></path>
<path fill="#FAFAF9" d="M57.6334 145.72L57.5386 145.815C57.1416 146.214 56.4861 146.356 56.006 146.356C54.2713 146.356 53.9077 145.032 53.9077 143.92V136.019H58.037V134.426H53.9077V130.487L53.6269 130.275L52.1655 130.471V134.426H49.9228V136.019H52.1655V143.945C52.1655 146.484 53.5728 148 55.9296 148C56.8628 148 57.7101 147.706 58.3805 147.151L58.5457 146.817L58.0035 145.798L57.6334 145.72Z"></path>
<path fill="#FAFAF9" d="M39.3772 134.426L35.9559 144.422L32.4133 134.426H31.3267L27.7611 144.372L24.3881 134.426H22.8216L22.6156 134.775L27.2752 147.693H28.284L31.8578 137.752L35.4301 147.693H36.4381L41.0852 134.885L41.1171 134.796L40.9688 134.426H39.3772Z"></path>
<path fill="#FAFAF9" d="M66.1145 134.119C64.2214 134.119 62.3096 134.87 61.0001 136.13L60.9238 136.202V136.489L61.6037 137.449H61.9541L62.0245 137.384C63.1555 136.354 64.6464 135.763 66.1145 135.763C68.3491 135.763 69.7927 137.08 69.7927 139.118V140.245C68.821 139.768 67.4144 139.279 65.7322 139.279C62.4289 139.279 60.2098 141.052 60.2098 143.69C60.2098 146.268 62.2755 148 65.3494 148C67.0922 148 68.7046 147.325 69.7927 146.167V147.693H71.5088V139.322C71.509 136.112 69.4417 134.119 66.1145 134.119ZM69.7927 141.971V142.848C69.7927 145.127 67.5433 146.356 65.4264 146.356C63.3784 146.356 62.0031 145.295 62.0031 143.716C62.0031 142.03 63.5118 140.898 65.7583 140.898C67.2781 140.898 68.8136 141.44 69.7927 141.971Z"></path>
<path fill="#FAFAF9" d="M15.4444 134.119C13.5519 134.119 11.6395 134.87 10.3292 136.13L10.2529 136.202V136.489L10.9328 137.449H11.2832L11.3536 137.384C12.4846 136.354 13.9756 135.763 15.4444 135.763C17.6784 135.763 19.1218 137.08 19.1218 139.118V140.245C18.1509 139.768 16.7442 139.279 15.0621 139.279C11.7588 139.279 9.5389 141.052 9.5389 143.69C9.5389 146.268 11.6046 148 14.6793 148C16.4228 148 18.0345 147.325 19.1218 146.168V147.693H20.8387V139.322C20.8387 136.112 18.7714 134.119 15.4444 134.119ZM19.1218 141.971V142.848C19.1218 145.127 16.8724 146.356 14.7556 146.356C12.7076 146.356 11.3322 145.295 11.3322 143.716C11.3322 142.03 12.8409 140.898 15.0867 140.898C16.6088 140.898 18.1434 141.44 19.1218 141.971Z"></path>
<path fill="#FAFAF9" d="M5.35887 129.96V147.693H7.10105V129.975L6.81814 129.765L5.35887 129.96Z"></path>
<path fill="#FAFAF9" d="M85.2962 134.819L85.0614 134.426H83.5252L79.4677 139.709L75.4088 134.426H73.769L73.6053 134.841L78.3398 140.981L73.4009 147.278L73.5653 147.693H75.1533L79.3434 142.275L83.6808 147.693H85.2651L85.5007 147.298L80.4952 140.981L85.2962 134.819Z"></path>
<path fill="#FAFAF9" d="M136.663 142.362C136.663 144.751 135.062 146.356 132.678 146.356C130.525 146.356 129.077 144.833 129.077 142.567V134.426H127.309V142.567C127.309 145.766 129.454 148 132.526 148C134.253 148 135.748 147.341 136.74 146.167V147.693H138.431V134.426H136.663V142.362Z"></path>
<path fill="#FAFAF9" d="M159.92 136.439C158.787 134.943 157.06 134.119 155.06 134.119C151.255 134.119 148.493 137.049 148.493 141.085C148.493 145.625 151.924 148 155.315 148C157.625 148 159.884 146.937 161.07 145.291L161.117 145.226V144.903L160.196 144.133H159.854L159.781 144.234C158.857 145.483 157.01 146.356 155.29 146.356C152.598 146.356 150.572 144.462 150.282 141.716H161.177L161.387 141.714L161.421 141.507C161.447 141.347 161.474 141.181 161.474 140.906C161.474 139.219 160.919 137.629 159.92 136.439ZM150.313 140.045C150.633 137.472 152.511 135.763 155.06 135.763C156.635 135.763 157.895 136.405 158.712 137.632C159.202 138.281 159.524 139.111 159.652 140.045H150.313Z"></path>
<path fill="#FAFAF9" d="M124.953 145.72L124.859 145.815C124.522 146.154 123.948 146.356 123.325 146.356C121.591 146.356 121.228 145.032 121.228 143.92V136.019H125.356V134.426H121.228V130.486L120.946 130.275L119.486 130.471V134.426H117.243V136.019H119.486V143.945C119.486 146.484 120.893 148 123.249 148C124.196 148 125.02 147.714 125.699 147.151L125.865 146.817L125.324 145.798L124.953 145.72Z"></path>
<path fill="#FAFAF9" d="M148.415 134.542L148.345 134.506C147.854 134.245 147.292 134.119 146.625 134.119C145.256 134.119 144.055 134.772 143.228 135.938V134.426H141.537V147.693H143.278V140.114C143.278 137.648 144.64 135.789 146.447 135.789C146.939 135.789 147.312 135.875 147.62 136.06L147.736 136.129L148.038 135.977L148.554 134.819L148.415 134.542Z"></path>
<path fill="#FAFAF9" d="M89.5517 139.069C88.7555 139.069 88.1075 139.718 88.1075 140.517C88.1075 141.316 88.7555 141.965 89.5517 141.965C90.3338 141.965 90.9702 141.316 90.9702 140.517C90.97 139.719 90.3338 139.069 89.5517 139.069Z"></path>
<path fill="#FAFAF9" d="M103.072 130.173C102.418 129.752 101.555 129.521 100.646 129.521C98.6046 129.521 96.4225 130.747 96.4225 134.187V134.425H94.2057V136.019H96.4225V147.693H98.1653V136.019H102.192V134.425H98.1653V134.187C98.1653 132.221 99.0556 131.139 100.672 131.139C101.249 131.139 101.76 131.282 102.278 131.59L102.383 131.653L102.709 131.52L103.226 130.514L103.155 130.226L103.072 130.173Z"></path>
<path fill="#FAFAF9" d="M113.395 142.362C113.395 144.751 111.793 146.356 109.41 146.356C107.256 146.356 105.809 144.833 105.809 142.567V134.426H104.042V142.567C104.042 145.766 106.187 148 109.259 148C110.984 148 112.48 147.341 113.471 146.168V147.693H115.163V134.426H113.395L113.395 142.362Z"></path>
<path fill="#FAFAF9" d="M142.634 64C130.308 64 122.025 70.9596 122.025 81.3189V81.4763C122.025 92.8705 131.148 95.9221 142.17 98.4883C149.365 100.188 151.559 101.503 151.559 104.114V104.272C151.559 106.9 149.18 108.407 145.031 108.407C138.813 108.407 132.927 106.224 127.53 101.918L119.609 111.571C125.987 117.272 134.807 120.408 144.49 120.408C157.775 120.408 166.027 113.651 166.027 102.773V102.616C166.027 92.2929 158.067 88.4124 146.118 85.7615C138.472 83.9916 136.493 82.8186 136.493 80.0567V79.8987C136.493 78.0137 138.005 75.9993 142.248 75.9993C147.105 75.9993 152.444 77.882 157.318 81.3063L164.433 71.0535C158.518 66.308 151.383 64 142.634 64Z"></path>
<path fill="#FAFAF9" d="M114.034 65.2456H99.5275L86.1321 87.5862L72.7365 65.2456H58.2297V119.145H71.2049V85.2804L85.9766 108.48L100.826 85.1172V119.145H114.034V65.2456Z"></path>
<path fill="#FAFAF9" d="M29.4265 64C20.7172 64.2069 16.3823 69.2856 15.0403 71.2291C14.9602 71.349 14.5679 71.9435 14.5679 71.9435C11.7642 76.4439 10.3268 81.8937 10.7005 87.804L10.7107 87.9587C11.6167 102.291 22.6125 112.591 36.6206 112.591C37.2294 112.591 37.8427 112.572 38.4616 112.533C43.9919 112.182 48.5304 110.747 52.3356 108.148L41.0699 100.102C37.8229 104.054 34.4982 106.69 28.8543 106.69C21.2777 106.69 15.9437 100.335 15.9437 92.1975V92.0429C15.9437 84.1382 21.2778 77.7059 28.8543 77.7059C34.0341 77.7059 37.5907 80.1856 40.6826 84.06L51.9712 75.3033C48.7013 70.7573 44.3498 67.1523 38.4063 65.3177C38.3307 65.2963 38.2604 65.2777 38.1831 65.2552C37.4037 65.028 36.6548 64.8463 35.9197 64.6844C33.9223 64.2638 31.7656 64.0252 29.4265 64Z"></path>
<path fill="#FAFAF9" d="M6.75988 86.8428C6.75988 83.8277 7.22391 80.9184 8.08339 78.1811C8.91936 74.9349 10.2732 71.9215 12.0732 69.2327L12.0636 69.2383C4.92351 74.3162 0.480469 82.6331 0.480469 92.1975V92.3528C0.480469 108.55 12.9283 120.406 28.39 120.406C36.0754 120.406 41.6615 118.271 46.0265 114.879L46.0041 114.886C43.7419 115.507 41.3085 115.897 38.6844 116.065C38.0178 116.107 37.353 116.127 36.696 116.127C33.0474 116.127 29.5604 115.477 26.3382 114.289C14.9514 110.318 6.75988 99.5178 6.75988 86.8428Z"></path>
</svg>
