<svg xmlns="http://www.w3.org/2000/svg" fill="none" viewBox="0 0 328 200" height="200" width="328">
<g clip-path="url(#clip0_8319_70410)">
<path fill="#FAFAF9" d="M159.532 88.3049L157.021 94.0037C155.876 93.7188 154.53 93.5763 152.979 93.5763C150.324 93.5763 148.209 94.1884 146.636 95.4126C145.064 96.6367 143.992 98.6419 143.423 101.417L139.745 118.999H132.764L136.684 100.251C137.581 95.8822 139.428 92.6529 142.23 90.5739C145.027 88.4896 148.573 87.4501 152.857 87.4501C155.591 87.4501 157.817 87.735 159.532 88.3102V88.3049ZM313.605 78.3162L305.031 118.994H312.017L320.592 78.3162H313.605ZM301.047 94.3678C302.392 96.5734 303.068 99.0429 303.068 101.781C303.068 102.969 302.947 104.172 302.699 105.396C302.123 108.177 300.91 110.683 299.052 112.931C297.195 115.179 294.894 116.941 292.161 118.229C289.422 119.516 286.526 120.16 283.46 120.16C280.03 120.16 277.049 119.527 274.516 118.26C271.983 116.994 270.041 115.258 268.696 113.052C267.35 110.847 266.675 108.377 266.675 105.639C266.675 104.457 266.796 103.248 267.044 102.024C267.614 99.2487 268.833 96.737 270.69 94.4891C272.548 92.2413 274.843 90.4736 277.582 89.1914C280.315 87.9039 283.217 87.2601 286.283 87.2601C289.713 87.2601 292.694 87.8933 295.227 89.1597C297.76 90.4261 299.701 92.1621 301.047 94.3678ZM296.024 102.024C296.024 99.4492 295.137 97.3702 293.359 95.7766C291.581 94.1831 289.222 93.3863 286.283 93.3863C283.344 93.3863 280.563 94.257 278.32 95.9877C276.072 97.7237 274.643 100.04 274.03 102.942C273.825 103.882 273.724 104.699 273.724 105.391C273.724 107.966 274.611 110.045 276.389 111.638C278.167 113.232 280.526 114.029 283.465 114.029C286.404 114.029 289.185 113.163 291.428 111.427C293.675 109.691 295.105 107.375 295.718 104.473C295.923 103.533 296.024 102.715 296.024 102.024ZM246.186 93.9404C247.352 93.3705 248.993 93.0803 251.119 93.0803C254.633 93.0803 257.857 93.9773 260.797 95.7766L263.857 90.5105C262.306 89.4077 260.475 88.5793 258.375 88.0305C256.269 87.4817 254.053 87.2021 251.726 87.2021C247.848 87.2021 244.629 87.9303 242.075 89.3761C239.521 90.8271 238.001 92.7162 237.511 95.0432C237.347 95.6975 237.263 96.3887 237.263 97.1275C237.263 99.1273 238.081 100.842 239.711 102.272C241.342 103.702 244.022 104.884 247.737 105.823C250.47 106.52 252.37 107.211 253.436 107.908C254.496 108.604 255.029 109.38 255.029 110.235C255.029 111.338 254.407 112.277 253.161 113.052C251.916 113.828 250.169 114.219 247.922 114.219C243.632 114.219 239.711 113.116 236.16 110.91L232.973 116.361C234.688 117.506 236.819 118.414 239.373 119.089C241.927 119.764 244.629 120.102 247.489 120.102C251.489 120.102 254.75 119.347 257.261 117.833C259.773 116.324 261.314 114.319 261.889 111.828C262.095 110.889 262.195 110.071 262.195 109.38C262.195 107.296 261.356 105.523 259.683 104.05C258.011 102.578 255.188 101.333 251.23 100.315C248.655 99.6233 246.882 98.9796 245.901 98.3833C244.919 97.7923 244.428 97.1064 244.428 96.3307C244.428 95.3123 245.009 94.5155 246.175 93.9404H246.186ZM229.311 94.2464C230.656 96.4521 231.332 98.9215 231.332 101.66C231.332 102.805 231.21 103.987 230.962 105.211C230.387 107.987 229.216 110.499 227.438 112.746C225.659 114.994 223.475 116.751 220.884 118.012C218.288 119.279 215.502 119.912 212.52 119.912C209.866 119.912 207.508 119.453 205.444 118.535C203.381 117.617 201.719 116.261 200.453 114.461L197.387 129.041H190.406L195.92 102.758C196.902 98.0614 199.065 94.2939 202.416 91.4551C205.766 88.6162 209.972 87.1968 215.037 87.1968C218.261 87.1968 221.111 87.8194 223.586 89.0647C226.055 90.31 227.965 92.0355 229.316 94.2411L229.311 94.2464ZM224.224 101.903C224.224 99.3278 223.375 97.2594 221.681 95.6869C219.987 94.1145 217.649 93.3283 214.668 93.3283C211.85 93.3283 209.307 94.2095 207.043 95.9613C204.774 97.7185 203.36 100.003 202.785 102.821C202.579 103.845 202.479 104.721 202.479 105.454C202.479 107.987 203.318 110.039 204.991 111.612C206.663 113.184 208.99 113.971 211.977 113.971C214.964 113.971 217.438 113.095 219.665 111.338C221.892 109.58 223.311 107.296 223.923 104.478C224.129 103.459 224.229 102.599 224.229 101.903H224.224ZM169.458 107.48C167.579 107.48 166.249 107.459 165.474 107.417C165.843 109.543 166.872 111.206 168.566 112.409C170.26 113.612 172.576 114.213 175.521 114.213C178.908 114.213 182.322 113.353 185.752 111.638L187.588 117.031C185.668 118.012 183.604 118.767 181.399 119.3C179.193 119.833 177.009 120.097 174.845 120.097C171.494 120.097 168.608 119.527 166.176 118.382C163.743 117.237 161.875 115.617 160.572 113.511C159.263 111.406 158.609 108.968 158.609 106.193C158.609 104.684 158.772 103.254 159.1 101.903C159.796 98.8793 161.142 96.2568 163.141 94.0301C165.141 91.8033 167.59 90.1095 170.492 88.9434C173.389 87.7772 176.497 87.1968 179.805 87.1968C183.641 87.1968 186.665 87.9725 188.87 89.5238C191.076 91.0751 192.179 93.1383 192.179 95.7133C192.179 96.4468 192.094 97.1433 191.936 97.7976C190.464 104.251 182.971 107.475 169.452 107.475L169.458 107.48ZM165.78 102.151C166.635 102.193 168.049 102.214 170.006 102.214C174.618 102.214 178.238 101.734 180.85 100.774C183.462 99.8133 184.934 98.5152 185.261 96.8847C185.303 96.7212 185.325 96.5154 185.325 96.2727C185.325 95.2912 184.802 94.505 183.763 93.914C182.723 93.323 181.198 93.0275 179.198 93.0275C175.848 93.0275 172.961 93.8137 170.529 95.3862C168.096 96.9586 166.519 99.217 165.78 102.156V102.151ZM107.462 98.1248H95.6372C95.3681 98.1248 95.1676 97.882 95.2151 97.6182C96.7875 88.2996 94.6452 79.7251 89.1469 73.3983C83.4587 66.8606 74.9052 63.5363 65.0537 64.0534C55.3763 64.5547 45.5828 68.7179 37.4726 75.7676C35.6838 77.3189 34.0269 78.9758 32.5073 80.7118C32.3437 80.8965 32.1062 81.0073 31.8582 81.0073H18.2075C17.7801 81.0073 17.3738 81.1761 17.0678 81.4769L16.9939 81.5508C12.8834 85.6191 9.21609 93.075 8.07634 99.6814L8.02357 99.9821C7.85472 100.974 8.61455 101.876 9.61712 101.876H21.4421C21.7112 101.876 21.9117 102.119 21.8642 102.383C20.2971 111.702 22.4341 120.276 27.9324 126.603C33.2354 132.703 41.0343 136.001 50.0522 136.001C50.7012 136.001 51.3608 135.985 52.0203 135.948C61.6977 135.447 71.4912 131.283 79.6014 124.234C81.3902 122.682 83.0471 121.025 84.5668 119.289C84.7304 119.105 84.9678 118.994 85.2158 118.994H98.761C99.257 118.994 99.7319 118.799 100.08 118.45C104.191 114.382 107.858 106.926 108.998 100.32L109.05 100.019C109.219 99.0271 108.459 98.1248 107.457 98.1248H107.462ZM12.8148 98.1248C12.5298 98.1248 12.3188 97.8556 12.3979 97.5813C13.6801 92.9378 16.1496 88.1149 18.8565 85.0439C19.0201 84.8592 19.2523 84.759 19.5003 84.759H44.538C44.8019 84.759 45.0604 84.6587 45.2557 84.4846L48.3056 81.7618C48.6011 81.498 48.4164 81.0073 48.0154 81.0073H37.8842C37.6889 81.0073 37.594 80.7751 37.7312 80.6379C38.4382 79.9414 39.1717 79.2607 39.9315 78.5958C47.4138 72.095 56.4052 68.2589 65.2437 67.7998C65.8399 67.7681 66.4256 67.7523 67.0061 67.7523C74.9263 67.7523 81.7279 70.5964 86.3028 75.8625C91.1995 81.498 92.9989 89.2811 91.3684 97.7765C91.3314 97.9823 91.152 98.1248 90.941 98.1248H12.8148ZM104.27 101.876C104.555 101.876 104.766 102.146 104.687 102.42C103.404 107.063 100.935 111.886 98.228 114.957C98.0645 115.142 97.8323 115.242 97.5843 115.242H69.7235C69.4597 115.242 69.2011 115.342 69.0059 115.517L65.956 118.239C65.6605 118.503 65.8452 118.994 66.2462 118.994H79.2004C79.3956 118.994 79.4906 119.226 79.3534 119.363C78.6464 120.06 77.9076 120.741 77.1478 121.405C69.6655 127.906 60.6741 131.742 51.8357 132.207C43.1661 132.655 35.6838 129.795 30.7765 124.144C25.7056 118.313 24.149 110.372 25.7109 102.23C25.7479 102.024 25.9273 101.882 26.1383 101.882H104.275L104.27 101.876Z"></path>
</g>
<defs>
<clipPath id="clip0_8319_70410">
<rect transform="translate(8 64)" fill="white" height="72" width="312.589"></rect>
</clipPath>
</defs>
</svg>
