<svg xmlns="http://www.w3.org/2000/svg" fill="none" viewBox="0 0 245 200" height="200" width="245">
<g clip-path="url(#clip0_99_139)">
<g clip-path="url(#clip1_99_139)">
<path fill="#FAFAF9" d="M34.951 84.1019C34.951 84.681 35.4209 85.1509 36 85.1509C36.5791 85.1509 37.0516 84.6836 37.0516 84.1019V65.049C37.0516 64.4699 36.5791 64 36 64C35.4209 64 34.951 64.4699 34.951 65.049V84.1019ZM30.8717 84.9147C31.0215 85.4735 31.5956 85.8063 32.1544 85.6564C32.7132 85.5065 33.0485 84.9325 32.8961 84.3711L27.9684 65.9685C27.8185 65.4072 27.2419 65.077 26.6831 65.2268C26.1243 65.3767 25.7916 65.9533 25.9414 66.5121L30.8717 84.9147ZM27.1429 86.7537C27.4324 87.2541 28.0725 87.4268 28.5755 87.1372C29.0758 86.8477 29.2511 86.2076 28.9615 85.7046L19.4339 69.2071C19.1443 68.7042 18.5017 68.534 17.9987 68.8235C17.4983 69.1131 17.3256 69.7557 17.6152 70.2561L27.1403 86.7562L27.1429 86.7537ZM24.0161 89.4995C24.425 89.9084 25.0905 89.9084 25.4995 89.4995C25.9084 89.0905 25.911 88.425 25.4995 88.0161L12.0271 74.5437C11.6181 74.1322 10.9527 74.1348 10.5437 74.5437C10.1348 74.9527 10.1348 75.6181 10.5437 76.0271L24.0161 89.4995ZM21.7046 92.959C22.205 93.2486 22.8477 93.0758 23.1372 92.5755C23.4268 92.0751 23.2566 91.4324 22.7537 91.1429L6.25612 81.6152C5.75319 81.3256 5.1131 81.4983 4.82354 82.0013C4.53397 82.5017 4.7067 83.1443 5.20708 83.4339L21.7072 92.959H21.7046ZM20.3711 96.8986C20.9299 97.0485 21.5065 96.7157 21.6564 96.1569C21.8063 95.5981 21.476 95.0215 20.9147 94.8717L2.5121 89.9414C1.95075 89.7916 1.3767 90.1243 1.22684 90.6857C1.07698 91.2445 1.40972 91.8185 1.96853 91.9684L20.3711 96.8986ZM20.0993 101.049C20.6785 101.049 21.1484 100.579 21.1484 100C21.1484 99.4209 20.681 98.951 20.0993 98.951H1.04904C0.467368 98.951 0 99.4209 0 100C0 100.579 0.469908 101.046 1.04904 101.049H20.1019H20.0993ZM20.9122 105.128C21.471 104.978 21.8037 104.402 21.6538 103.843C21.504 103.284 20.9299 102.949 20.3686 103.101L1.96599 108.032C1.40464 108.181 1.07698 108.758 1.2243 109.317C1.37416 109.876 1.94821 110.208 2.50702 110.059L20.9096 105.128H20.9122ZM22.7537 108.86C23.2541 108.57 23.4268 107.927 23.1372 107.427C22.8477 106.927 22.2076 106.751 21.7046 107.041L5.20454 116.566C4.70162 116.856 4.53397 117.498 4.821 117.999C5.11056 118.499 5.75319 118.672 6.25358 118.382L22.7537 108.857V108.86ZM25.4995 111.986C25.9084 111.578 25.9084 110.912 25.4995 110.503C25.0905 110.094 24.425 110.092 24.0161 110.503L10.5437 123.975C10.1348 124.384 10.1348 125.05 10.5437 125.459C10.9527 125.868 11.6181 125.868 12.0271 125.459L25.4995 111.986ZM28.959 114.295C29.2486 113.795 29.0758 113.152 28.5755 112.863C28.0751 112.573 27.4324 112.743 27.1429 113.246L17.6177 129.744C17.3282 130.247 17.5009 130.887 18.0038 131.176C18.5042 131.466 19.1468 131.293 19.4364 130.793L28.9615 114.295H28.959ZM32.8986 115.631C33.0485 115.073 32.7157 114.496 32.1569 114.346C31.5981 114.196 31.0215 114.526 30.8717 115.088L25.9414 133.49C25.7916 134.052 26.1243 134.626 26.6831 134.776C27.2419 134.926 27.816 134.593 27.9684 134.034L32.8986 115.631ZM37.049 115.901C37.049 115.322 36.5791 114.852 36 114.852C35.4209 114.852 34.951 115.319 34.951 115.901V134.954C34.951 135.533 35.4209 136.003 36 136.003C36.5791 136.003 37.049 135.533 37.049 134.954V115.901ZM41.1283 115.088C40.9785 114.529 40.4044 114.196 39.8456 114.346C39.2868 114.496 38.9515 115.07 39.1039 115.631L44.0341 134.034C44.184 134.595 44.7606 134.926 45.3194 134.776C45.8782 134.626 46.211 134.049 46.0611 133.49L41.1309 115.088H41.1283ZM44.8597 113.246C44.5701 112.746 43.9275 112.573 43.4271 112.863C42.9267 113.152 42.7514 113.792 43.041 114.295L52.5687 130.795C52.8583 131.298 53.5009 131.469 54.0013 131.179C54.5017 130.889 54.6744 130.247 54.3848 129.746L44.8597 113.246ZM47.9839 110.503C47.575 110.094 46.9095 110.094 46.5005 110.503C46.0916 110.912 46.089 111.578 46.5005 111.986L59.9729 125.459C60.3819 125.87 61.0473 125.868 61.4563 125.459C61.8652 125.05 61.8652 124.384 61.4563 123.978L47.9839 110.506V110.503ZM50.2953 107.044C49.795 106.754 49.1523 106.927 48.8628 107.427C48.5732 107.927 48.7434 108.57 49.2463 108.86L65.7464 118.385C66.2493 118.674 66.8894 118.502 67.179 117.999C67.4686 117.498 67.2958 116.856 66.7955 116.566L50.2953 107.038V107.044ZM51.6289 103.104C51.0701 102.954 50.496 103.287 50.3462 103.846C50.1963 104.404 50.5265 104.981 51.0878 105.131L69.4904 110.061C70.0518 110.214 70.6258 109.878 70.7757 109.319C70.9256 108.761 70.5928 108.184 70.034 108.034L51.6314 103.104H51.6289ZM51.9007 98.9535C51.3215 98.9535 50.8516 99.4234 50.8516 100.003C50.8516 100.582 51.319 101.052 51.9007 101.052H70.9535C71.5326 101.052 72.0025 100.579 72.0025 100C72.0025 99.4209 71.5326 98.951 70.9535 98.951H51.9007V98.9535ZM51.0878 94.8717C50.529 95.0215 50.1963 95.5981 50.3462 96.1544C50.496 96.7132 51.0701 97.0485 51.6314 96.8986L70.034 91.9684C70.5954 91.8185 70.9256 91.2419 70.7757 90.6831C70.6258 90.1243 70.0492 89.7916 69.4904 89.9414L51.0878 94.8717ZM49.2463 91.1429C48.7459 91.4324 48.5732 92.0725 48.8628 92.5755C49.1523 93.0758 49.7924 93.2511 50.2953 92.9615L66.7955 83.4364C67.2984 83.1468 67.4686 82.5042 67.179 82.0038C66.8894 81.5034 66.2468 81.3307 65.7464 81.6203L49.2463 91.148V91.1429ZM46.5031 88.0161C46.0941 88.425 46.0941 89.0905 46.5031 89.4995C46.912 89.9084 47.5775 89.911 47.9865 89.4995L61.4588 76.0271C61.8703 75.6181 61.8678 74.9527 61.4588 74.5437C61.0499 74.1348 60.3844 74.1348 59.978 74.5437L46.5056 88.0161H46.5031ZM43.041 85.7072C42.7514 86.2076 42.9242 86.8502 43.4245 87.1398C43.9249 87.4293 44.5676 87.2592 44.8571 86.7562L54.3848 70.2561C54.6744 69.7557 54.5017 69.1131 53.9987 68.8235C53.4983 68.534 52.8557 68.7067 52.5661 69.2071L43.041 85.7072ZM39.1039 84.3711C38.9541 84.9299 39.2868 85.504 39.8456 85.6538C40.4044 85.8037 40.981 85.4735 41.1309 84.9122L46.0611 66.5096C46.211 65.9508 45.8782 65.3742 45.3169 65.2243C44.7581 65.0744 44.1815 65.4072 44.0341 65.966L39.1039 84.3686V84.3711Z"></path>
<path fill="#FAFAF9" d="M32.0426 73.7021C32.0782 73.9713 32.3246 74.1593 32.5938 74.1263C32.8631 74.0907 33.0536 73.8443 33.018 73.5751L31.9156 65.2082C31.8801 64.9389 31.6337 64.751 31.3644 64.7865C31.0952 64.8221 30.9072 65.0685 30.9428 65.3377L32.0426 73.7046V73.7021Z"></path>
<path fill="#FAFAF9" d="M25.0728 74.9082C25.1769 75.1597 25.464 75.279 25.7154 75.1749C25.9643 75.0708 26.0863 74.7837 25.9821 74.5323L23.0509 67.4506C22.9468 67.1992 22.6597 67.0823 22.4083 67.1865C22.1594 67.2906 22.04 67.5776 22.1441 67.8266L25.0779 74.9082H25.0728Z"></path>
<path fill="#FAFAF9" d="M18.0214 77.3832C18.1865 77.5991 18.4939 77.6398 18.7098 77.4747C18.9257 77.3096 18.9663 77.0022 18.8012 76.7863L15.0648 71.912C14.8997 71.6961 14.5924 71.658 14.3765 71.8231C14.1606 71.9882 14.1199 72.2955 14.285 72.5114L18.0214 77.3858V77.3832Z"></path>
<path fill="#FAFAF9" d="M11.0949 81.5134C11.3108 81.6785 11.6181 81.6379 11.7832 81.422C11.9483 81.2061 11.9077 80.8987 11.6918 80.7336L8.50658 78.285C8.29067 78.1199 7.98333 78.1606 7.81823 78.3765C7.65312 78.5898 7.69376 78.8997 7.90967 79.0648L11.0949 81.5134Z"></path>
<path fill="#FAFAF9" d="M5.06981 87.7226C5.32127 87.8268 5.6083 87.7074 5.71244 87.4585C5.81658 87.207 5.6972 86.92 5.44828 86.8158L3.82773 86.1402C3.57627 86.036 3.28924 86.1554 3.1851 86.4069C3.08096 86.6558 3.20034 86.9428 3.4518 87.047L5.07235 87.7226H5.06981Z"></path>
<path fill="#FAFAF9" d="M1.47133 95.9562C1.74058 95.9918 1.98696 95.8038 2.02252 95.5346C2.05808 95.2653 1.87012 95.0189 1.60087 94.9834L1.33671 94.9427C1.06747 94.9072 0.821082 95.0977 0.785521 95.3669C0.749961 95.6362 0.940464 95.8826 1.20717 95.9181L1.47133 95.9588V95.9562Z"></path>
<path fill="#FAFAF9" d="M30.9428 134.666C30.9072 134.936 31.0952 135.182 31.3644 135.218C31.6337 135.253 31.8801 135.065 31.9156 134.793L33.018 126.427C33.0536 126.157 32.8631 125.911 32.5938 125.875C32.3246 125.84 32.0782 126.03 32.0426 126.297L30.9428 134.664V134.666Z"></path>
<path fill="#FAFAF9" d="M22.1412 132.175C22.037 132.426 22.1564 132.713 22.4054 132.815C22.6568 132.919 22.9438 132.802 23.048 132.551L25.9792 125.466C26.0833 125.215 25.964 124.928 25.7125 124.824C25.461 124.72 25.174 124.839 25.0699 125.09L22.1361 132.175H22.1412Z"></path>
<path fill="#FAFAF9" d="M14.285 127.493C14.1199 127.709 14.1606 128.017 14.3765 128.182C14.5924 128.347 14.8997 128.306 15.0648 128.093L18.8012 123.218C18.9663 123.003 18.9257 122.695 18.7098 122.53C18.4939 122.365 18.1865 122.406 18.0214 122.622L14.285 127.496V127.493Z"></path>
<path fill="#FAFAF9" d="M7.90967 120.935C7.69376 121.1 7.65312 121.407 7.81823 121.623C7.98333 121.839 8.29067 121.88 8.50658 121.715L11.6918 119.266C11.9077 119.101 11.9458 118.791 11.7832 118.578C11.6181 118.362 11.3108 118.321 11.0949 118.486L7.90967 120.935Z"></path>
<path fill="#FAFAF9" d="M3.44942 112.951C3.2005 113.055 3.08112 113.342 3.18272 113.591C3.28686 113.842 3.57388 113.962 3.82535 113.857L5.44589 113.182C5.69736 113.078 5.8142 112.791 5.71006 112.539C5.60592 112.29 5.31889 112.171 5.06743 112.275L3.44688 112.951H3.44942Z"></path>
<path fill="#FAFAF9" d="M1.20721 104.087C0.93797 104.123 0.750007 104.369 0.785567 104.639C0.821128 104.908 1.06751 105.098 1.33676 105.063L1.60092 105.022C1.87017 104.987 2.05813 104.74 2.02257 104.471C1.98701 104.202 1.74062 104.014 1.47138 104.049L1.20721 104.09V104.087Z"></path>
<path fill="#FAFAF9" d="M41.059 65.3358C41.0945 65.0665 40.9066 64.8202 40.6373 64.7846C40.3681 64.749 40.1217 64.937 40.0861 65.2062L38.9838 73.5731C38.9482 73.8424 39.1387 74.0888 39.4079 74.1243C39.6772 74.1599 39.9236 73.9694 39.9591 73.7001L41.0615 65.3332L41.059 65.3358Z"></path>
<path fill="#FAFAF9" d="M49.8577 67.8243C49.9618 67.5728 49.8424 67.2858 49.591 67.1842C49.342 67.08 49.0525 67.1994 48.9483 67.4483L46.0171 74.53C45.913 74.7814 46.0324 75.0684 46.2838 75.1726C46.5353 75.2767 46.8223 75.1573 46.9265 74.9059L49.8602 67.8243H49.8577Z"></path>
<path fill="#FAFAF9" d="M57.7153 72.5087C57.8804 72.2928 57.8397 71.9855 57.6238 71.8204C57.4079 71.6553 57.1006 71.6959 56.9355 71.9093L53.1991 76.7836C53.034 76.9995 53.0746 77.3068 53.2905 77.472C53.5064 77.6371 53.8138 77.5964 53.9789 77.3805L57.7153 72.5062V72.5087Z"></path>
<path fill="#FAFAF9" d="M64.0901 79.0648C64.306 78.8997 64.3467 78.5924 64.1816 78.3765C64.0165 78.1606 63.7091 78.1199 63.4932 78.285L60.308 80.7336C60.0921 80.8987 60.054 81.2061 60.2166 81.422C60.3817 81.6379 60.689 81.6785 60.9049 81.5134L64.0901 79.0648Z"></path>
<path fill="#FAFAF9" d="M68.5496 87.047C68.7986 86.9428 68.9179 86.6558 68.8163 86.4069C68.7122 86.1554 68.4252 86.036 68.1737 86.1402L66.5532 86.8158C66.3017 86.92 66.1849 87.207 66.289 87.4585C66.3931 87.7099 66.6802 87.8268 66.9316 87.7226L68.5522 87.047H68.5496Z"></path>
<path fill="#FAFAF9" d="M70.7933 95.9152C71.0625 95.8796 71.2505 95.6332 71.2149 95.364C71.1794 95.0948 70.933 94.9043 70.6638 94.9398L70.3996 94.9805C70.1304 95.016 69.9424 95.2624 69.978 95.5316C70.0135 95.8009 70.2599 95.9889 70.5291 95.9533L70.7933 95.9127V95.9152Z"></path>
<path fill="#FAFAF9" d="M39.9572 126.299C39.9216 126.03 39.6752 125.842 39.406 125.877C39.1368 125.913 38.9462 126.159 38.9818 126.429L40.0842 134.795C40.1197 135.065 40.3661 135.253 40.6354 135.22C40.9046 135.184 41.0926 134.938 41.057 134.668L39.9546 126.302L39.9572 126.299Z"></path>
<path fill="#FAFAF9" d="M46.9271 125.092C46.823 124.841 46.5359 124.724 46.2845 124.826C46.0355 124.93 45.9136 125.217 46.0178 125.468L48.949 132.552C49.0531 132.804 49.3401 132.921 49.5916 132.817C49.8431 132.712 49.9599 132.425 49.8583 132.177L46.9246 125.092H46.9271Z"></path>
<path fill="#FAFAF9" d="M53.9789 122.619C53.8138 122.403 53.5064 122.362 53.2905 122.527C53.0746 122.692 53.034 123 53.1991 123.216L56.9355 128.09C57.1006 128.306 57.4079 128.344 57.6238 128.179C57.8397 128.014 57.8804 127.706 57.7153 127.49L53.9789 122.616V122.619Z"></path>
<path fill="#FAFAF9" d="M60.905 118.486C60.6891 118.321 60.3818 118.362 60.2167 118.578C60.0516 118.794 60.0922 119.101 60.3081 119.266L63.4933 121.715C63.7092 121.88 64.0166 121.839 64.1817 121.623C64.3468 121.41 64.3061 121.1 64.0902 120.935L60.905 118.486Z"></path>
<path fill="#FAFAF9" d="M66.9297 112.275C66.6782 112.171 66.3912 112.29 66.287 112.539C66.1829 112.791 66.2998 113.078 66.5512 113.182L68.1718 113.857C68.4232 113.962 68.7102 113.84 68.8144 113.591C68.9185 113.342 68.7991 113.055 68.5477 112.951L66.9271 112.275H66.9297Z"></path>
<path fill="#FAFAF9" d="M70.5291 104.043C70.2599 104.008 70.0135 104.196 69.978 104.465C69.9424 104.734 70.1304 104.981 70.3996 105.016L70.6638 105.057C70.933 105.092 71.1794 104.902 71.2149 104.633C71.2505 104.363 71.0625 104.117 70.7933 104.081L70.5291 104.041V104.043Z"></path>
<path fill="#FAFAF9" d="M107.978 101.257C110.434 100.993 111.989 99.4533 111.989 97.0479C111.989 94.3987 110.089 92.834 107.175 92.834H100.276V107.587C100.276 108.069 100.652 108.46 101.115 108.46C101.577 108.46 101.958 108.069 101.958 107.587V101.305H106.197L109.878 107.937C110.094 108.328 110.571 108.458 110.945 108.237C111.315 108.013 111.445 107.515 111.234 107.129L107.975 101.257H107.978ZM101.96 99.6769V94.4418H107.028C109.139 94.4418 110.302 95.5061 110.302 97.0454C110.302 98.8691 109.139 99.6769 107.028 99.6769H101.96Z"></path>
<path fill="#FAFAF9" d="M152.03 92.6182C151.57 92.6182 151.194 93.0093 151.194 93.4919V99.6795H142.309V93.4919C142.309 93.0093 141.928 92.6182 141.471 92.6182C141.014 92.6182 140.633 93.0093 140.633 93.4919V107.587C140.633 108.069 141.006 108.46 141.471 108.46C141.936 108.46 142.309 108.069 142.309 107.587V101.305H151.194V107.587C151.194 108.069 151.57 108.46 152.03 108.46C152.49 108.46 152.873 108.069 152.873 107.587V93.4919C152.873 93.0093 152.495 92.6182 152.03 92.6182Z"></path>
<path fill="#FAFAF9" d="M159.934 108.235H168.756C169.177 108.235 169.518 107.872 169.518 107.43C169.518 106.988 169.177 106.63 168.756 106.63H161.606V93.49C161.606 93.0074 161.225 92.6162 160.76 92.6162C160.295 92.6162 159.932 93.0074 159.932 93.49V108.235H159.934Z"></path>
<path fill="#FAFAF9" d="M170.858 108.235H179.677C180.102 108.235 180.447 107.872 180.447 107.43C180.447 106.988 180.104 106.63 179.677 106.63H172.53V93.49C172.53 93.0074 172.149 92.6162 171.689 92.6162C171.229 92.6162 170.858 93.0074 170.858 93.49V108.235Z"></path>
<path fill="#FAFAF9" d="M155.553 107.585C155.553 108.067 155.929 108.458 156.391 108.458C156.853 108.458 157.229 108.067 157.229 107.585V93.49C157.229 93.0074 156.851 92.6162 156.391 92.6162C155.931 92.6162 155.553 93.0074 155.553 93.49V107.585Z"></path>
<path fill="#FAFAF9" d="M124.662 106.629H115.858V101.302H123.313C123.745 101.302 124.091 100.934 124.091 100.487C124.091 100.04 123.745 99.6765 123.313 99.6765H115.858V94.4364H124.662C125.084 94.4364 125.424 94.0782 125.424 93.6362C125.424 93.1943 125.084 92.8311 124.662 92.8311H114.189V108.234H124.662C125.084 108.234 125.424 107.871 125.424 107.429C125.424 106.987 125.084 106.629 124.662 106.629Z"></path>
<path fill="#FAFAF9" d="M137.858 106.629H129.055V101.302H136.51C136.939 101.302 137.287 100.934 137.287 100.487C137.287 100.04 136.941 99.6765 136.51 99.6765H129.055V94.4364H137.858C138.28 94.4364 138.623 94.0782 138.623 93.6362C138.623 93.1943 138.28 92.8311 137.858 92.8311H127.386V108.234H137.858C138.28 108.234 138.623 107.871 138.623 107.429C138.623 106.987 138.28 106.629 137.858 106.629Z"></path>
<path fill="#FAFAF9" d="M98.0836 92.834H87.9209V107.587C87.9209 108.069 88.2968 108.46 88.754 108.46C89.2112 108.46 89.5973 108.069 89.5973 107.587V101.305H96.4046C96.8364 101.305 97.1819 100.937 97.1819 100.49C97.1819 100.043 96.8364 99.6794 96.4046 99.6794H89.5973V94.4393H98.0811C98.5078 94.4393 98.8507 94.0811 98.8507 93.6392C98.8507 93.1972 98.5078 92.834 98.0811 92.834H98.0836Z"></path>
<path fill="#FAFAF9" d="M187.15 99.7018C183.901 98.9778 183.142 98.1625 183.142 96.6893C183.142 95.216 184.363 94.1822 186.284 94.1822C187.584 94.1822 188.781 94.5531 189.957 95.3938C190.317 95.6783 190.797 95.6834 191.082 95.3151C191.364 94.9493 191.349 94.3905 190.97 94.0806C189.637 93.1129 188.219 92.6201 186.327 92.6201C183.523 92.6201 181.475 94.3804 181.475 96.8467C181.475 99.3131 183.04 100.543 186.431 101.307C189.537 101.988 190.274 102.806 190.274 104.256C190.274 105.816 188.966 106.898 186.977 106.898C185.11 106.898 183.716 106.288 182.311 105.074C181.968 104.784 181.458 104.84 181.181 105.203C180.904 105.564 180.957 106.077 181.305 106.367C182.959 107.766 184.76 108.457 186.916 108.457C189.847 108.457 191.958 106.743 191.958 104.081C191.958 101.706 190.439 100.449 187.15 99.7018Z"></path>
<path fill="#FAFAF9" d="M141.046 77.4185C141.046 75.0994 139.148 73.6211 136.237 73.6211H129.948V88.808H136.512C139.738 88.808 141.869 87.2662 141.869 84.6423C141.869 82.5341 140.454 81.4978 138.706 80.9517C139.87 80.4309 141.048 79.4149 141.048 77.4159L141.046 77.4185ZM140.18 84.5331C140.18 86.2476 138.79 87.2662 136.55 87.2662H131.592V81.9727H136.258C138.833 81.9727 140.182 82.8618 140.182 84.5331H140.18ZM135.963 80.3674H131.592V75.1604H136.085C138.196 75.1604 139.354 76.1357 139.354 77.6547C139.354 79.453 137.965 80.3649 135.961 80.3649L135.963 80.3674Z"></path>
<path fill="#FAFAF9" d="M123.731 81.9276C126.192 81.666 127.741 80.147 127.741 77.7772C127.741 75.1609 125.844 73.6191 122.928 73.6191H116.034V88.166C116.034 88.6409 116.41 89.027 116.875 89.027C117.34 89.027 117.711 88.6384 117.711 88.166V81.9708H121.952L125.636 88.5139C125.849 88.8975 126.329 89.0296 126.7 88.806C127.073 88.5851 127.2 88.0974 126.987 87.7164L123.731 81.9251V81.9276ZM117.713 80.368V75.2041H122.783C124.896 75.2041 126.055 76.2532 126.055 77.7746C126.055 79.573 124.899 80.3655 122.783 80.3655H117.713V80.368Z"></path>
<path fill="#FAFAF9" d="M164.756 81.9276C167.218 81.666 168.767 80.147 168.767 77.7772C168.767 75.1609 166.87 73.6191 163.961 73.6191H157.062V88.166C157.062 88.6409 157.438 89.027 157.901 89.027C158.363 89.027 158.739 88.6384 158.739 88.166V81.9708H162.983L166.666 88.5139C166.88 88.8975 167.36 89.0296 167.728 88.806C168.102 88.5851 168.231 88.0974 168.015 87.7164L164.756 81.9251V81.9276ZM158.736 80.368V75.2041H163.811C165.92 75.2041 167.078 76.2532 167.078 77.7746C167.078 79.573 165.922 80.3655 163.811 80.3655H158.736V80.368Z"></path>
<path fill="#FAFAF9" d="M99.3083 73.4082C98.8485 73.4082 98.4752 73.7943 98.4752 74.2718V80.3705H89.5926V74.2718C89.5926 73.7943 89.2116 73.4082 88.7493 73.4082C88.2871 73.4082 87.9111 73.7943 87.9111 74.2718V88.1684C87.9111 88.6434 88.2871 89.0295 88.7493 89.0295C89.2116 89.0295 89.5926 88.6408 89.5926 88.1684V81.9732H98.4752V88.1684C98.4752 88.6434 98.8485 89.0295 99.3083 89.0295C99.768 89.0295 100.152 88.6408 100.152 88.1684V74.2718C100.152 73.7943 99.7731 73.4082 99.3083 73.4082Z"></path>
<path fill="#FAFAF9" d="M113.306 87.2256H104.51V81.9727H111.958C112.387 81.9727 112.732 81.6095 112.732 81.1701C112.732 80.7307 112.387 80.3725 111.958 80.3725H104.51V75.2035H113.306C113.733 75.2035 114.076 74.8505 114.076 74.4161C114.076 73.9818 113.733 73.6211 113.306 73.6211H102.839V88.808H113.306C113.733 88.808 114.076 88.4499 114.076 88.0155C114.076 87.5812 113.733 87.2256 113.306 87.2256Z"></path>
<path fill="#FAFAF9" d="M154.333 87.2256H145.534V81.9727H152.984C153.416 81.9727 153.764 81.6095 153.764 81.1701C153.764 80.7307 153.416 80.3725 152.984 80.3725H145.534V75.2035H154.333C154.757 75.2035 155.1 74.8505 155.1 74.4161C155.1 73.9818 154.757 73.6211 154.333 73.6211H143.865V88.808H154.333C154.757 88.808 155.1 88.4499 155.1 88.0155C155.1 87.5812 154.757 87.2256 154.333 87.2256Z"></path>
<path fill="#FAFAF9" d="M170.177 73.6191C169.748 73.6191 169.397 73.9595 169.397 74.4015C169.397 74.8434 169.748 75.2041 170.177 75.2041H174.734V88.1609C174.734 88.6359 175.11 89.022 175.572 89.022C176.035 89.022 176.416 88.6359 176.416 88.1609V75.2041H180.965C181.394 75.2041 181.742 74.8409 181.742 74.4015C181.742 73.962 181.394 73.6191 180.965 73.6191H170.177Z"></path>
<path fill="#FAFAF9" d="M243.652 73.626C243.192 73.626 242.816 74.0121 242.816 74.4871V80.5857H233.933V74.4871C233.933 74.0121 233.552 73.626 233.09 73.626C232.628 73.626 232.252 74.0121 232.252 74.4871V88.3836C232.252 88.8586 232.628 89.2447 233.09 89.2447C233.552 89.2447 233.933 88.8586 233.933 88.3836V82.191H242.816V88.3836C242.816 88.8586 243.192 89.2447 243.652 89.2447C244.111 89.2447 244.492 88.8586 244.492 88.3836V74.4871C244.492 74.0121 244.111 73.626 243.652 73.626Z"></path>
<path fill="#FAFAF9" d="M215.009 88.3865C215.009 88.8615 215.385 89.2476 215.847 89.2476C216.309 89.2476 216.683 88.859 216.683 88.3865V74.49C216.683 74.015 216.304 73.6289 215.847 73.6289C215.39 73.6289 215.009 74.015 215.009 74.49V88.3865Z"></path>
<path fill="#FAFAF9" d="M192.695 80.6037C189.444 79.8899 188.687 79.0847 188.687 77.6318C188.687 76.1789 189.909 75.1578 191.829 75.1578C193.127 75.1578 194.321 75.5261 195.499 76.3542C195.863 76.6336 196.343 76.6361 196.622 76.278C196.907 75.9173 196.891 75.3686 196.513 75.0613C195.179 74.1088 193.762 73.6211 191.87 73.6211C189.065 73.6211 187.018 75.3559 187.018 77.7868C187.018 80.2176 188.578 81.4317 191.976 82.1887C195.075 82.8618 195.819 83.667 195.819 85.097C195.819 86.6363 194.511 87.7005 192.522 87.7005C190.655 87.7005 189.261 87.1011 187.859 85.9047C187.513 85.6177 187.003 85.6736 186.729 86.0292C186.447 86.3873 186.503 86.8903 186.853 87.1773C188.509 88.5591 190.307 89.2398 192.464 89.2398C195.393 89.2398 197.503 87.5507 197.503 84.9268C197.503 82.5824 195.987 81.3454 192.698 80.6062L192.695 80.6037Z"></path>
<path fill="#FAFAF9" d="M219.089 73.8398C218.66 73.8398 218.312 74.1777 218.312 74.6196C218.312 75.0616 218.657 75.4223 219.089 75.4223H223.653V88.3816C223.653 88.8566 224.027 89.2427 224.486 89.2427C224.946 89.2427 225.33 88.8566 225.33 88.3816V75.4223H229.879C230.308 75.4223 230.659 75.0616 230.659 74.6196C230.659 74.1777 230.308 73.8398 229.879 73.8398H219.089Z"></path>
<path fill="#FAFAF9" d="M206.447 84.7161L210.635 77.5837V88.3839C210.635 88.8589 211.001 89.245 211.466 89.245C211.931 89.245 212.309 88.8564 212.309 88.3839V74.4569C212.292 74.2003 212.152 73.959 211.918 73.8193C211.545 73.5983 211.07 73.733 210.856 74.1165L205.771 82.7654L200.689 74.1165C200.478 73.733 200.003 73.5983 199.629 73.8193C199.398 73.9565 199.259 74.2003 199.238 74.4594V88.3839C199.238 88.8589 199.602 89.245 200.066 89.245C200.531 89.245 200.905 88.8564 200.905 88.3839V77.5837L205.098 84.7161C205.223 84.9218 205.431 85.1073 205.774 85.1073C206.117 85.1073 206.33 84.9142 206.449 84.7161H206.447Z"></path>
<path fill="#FAFAF9" d="M113.624 116.128C113.624 113.449 111.678 111.866 108.696 111.866H101.635V126.784C101.635 127.272 102.018 127.665 102.493 127.668H102.496C102.968 127.668 103.357 127.272 103.357 126.784V120.431H107.698L111.465 127.139C111.686 127.533 112.176 127.668 112.557 127.442C112.935 127.216 113.07 126.713 112.852 126.322L109.517 120.383C112.031 120.116 113.624 118.559 113.624 116.126V116.128ZM108.541 118.788H103.354V113.494H108.541C110.703 113.494 111.891 114.571 111.891 116.128C111.891 117.972 110.703 118.788 108.541 118.788Z"></path>
<path fill="#FAFAF9" d="M172.235 116.131C172.235 113.449 170.289 111.869 167.307 111.869H160.246V126.787C160.246 127.274 160.63 127.668 161.105 127.671H161.107C161.58 127.671 161.968 127.274 161.968 126.787V120.434H166.309L170.076 127.142C170.297 127.536 170.787 127.671 171.168 127.445C171.547 127.219 171.681 126.716 171.463 126.325L168.128 120.386C170.64 120.119 172.233 118.562 172.235 116.131ZM167.152 118.788H161.966V113.495H167.152C169.314 113.495 170.503 114.572 170.503 116.129C170.503 117.973 169.314 118.788 167.152 118.788Z"></path>
<path fill="#FAFAF9" d="M157.483 113.515C157.912 113.515 158.265 113.147 158.265 112.695C158.265 112.243 157.914 111.869 157.483 111.869H146.764V127.671H157.483C157.912 127.671 158.265 127.297 158.265 126.843C158.265 126.388 157.914 126.022 157.483 126.022H148.471V120.559H156.101C156.54 120.559 156.896 120.18 156.896 119.72C156.896 119.261 156.54 118.89 156.101 118.89H148.471V113.515H157.483Z"></path>
<path fill="#FAFAF9" d="M144.025 111.975C143.642 111.752 143.156 111.886 142.938 112.277L137.733 121.076L132.529 112.277C132.313 111.889 131.825 111.752 131.444 111.975C131.208 112.115 131.063 112.364 131.043 112.625V126.791C131.043 127.274 131.416 127.668 131.891 127.668C132.366 127.668 132.75 127.274 132.75 126.791V115.803L137.045 123.06C137.172 123.268 137.385 123.459 137.736 123.459C138.087 123.459 138.305 123.263 138.427 123.06L142.714 115.803V126.791C142.714 127.274 143.088 127.668 143.563 127.668C144.038 127.668 144.424 127.274 144.424 126.791V112.623C144.406 112.364 144.261 112.115 144.023 111.975H144.025Z"></path>
<path fill="#FAFAF9" d="M93.9642 118.816L99.0951 113.31C99.5727 112.796 99.2196 111.94 98.5312 111.94C98.3153 111.94 98.1096 112.032 97.9597 112.194L89.6081 121.333V112.751C89.6081 112.304 89.2575 111.943 88.8232 111.943H88.7038C88.272 111.943 87.9189 112.304 87.9189 112.751V126.863C87.9189 127.31 88.2695 127.671 88.7038 127.671H88.8232C89.255 127.671 89.6081 127.31 89.6081 126.863V123.447L92.7907 120.053L98.3001 127.358C98.45 127.554 98.676 127.671 98.9199 127.671H99.0469C99.6997 127.671 100.065 126.896 99.6666 126.365L93.9668 118.816H93.9642Z"></path>
<path fill="#FAFAF9" d="M123.141 112.53C122.959 112.103 122.55 111.829 122.098 111.829C121.59 111.829 121.127 112.139 120.922 112.617L114.94 126.523C114.709 127.062 115.09 127.666 115.661 127.666H115.666C115.979 127.666 116.261 127.476 116.388 127.179L117.952 123.508H126.088L127.632 127.176C127.757 127.473 128.041 127.664 128.354 127.666H128.44C129.012 127.666 129.393 127.059 129.161 126.523L123.144 112.528L123.141 112.53ZM118.613 121.895L122.029 113.897L125.425 121.895H118.613Z"></path>
</g>
</g>
<defs>
<clipPath id="clip0_99_139">
<rect fill="white" height="200" width="244.492"></rect>
</clipPath>
<clipPath id="clip1_99_139">
<rect transform="translate(0 64)" fill="white" height="72" width="244.492"></rect>
</clipPath>
</defs>
</svg>
