<svg xmlns="http://www.w3.org/2000/svg" fill="none" viewBox="0 0 320 200" height="200" width="320">
<path fill="#FAFAF9" d="M80.915 103.413C79.0941 104.86 77.2826 106.226 75.5591 107.695C73.4817 109.466 71.4788 111.324 69.4444 113.146C68.4049 114.076 67.3948 115.042 66.3222 115.932C64.3781 117.547 62.349 118.993 59.8192 119.629C57.8938 120.114 56.1067 119.809 54.3373 119.095C52.1098 118.197 50.2706 116.716 48.5114 115.126C46.2296 113.063 43.9786 110.965 41.6667 108.937C39.7241 107.232 37.7941 105.495 35.7107 103.974C33.4567 102.33 30.9004 101.326 28.024 101.382C25.0098 101.44 22.4594 103.813 21.9393 106.711C21.7919 107.533 21.7758 108.386 21.7724 109.224C21.7562 113.24 21.7654 117.255 21.765 121.27C21.7649 122.549 21.3987 122.925 20.1592 122.926C18.5903 122.926 17.0214 122.918 15.4526 122.927C12.5888 122.944 9.86479 120.583 9.17103 117.869C9.04327 117.369 9.00727 116.834 9.00692 116.315C8.99829 103.419 9.00007 90.5217 9.00032 77.6248C9.00035 76.5362 9.53157 76.0146 10.6394 76.0144C13.7241 76.014 16.8093 75.9754 19.8931 76.0263C22.4618 76.0687 24.7142 77.0463 26.6187 78.7349C28.4369 80.347 30.1708 82.0543 31.9429 83.7185C33.6529 85.3242 35.3673 86.925 37.0745 88.5337C39.7419 91.0472 42.5247 93.3889 45.9359 94.872C48.4221 95.9529 50.9683 96.8156 53.6762 97.0637C55.6148 97.2414 57.572 97.4449 59.5088 97.36C62.576 97.2255 65.5672 96.575 68.4471 95.4527C70.6123 94.6089 72.6445 93.5372 74.5053 92.1461C75.1923 91.6325 75.9023 91.1395 76.5312 90.5604C77.9135 89.2873 79.2461 87.9604 80.6077 86.6646C82.5414 84.8244 84.4778 82.9868 86.4229 81.1586C87.9809 79.6943 89.5318 78.2208 91.1358 76.8082C91.5101 76.4786 92.0835 76.2118 92.5714 76.2016C95.3091 76.1441 98.0562 76.0559 100.784 76.2318C101.879 76.3025 103.088 76.8137 103.973 77.4836C105.847 78.9013 106.842 80.8291 106.833 83.3073C106.787 95.9647 106.812 108.622 106.812 121.28C106.812 122.556 106.448 122.925 105.197 122.926C103.628 122.926 102.059 122.907 100.49 122.93C98.0411 122.965 95.3605 121.043 94.5525 118.714C94.2436 117.824 94.0951 116.842 94.0689 115.897C94.0025 113.505 94.0688 111.111 94.0392 108.718C94.0194 107.116 93.7871 105.576 92.8234 104.194C91.3267 102.048 88.7221 101.059 86.1062 101.499C84.2496 101.81 82.5577 102.423 80.915 103.413Z"></path>
<path fill="#FAFAF9" d="M114.358 109.31C113.188 107.012 112.153 104.72 111.718 102.22C111.459 100.734 111.164 99.2301 111.15 97.7317C111.088 91.1637 111.123 84.5948 111.123 78.0262C111.123 76.7438 111.368 76.4929 112.622 76.4929C119.509 76.4926 126.397 76.4494 133.285 76.5144C135.98 76.5398 138.579 77.2306 141.059 78.2941C143.456 79.3217 145.692 80.6097 147.777 82.2049C150.659 84.4096 153.071 87.0155 154.843 90.1591C155.842 91.9308 156.705 93.8082 157.379 95.7259C158.156 97.9364 158.448 100.288 157.687 102.568C156.979 104.691 155.986 105.705 153.507 105.806C148.419 106.014 143.315 106.118 138.227 105.962C134.008 105.832 130.593 103.322 129.294 99.3459C129.033 98.5468 129.025 97.6457 129.013 96.79C129.003 96.0389 129.534 95.7925 130.238 95.7952C133.11 95.8061 135.982 95.7998 138.854 95.7998C140.633 95.7998 142.411 95.7998 144.303 95.7998C144.143 95.5372 144.057 95.3186 143.907 95.1623C141.813 92.9815 139.607 90.952 136.779 89.7232C134.99 88.946 133.142 88.3984 131.191 88.4804C129.199 88.564 127.252 88.9767 125.663 90.2956C124.271 91.4509 123.57 93.0287 123.427 94.7989C123.256 96.9262 123.464 99.0422 124.21 101.057C125.26 103.893 126.933 106.231 129.367 108.139C131.91 110.133 134.746 110.772 137.825 110.792C142.107 110.819 146.391 110.882 150.669 110.773C154.215 110.682 157.548 113.412 157.859 116.823C158.033 118.741 158.009 120.679 158.003 122.608C158.002 122.873 157.632 123.224 157.348 123.376C157.046 123.537 156.643 123.556 156.284 123.557C150.7 123.567 145.115 123.591 139.531 123.549C137.557 123.534 135.568 123.479 133.617 123.215C130.159 122.746 126.954 121.464 124.021 119.591C122.446 118.586 120.85 117.523 119.545 116.207C118.013 114.662 116.772 112.826 115.439 111.09C115.031 110.559 114.738 109.939 114.358 109.31Z"></path>
<path fill="#FAFAF9" d="M162.343 93.7253C162.343 88.3539 162.343 83.0624 162.344 77.7708C162.344 76.5673 162.575 76.333 163.751 76.333C170.079 76.333 176.408 76.353 182.736 76.3235C185.376 76.3111 187.913 76.8451 190.434 77.5329C192.817 78.1832 195.105 79.0757 197.288 80.2388C200.096 81.7354 202.648 83.5802 204.75 85.9744C206.826 88.3376 208.503 90.9794 209.044 94.1263C209.704 97.9604 209.014 101.494 206.17 104.395C204.601 105.996 202.827 107.306 200.824 108.311C200.596 108.425 200.396 108.597 200.138 108.773C201.36 109.775 202.516 110.768 203.721 111.699C205.08 112.748 206.441 113.804 207.878 114.74C209.243 115.63 210.684 116.415 212.136 117.158C213.034 117.617 213.723 118.469 213.722 119.443C213.722 120.214 213.733 120.985 213.72 121.756C213.703 122.721 213.335 123.083 212.39 123.084C208.906 123.086 205.423 123.054 201.94 123.097C199.946 123.122 198.333 122.287 196.829 121.112C195.149 119.799 193.462 118.495 191.789 117.173C189.929 115.705 188.082 114.221 186.228 112.744C184.904 111.689 183.609 110.594 182.245 109.592C180.921 108.618 180.324 107.268 180.24 105.729C180.134 103.794 180.21 101.849 180.216 99.9074C180.219 98.9235 180.626 98.5812 181.568 98.8358C183.138 99.2601 184.688 99.7578 186.26 100.171C188.401 100.734 190.557 100.774 192.63 99.9272C194.16 99.3023 195.432 98.32 195.783 96.5723C196.049 95.2497 195.448 94.0951 194.757 93.0647C193.423 91.0742 191.496 89.7859 189.278 88.9517C187.471 88.2722 185.606 87.8916 183.656 87.7925C181.48 87.682 179.399 87.8652 177.482 88.9517C176.102 89.7343 175.264 90.8909 175.265 92.557C175.272 99.1781 175.308 105.8 175.244 112.42C175.224 114.5 174.896 116.573 173.834 118.437C172.121 121.443 169.689 123.296 166.077 123.246C165.306 123.235 164.533 123.278 163.764 123.236C162.726 123.179 162.317 122.667 162.32 121.805C162.357 112.472 162.343 103.138 162.343 93.7253Z"></path>
<path fill="#FAFAF9" d="M306.106 76.1742C306.793 76.1936 307.422 76.1168 308.003 76.2522C309.231 76.5389 310.484 78.2277 310.584 79.4975C310.769 81.8553 310.267 84.013 308.821 85.9165C308.71 86.0623 308.597 86.2082 308.468 86.3382C304.555 90.3089 300.642 94.2807 296.722 98.2452C294.969 100.018 294.684 102.172 296.255 104.062C297.095 105.071 298.253 105.905 299.422 106.532C301.585 107.692 303.93 108.517 306.073 109.71C308.847 111.254 310.533 113.622 310.574 116.932C310.595 118.66 310.581 120.389 310.576 122.117C310.573 123.118 310.433 123.172 309.43 123.258C306.275 123.529 303.412 122.604 300.573 121.358C296.217 119.447 291.833 117.596 287.413 115.837C285.368 115.024 283.171 114.557 280.978 115.146C279.991 115.411 279.029 115.996 278.219 116.641C277.185 117.463 276.296 118.474 275.381 119.437C273.659 121.25 271.601 122.509 269.131 122.863C267.673 123.073 266.159 122.949 264.674 122.886C264.435 122.876 264.175 122.425 264.003 122.132C263.911 121.973 263.986 121.716 263.986 121.503C263.985 106.879 263.985 92.2542 263.986 77.6296C263.986 76.5643 264.268 76.207 265.328 76.1858C267.269 76.1471 269.222 76.0434 271.148 76.217C272.655 76.353 273.942 77.1705 275.02 78.2996C276.449 79.7952 276.949 81.5505 276.928 83.5842C276.874 88.6358 276.91 93.6883 276.91 98.7405C276.91 98.9992 276.91 99.258 276.91 99.7861C277.662 99.0058 278.249 98.3787 278.855 97.7705C281.314 95.3033 283.779 92.8417 286.242 90.3784C289.557 87.062 292.869 83.741 296.193 80.4333C297.023 79.607 297.84 78.7509 298.763 78.0369C300.487 76.7025 302.472 76.0722 304.671 76.1712C305.122 76.1916 305.575 76.1742 306.106 76.1742Z"></path>
<path fill="#FAFAF9" d="M212.922 99.6391C212.869 98.9392 212.771 98.3126 212.769 97.6857C212.758 91.0114 212.762 84.337 212.763 77.6627C212.763 76.4106 212.993 76.1739 214.204 76.1739C220.506 76.1738 226.809 76.2128 233.11 76.1586C236.646 76.1282 239.98 76.8718 243.197 78.2911C246.256 79.6405 248.934 81.5494 251.392 83.7826C252.262 84.5736 252.231 84.9699 251.4 85.8025C249.859 87.3457 248.34 88.9109 246.767 90.4205C245.759 91.388 244.628 92.2008 243.124 92.124C241.885 92.0607 240.848 91.4688 239.874 90.7576C237.788 89.2331 235.511 88.2575 232.876 88.3011C229.45 88.3578 226.754 90.698 226.023 93.8671C225.477 96.2373 225.889 98.5506 226.812 100.777C227.89 103.379 229.473 105.647 231.584 107.495C233.726 109.37 236.057 111.029 238.97 111.407C242.215 111.829 245.203 110.21 246.4 107.114C247.519 104.218 249.121 103.451 251.768 103.322C254.023 103.212 256.287 103.296 258.547 103.301C259.612 103.303 259.743 103.522 259.531 104.579C259.179 106.334 259.001 108.133 258.532 109.854C257.404 113.995 255.219 117.469 251.717 120.055C248.875 122.154 245.684 123.393 242.212 123.853C240.318 124.103 238.404 124.011 236.488 123.753C233.49 123.348 230.693 122.374 228.041 120.986C225.945 119.889 223.994 118.561 222.198 116.989C219.122 114.295 216.825 111.03 215.062 107.39C214.045 105.291 213.333 103.061 213.078 100.715C213.041 100.379 212.975 100.046 212.922 99.6391Z"></path>
</svg>
