<svg xmlns="http://www.w3.org/2000/svg" fill="none" viewBox="0 0 413 198" height="198" width="413">
<path fill="#FAFAF9" d="M38.9879 118.254C39.0513 117.754 39.0513 117.248 38.9879 116.749C38.9869 115.593 38.91 114.438 38.7577 113.292L35.4432 87.7104L23.5891 116.278C23.1903 117.086 22.9111 117.95 22.7604 118.841H21.7246C21.5464 117.96 21.2764 117.101 20.919 116.278L9.41019 88.6509L6.44091 112.328C6.24734 113.526 6.13964 114.736 6.11867 115.949C6.11219 116.739 6.18936 117.528 6.34884 118.301H0.203125V117.689C2.50489 117.689 3.4256 116.467 3.90897 112.987L7.47671 86.5348V86.1351C7.491 85.8531 7.491 85.5706 7.47671 85.2886C7.41221 84.3612 7.03139 83.4862 6.40053 82.816C5.76968 82.1458 4.92873 81.7228 4.02406 81.6206V81.0093H11.712C11.7873 81.6196 11.9748 82.2099 12.2644 82.7492L23.6351 110.4L34.5455 84.1835C35.1049 83.221 35.414 82.1283 35.4432 81.0093H42.9239V81.6206C40.7372 81.7852 39.7014 82.7492 39.7014 84.4656C39.6717 84.7234 39.6717 84.9838 39.7014 85.2416L39.8626 86.1821L43.6835 113.269C44.1669 116.561 44.9495 117.572 47.1822 117.736V118.23H38.9879"></path>
<path fill="#FAFAF9" d="M77.0362 118.771V118.559C76.8278 117.275 76.4963 116.015 76.0464 114.797L71.4429 102.853H60.7627L56.5044 114.068C55.8052 115.537 55.4132 117.139 55.3535 118.771H49.461V118.206C50.4537 118.127 51.3973 117.733 52.1605 117.08C52.9238 116.426 53.4686 115.546 53.7193 114.562L66.2869 82.6081C66.4938 82.0946 66.6406 81.558 66.7243 81.0093H67.9212C68.0228 81.5972 68.1848 82.1725 68.4045 82.7257L80.765 113.222C82.2382 116.937 83.274 117.924 85.3686 118.206V118.771H77.0362ZM66.0107 88.792L61.4072 100.948H70.6142L66.0107 88.792Z"></path>
<path fill="#FAFAF9" d="M121.023 114.068C120.427 115.889 119.927 117.741 119.527 119.617C118.752 119.673 117.982 119.791 117.225 119.97L115.245 120.44C113.442 120.806 111.606 120.987 109.767 120.981C107.194 121.075 104.628 120.642 102.222 119.707C99.8148 118.773 97.6156 117.355 95.7535 115.539C93.8914 113.722 92.4043 111.543 91.3798 109.13C90.3552 106.717 89.8139 104.119 89.7879 101.489C89.8668 96.0005 92.0674 90.7671 95.9097 86.9303C99.7519 83.0935 104.924 80.9649 110.297 81.009C112.19 81.0147 114.075 81.2515 115.913 81.7143C117.216 82.0588 118.551 82.2637 119.895 82.3257V82.7254C120.128 84.5235 120.467 86.3058 120.908 88.0628V88.4625H120.309C119.02 84.9826 115.061 82.8665 109.767 82.8665C100.929 82.8665 94.8288 89.9203 94.8288 100.289C94.8288 111.199 101.159 119.1 109.767 119.1C114.693 119.1 119.089 116.748 120.54 113.386L121.138 113.621V113.974"></path>
<path fill="#FAFAF9" d="M151.89 87.1696C151.838 86.6085 151.676 86.0637 151.416 85.567C151.155 85.0704 150.799 84.632 150.37 84.2775C149.173 83.3605 147.907 82.9373 143.672 82.9373H137.342V98.1266H147.815C148.963 98.1362 150.107 98.002 151.222 97.7269V100.384C150.106 100.12 148.96 100.009 147.815 100.055H137.342V114.162C137.174 115.689 137.356 117.234 137.872 118.677H130.138V118.065C132.278 118.065 133.015 116.89 133.015 113.763V85.5472C133.015 82.9843 132.071 81.7382 130.069 81.7382V81.0093H152.304V81.456C152.304 82.9138 152.304 84.8419 152.465 86.5348V87.1226H151.89"></path>
<path fill="#FAFAF9" d="M184.529 118.771V118.559C184.318 117.276 183.986 116.016 183.539 114.797L178.935 102.853H168.232L163.974 114.068C163.274 115.537 162.883 117.139 162.823 118.771H156.953V118.206C157.945 118.123 158.887 117.728 159.65 117.076C160.412 116.423 160.958 115.545 161.212 114.562L173.779 82.6081C173.978 82.0936 174.117 81.557 174.194 81.0093H175.39C175.49 81.5976 175.652 82.1731 175.874 82.7257L188.165 113.292C189.638 117.007 190.674 117.995 192.769 118.277V118.841L184.529 118.771ZM173.503 88.792L168.9 100.948H178.107L173.503 88.792Z"></path>
<path fill="#FAFAF9" d="M229.114 118.771C226.479 118.788 223.905 117.966 221.748 116.42C220.865 115.664 220.09 114.786 219.446 113.81C218.003 111.844 216.696 109.777 215.533 107.626C214.435 105.333 212.911 103.28 211.045 101.583C209.809 100.835 208.382 100.483 206.948 100.572H206.626V99.2552H208.536C214.382 99.2552 217.26 96.5277 217.26 90.9552C217.335 89.6873 217.123 88.4187 216.64 87.2482C216.157 86.0778 215.416 85.037 214.475 84.207C212.518 82.9359 210.197 82.3805 207.891 82.6317C206.943 82.5996 205.994 82.6705 205.06 82.8433V113.81C205.06 116.866 205.06 117.101 205.613 118.206H197.326V117.595C199.628 117.595 200.434 116.255 200.434 113.081V86.2996C200.434 82.279 199.168 81.5971 197.326 81.5971V81.0093H208.076C212.495 81.0093 215.602 81.1739 218.549 83.0784C219.675 83.925 220.59 85.0299 221.222 86.3041C221.854 87.5783 222.184 88.9861 222.185 90.4144C222.185 95.5402 218.411 99.2317 212.104 100.29C215.856 101.066 218.157 102.97 221.748 108.378L224.211 112.07C225.334 114.077 226.913 115.778 228.815 117.031C229.683 117.588 230.689 117.882 231.715 117.877C232.128 117.928 232.545 117.928 232.958 117.877L233.119 118.442C231.816 118.769 230.479 118.935 229.137 118.935"></path>
<path fill="#FAFAF9" d="M264.377 112.869C264.016 114.688 263.747 116.524 263.571 118.371V118.771C261.822 118.606 258.461 118.489 256.436 118.489H239.863V117.877C242.303 117.877 243.132 116.537 243.132 112.822V85.5002C243.132 81.9028 241.543 81.5736 239.932 81.5736V81.0093H250.866V81.6206C248.564 81.7852 247.712 82.9608 247.712 85.8294V114.75C247.712 115.761 247.712 115.879 247.873 116.043C248.034 116.208 248.633 116.49 249.945 116.49H256.413C261.201 116.49 262.996 115.479 263.963 112.211H264.515V112.657"></path>
<path fill="#FAFAF9" d="M294.254 118.771V118.559C294.046 117.275 293.714 116.015 293.264 114.797L288.66 102.853H278.003L273.745 114.068C273.046 115.537 272.654 117.139 272.594 118.771H266.702V118.206C267.693 118.123 268.635 117.728 269.398 117.076C270.16 116.423 270.706 115.545 270.96 114.562L283.482 82.6081C283.686 82.0939 283.833 81.5575 283.919 81.0093H285.116C285.214 81.598 285.376 82.1737 285.599 82.7257L297.891 113.292C299.387 117.007 300.4 117.995 302.494 118.277V118.841L294.254 118.771ZM283.32 88.792L278.717 100.948H287.924L283.32 88.792Z"></path>
<path fill="#FAFAF9" d="M341.601 86.7934V116.067C341.522 116.943 341.522 117.824 341.601 118.7H340.151C340.167 118.623 340.167 118.543 340.151 118.465C339.944 118.136 339.507 117.525 338.862 116.608C338.701 116.372 338.54 116.208 338.379 115.996L315.545 88.0631L315.752 112.563C315.695 114.575 315.951 116.583 316.512 118.512H310.251V117.924C312.829 117.924 313.52 116.678 313.52 112.822V85.5237C312.323 83.3605 310.619 81.6911 309.215 81.6206V81.0093H315.959L339.622 110.048L339.414 85.171V84.0894C339.475 83.0484 339.35 82.0048 339.046 81.0093H345.054V81.6911C342.522 81.6911 341.624 83.0314 341.624 86.7934"></path>
<path fill="#FAFAF9" d="M378.591 112.752C378.061 115.949 377.9 116.913 377.739 118.489V118.771C377.671 118.752 377.599 118.752 377.532 118.771H354.215V118.206C356.517 118.042 357.253 116.96 357.253 113.316V86.2291C357.253 83.1489 356.263 81.7852 354.054 81.7382V81.0093H376.795L377.002 86.911H376.427C376.408 86.2726 376.224 85.6509 375.892 85.1096C375.56 84.5682 375.093 84.1269 374.539 83.8308C372.511 82.9981 370.309 82.7067 368.141 82.9843H361.58V98.3617H371.685C372.93 98.4519 374.18 98.3408 375.391 98.0325V100.736C374.162 100.399 372.887 100.264 371.616 100.337H361.58V116.349C361.58 116.349 362.202 116.631 364.573 116.631H367.404C373.112 116.631 374.701 116.396 376.105 115.385C376.612 115.023 377.039 114.555 377.357 114.012C377.674 113.468 377.875 112.863 377.946 112.234H378.521V112.634"></path>
<path fill="#FAFAF9" d="M399.606 120.981C396.991 120.892 394.408 120.36 391.964 119.406C391.309 119.197 390.64 119.039 389.961 118.935V112.023H390.583C391.158 114.148 392.43 116.007 394.185 117.291C395.94 118.574 398.072 119.205 400.227 119.076C405.314 119.076 409.227 115.596 409.227 111.341C409.26 110.356 409.069 109.376 408.669 108.479C408.27 107.581 407.673 106.791 406.925 106.168C405.264 104.892 403.393 103.928 401.401 103.323C398.883 102.497 396.489 101.318 394.289 99.8194C393.049 98.8961 392.046 97.6808 391.365 96.2767C390.684 94.8726 390.344 93.3213 390.376 91.7545C390.405 90.2941 390.72 88.8543 391.3 87.5195C391.881 86.1847 392.717 84.9818 393.759 83.9811C394.801 82.9804 396.028 82.2022 397.367 81.6918C398.707 81.1815 400.133 80.9494 401.562 81.0092C403.107 81.0281 404.648 81.1855 406.166 81.4794C407.211 81.7018 408.275 81.8199 409.342 81.8321V82.3494C409.803 85.2415 410.079 86.5817 410.401 87.9219L409.918 88.063C409.082 86.3818 407.782 84.9884 406.178 84.0562C404.573 83.1239 402.736 82.6939 400.895 82.8197C399.954 82.7619 399.011 82.9016 398.125 83.2301C397.239 83.5586 396.428 84.069 395.742 84.7299C395.056 85.3907 394.51 86.188 394.137 87.0727C393.765 87.9573 393.573 88.9105 393.575 89.8735C393.551 90.7661 393.725 91.6527 394.084 92.4671C394.443 93.2814 394.977 94.0023 395.647 94.5761C397.208 95.8113 398.968 96.7582 400.849 97.3741C403.253 98.2399 405.567 99.3506 407.754 100.689C409.121 101.555 410.249 102.763 411.031 104.2C411.812 105.636 412.221 107.252 412.219 108.895C412.206 110.547 411.865 112.179 411.217 113.692C410.568 115.205 409.626 116.568 408.446 117.697C407.267 118.827 405.875 119.701 404.356 120.265C402.836 120.83 401.22 121.073 399.606 120.981Z"></path>
</svg>
