<svg xmlns="http://www.w3.org/2000/svg" fill="none" viewBox="0 0 330 200" height="200" width="330">
<path fill="#FAFAF9" d="M279.46 104.511C279.46 96.8317 284.519 91.175 291.508 91.175C300.587 91.175 303.36 99.6472 303.112 105.848H283.922C283.772 110.309 286.301 114.272 291.908 114.272C295.378 114.272 297.805 112.59 298.552 109.269H302.712C301.572 114.919 297.51 117.995 291.753 117.995C283.578 117.995 279.707 112.343 279.46 104.511ZM283.922 102.133H298.65C298.614 100.199 297.82 98.355 296.438 97.0004C295.056 95.6459 293.196 94.8886 291.261 94.892C286.848 94.8907 284.225 98.2146 283.922 102.133ZM229.482 104.511C229.482 96.8317 234.541 91.175 241.528 91.175C250.607 91.175 253.379 99.6472 253.134 105.848H233.944C233.797 110.309 236.324 114.272 241.925 114.272C245.395 114.272 247.827 112.59 248.569 109.269H252.731C251.591 114.919 247.523 117.995 241.775 117.995C233.599 117.995 229.728 112.343 229.482 104.511ZM233.944 102.133H248.672C248.637 100.198 247.842 98.3538 246.46 96.9992C245.077 95.6445 243.218 94.8883 241.283 94.892C236.871 94.8907 234.238 98.2146 233.944 102.133ZM191.3 109.317H195.514C195.661 113.088 198.934 114.278 202.403 114.278C205.028 114.278 208.602 113.681 208.602 110.459C208.602 107.186 204.438 106.644 200.221 105.7C196.057 104.757 191.842 103.372 191.842 98.4602C191.842 93.3038 196.948 91.1762 201.411 91.1762C207.063 91.1762 211.574 92.9583 211.924 99.2064H207.703C207.406 95.9326 204.532 94.892 201.753 94.892C199.226 94.892 196.302 95.5813 196.302 98.1653C196.302 101.189 200.763 101.684 204.683 102.626C208.897 103.569 213.057 104.955 213.057 109.921C213.057 116.016 207.356 118 202.156 118C196.409 117.995 191.548 115.659 191.3 109.317ZM164.696 104.609C164.696 97.0725 169.01 91.1712 177.142 91.1712C185.274 91.1712 189.585 97.0686 189.585 104.609C189.585 112.091 185.271 117.995 177.142 117.995C169.012 117.995 164.696 112.091 164.696 104.609ZM169.163 104.609C169.163 110.802 172.733 114.272 177.142 114.272C181.551 114.272 185.121 110.802 185.121 104.609C185.121 98.36 181.556 94.8907 177.142 94.8907C172.728 94.8907 169.163 98.36 169.163 104.609ZM58.1458 114.026C57.036 115.322 55.6486 116.351 54.0864 117.038C52.5242 117.724 50.8276 118.051 49.1221 117.993C44.4571 117.993 40.6432 115.909 40.6432 110.8C40.6432 105.002 44.9578 103.76 49.322 102.918C53.9819 102.022 57.9483 102.328 57.9483 99.1551C57.9483 95.4807 54.9216 94.8895 52.2416 94.8895C48.6748 94.8895 46.0496 95.981 45.8525 99.7463H41.6356C41.8826 93.3984 46.7849 91.1712 52.4916 91.1712C57.099 91.1712 62.1128 92.2079 62.1128 98.2102V111.392C62.1128 113.377 62.1126 114.271 63.4526 114.271C63.8936 114.263 64.3296 114.176 64.7399 114.014V117.288C63.8155 117.797 62.767 118.039 61.7128 117.985C59.532 117.995 58.1458 116.812 58.1458 114.026ZM50.2619 105.895C47.4847 106.389 45.1051 107.382 45.1051 110.504C45.1051 113.283 47.4843 114.273 50.0669 114.273C55.6188 114.273 57.8983 110.797 57.8983 108.468V104.154C56.2589 105.348 53.0865 105.396 50.2619 105.895ZM89.4515 104.214C89.4515 96.5355 94.5107 90.8775 101.5 90.8775C110.571 90.8775 113.349 99.3587 113.103 105.552H93.9133C93.7636 110.02 96.293 113.983 101.892 113.983C105.362 113.983 107.794 112.3 108.534 108.979H112.701C111.56 114.629 107.501 117.705 101.745 117.705C93.5667 117.708 89.6972 112.055 89.4515 104.214ZM93.9133 101.836H108.641C108.605 99.9019 107.811 98.06 106.429 96.7067C105.047 95.3535 103.187 94.597 101.252 94.602C96.8408 94.602 94.209 97.9159 93.9133 101.836ZM306.236 117.403V91.7661H310.196V97.1704H310.296C312.331 93.0545 315.157 91.0278 319.714 91.175V95.6369C312.922 95.6369 310.448 99.5003 310.448 105.995V117.403H306.236ZM264.335 117.403C259.973 117.403 258.233 116.507 258.233 111.795V95.4881H253.876V91.7661H258.233V84.0872H262.457V91.7661H267.562V95.4881H262.457V111.4C262.457 113.336 263 113.681 265.624 113.681H267.562V117.403H264.335ZM224.47 117.403C220.106 117.403 218.376 116.507 218.376 111.795V95.4881H214.012V91.7661H218.376V84.0872H222.59V91.7661H227.695V95.4881H222.59V111.4C222.59 113.336 223.133 113.681 225.758 113.681H227.695V117.403H224.47ZM156.767 117.403V101.189H138.125V117.403H133.418V82H138.125V97.2216H156.767V82H161.481V117.404L156.767 117.403ZM116.225 117.403V91.7661H120.192V97.1704H120.29C122.325 93.0545 125.153 91.0278 129.713 91.175V95.6369C122.921 95.6369 120.445 99.5003 120.445 105.995V117.403H116.225ZM85.447 117.403L76.6732 104.012L72.7063 107.684V117.403H68.4919V84.0822H72.7063V102.976L84.4097 91.7661H90.0614L79.9003 101.085L90.8038 117.403H85.447ZM10 117.403V82H22.8382C25.9623 82 30.0772 81.9998 32.2119 83.2886C33.4988 84.0405 34.5618 85.1212 35.294 86.4194C36.0262 87.7176 36.401 89.1873 36.3788 90.6775C36.4401 92.3836 35.9646 94.0651 35.0215 95.4881C34.0785 96.9111 32.7146 98.0044 31.1196 98.6127V98.7102C33.1002 99.0446 34.8873 100.102 36.1339 101.677C37.3804 103.252 37.9983 105.233 37.8686 107.238C37.8686 112.445 34.1468 117.406 27.1026 117.406L10 117.403ZM14.7093 113.434H26.5102C30.58 113.434 33.1543 110.957 33.1543 107.087C33.1543 102.479 29.443 101.19 25.4679 101.19H14.7093V113.434ZM14.7093 97.2204H24.1305C29.4828 97.2204 31.667 95.2852 31.667 91.5699C31.667 86.6631 28.2004 85.9619 24.1305 85.9619H14.7093V97.2204ZM271.796 117.398V84.0835H275.921V117.398H271.796Z"></path>
</svg>
