<svg xmlns="http://www.w3.org/2000/svg" fill="none" viewBox="0 0 301 196" height="196" width="301">
<path fill="#FAFAF9" d="M12.1698 110.167L11.2865 112.017H21.7198L20.8531 110.167H12.1698ZM0.953125 124.5H3.03646L19.9031 88.8L36.6365 124.5H54.2031L26.2865 71.1833L0.953125 124.5ZM62.5365 133.667H64.2031V62H62.5365V133.667ZM72.5365 92.95H76.9031V105.467H80.0531V92.95H84.4031V90.1833H72.5365V92.95ZM96.9531 96.6667H90.4031V90.1833H87.2531V105.467H90.4031V99.4667H96.9531V105.467H100.086V90.1833H96.9531V96.6667ZM270.703 97.8167C270.703 102.317 267.186 105.667 262.803 105.667C258.42 105.667 254.886 102.35 254.886 97.8167C254.886 93.2833 258.386 89.9833 262.803 89.9833C267.22 89.9833 270.703 93.3167 270.703 97.8167ZM267.47 97.8167C267.47 94.9667 265.586 92.8 262.803 92.8C260.02 92.8 258.136 94.9667 258.136 97.8167C258.136 100.667 260.02 102.867 262.803 102.867C265.586 102.867 267.47 100.683 267.47 97.8167ZM300.953 95.3C300.953 98.8833 298.37 100.45 295.27 100.45H293.036V105.467H289.903V90.1833H295.27C298.386 90.1833 300.953 91.7333 300.953 95.3167V95.3ZM297.703 95.3C297.703 93.6 296.686 92.95 295.17 92.95H293.036V97.6833H295.17C296.72 97.6833 297.703 97 297.703 95.3ZM283.07 99.7667C283.07 101.983 282.136 102.85 280.053 102.85C277.97 102.85 276.986 101.983 276.986 99.7667V90.1833H273.853V99.9333C273.853 103.8 276.553 105.667 280.036 105.667C283.52 105.667 286.186 103.8 286.186 99.9333V90.1833H283.036V99.7667H283.07ZM106.97 99.15H113.103V96.45H106.97V92.95H113.936V90.1833H103.836V105.467H114.253V102.7H106.97V99.15ZM175.57 102.867C172.786 102.867 170.936 100.667 170.936 97.8167C170.936 94.9667 172.803 92.8333 175.57 92.8333C177.303 92.8333 178.536 93.6667 179.253 94.8333L181.67 93.1167C180.286 90.9833 178.32 90 175.57 90C171.186 90 167.703 93.3 167.703 97.8C167.703 102.3 171.186 105.65 175.57 105.65C178.52 105.65 180.603 104.35 181.936 102.267L179.486 100.6C178.636 101.9 177.536 102.85 175.57 102.85V102.867ZM216.27 97.8167C216.27 102.317 212.786 105.667 208.37 105.667C203.953 105.667 200.47 102.35 200.47 97.8167C200.47 93.2833 203.97 89.9833 208.37 89.9833C212.77 89.9833 216.27 93.3167 216.27 97.8167ZM213.053 97.8167C213.053 94.9667 211.153 92.8 208.37 92.8C205.586 92.8 203.703 94.9667 203.703 97.8167C203.703 100.667 205.586 102.867 208.37 102.867C211.153 102.867 213.053 100.683 213.053 97.8167ZM157.786 99.15H163.92V96.45H157.786V92.95H164.77V90.1833H154.653V105.467H165.086V102.7H157.803V99.15H157.786ZM191.936 102.867C189.186 102.867 187.32 100.667 187.32 97.8167C187.32 94.9667 189.186 92.8333 191.936 92.8333C193.686 92.8333 194.936 93.6667 195.636 94.8333L198.053 93.1167C196.686 90.9833 194.703 90 191.936 90C187.553 90 184.086 93.3 184.086 97.8C184.086 102.3 187.57 105.65 191.936 105.65C194.886 105.65 196.986 104.35 198.303 102.267L195.87 100.6C195.02 101.9 193.903 102.85 191.936 102.85V102.867ZM249.186 99.6833L252.67 105.467H249.07L245.97 100.167H243.97V105.467H240.82V90.1833H240.836H246.486C249.603 90.1833 252.17 91.65 252.17 95.2167C252.17 97.5333 250.953 99 249.17 99.6833H249.186ZM248.936 95.2167C248.936 93.5333 247.886 92.95 246.403 92.95H243.97V97.5167H246.403C247.953 97.5167 248.936 96.9 248.936 95.2167ZM129.103 90.05L136.086 105.467H132.786L131.936 103.4H126.003L125.153 105.467H122.12L128.836 90.05H129.103ZM129.836 98.4667C129.486 97.5833 129.17 96.6667 128.92 95.75C128.886 95.8167 128.453 97.4167 128.02 98.4667L127.053 100.767H130.803L129.836 98.4667ZM230.786 99.8333H234.47V102.3C233.67 102.683 232.453 102.867 231.47 102.867C228.253 102.867 226.403 100.667 226.403 97.8167C226.403 94.9667 228.203 92.8333 230.97 92.8333C232.736 92.8333 233.62 93.4333 234.37 94.2167L236.503 92.1C235.253 90.6667 233.453 90 230.97 90C226.353 90 223.17 93.3 223.17 97.8C223.17 102.333 226.47 105.65 231.453 105.65C234.236 105.65 236.436 104.6 237.303 103.883V97.05H230.753V99.8167L230.786 99.8333ZM151.453 97.8167C151.453 102.333 148.136 105.467 143.42 105.467H138.72V90.1833H143.42C148.103 90.1833 151.453 93.3167 151.453 97.8167ZM148.186 97.8167C148.186 94.95 146.636 92.95 143.253 92.95H141.87V102.7H143.253C146.636 102.7 148.186 100.683 148.186 97.8167Z"></path>
</svg>
